<svg width="64" height="64" fill="none" xmlns="http://www.w3.org/2000/svg"><g filter="url(#a)"><rect x="4" y="2" width="56" height="56" rx="28" fill="url(#b)"/><path d="M32.075 16.067c-7.89 0-14.008 5.782-14.008 13.588 0 4.084 1.674 7.614 4.399 10.052.227.203.367.49.374.798l.077 2.493a1.12 1.12 0 0 0 1.573.992l2.78-1.226c.235-.105.501-.123.75-.056 1.278.35 2.637.54 4.055.54 7.89 0 14.009-5.783 14.009-13.589s-6.118-13.592-14.009-13.592Z" fill="#fff"/><path d="m23.663 33.63 4.115-6.528a2.1 2.1 0 0 1 3.04-.56l3.275 2.455a.84.84 0 0 0 1.012-.003l4.42-3.355c.588-.449 1.358.259.966.886l-4.118 6.524a2.103 2.103 0 0 1-3.04.56l-3.275-2.455a.84.84 0 0 0-1.012.004l-4.42 3.355c-.588.448-1.358-.256-.963-.883Z" fill="url(#c)"/></g><defs><radialGradient id="b" cx="0" cy="0" r="1" gradientUnits="userSpaceOnUse" gradientTransform="matrix(61.6 0 0 61.5983 13.38 57.998)"><stop stop-color="#09F"/><stop offset=".6" stop-color="#A033FF"/><stop offset=".9" stop-color="#FF5280"/><stop offset="1" stop-color="#FF7061"/></radialGradient><radialGradient id="c" cx="0" cy="0" r="1" gradientUnits="userSpaceOnUse" gradientTransform="translate(22.76 44.084) scale(30.8185)"><stop stop-color="#09F"/><stop offset=".6" stop-color="#A033FF"/><stop offset=".9" stop-color="#FF5280"/><stop offset="1" stop-color="#FF7061"/></radialGradient><filter id="a" x="0" y="0" width="64" height="64" filterUnits="userSpaceOnUse" color-interpolation-filters="sRGB"><feFlood flood-opacity="0" result="BackgroundImageFix"/><feColorMatrix in="SourceAlpha" values="0 0 0 0 0 0 0 0 0 0 0 0 0 0 0 0 0 0 127 0" result="hardAlpha"/><feOffset dy="2"/><feGaussianBlur stdDeviation="2"/><feComposite in2="hardAlpha" operator="out"/><feColorMatrix values="0 0 0 0 0 0 0 0 0 0 0 0 0 0 0 0 0 0 0.1 0"/><feBlend in2="BackgroundImageFix" result="effect1_dropShadow_2422_12783"/><feBlend in="SourceGraphic" in2="effect1_dropShadow_2422_12783" result="shape"/></filter></defs></svg>