<svg width="46" height="46" fill="none" xmlns="http://www.w3.org/2000/svg"><g clip-path="url(#a)"><circle cx="23" cy="23" r="23" fill="#fff"/><path fill-rule="evenodd" clip-rule="evenodd" d="M8.858 37.142c7.81 7.81 20.474 7.81 28.284 0 7.81-7.81 7.81-20.474 0-28.284-7.81-7.81-20.474-7.81-28.284 0-7.81 7.81-7.81 20.474 0 28.284ZM30.07 18.581a1.875 1.875 0 0 0-2.652-2.652L23 20.349l-4.42-4.42a1.875 1.875 0 0 0-2.651 2.652L20.349 23l-4.42 4.42a1.875 1.875 0 0 0 2.652 2.651L23 25.651l4.42 4.42a1.875 1.875 0 0 0 2.651-2.652L25.651 23l4.42-4.42Z" fill="#0DECC5"/></g><defs><clipPath id="a"><path fill="#fff" d="M0 0h46v46H0z"/></clipPath></defs></svg>