<svg id="_4" data-name="4" xmlns="http://www.w3.org/2000/svg" viewBox="0 0 50 28.17"><defs><clipPath id="clippath"><rect class="cls-1" x="-.13" y=".2" width="50" height="28" rx="5" ry="5"/></clipPath><clipPath id="clippath-1"><path class="cls-1" d="M-.13.12h50v28.16h-50z"/></clipPath><style>.cls-1{fill:none}.cls-1,.cls-2,.cls-3{stroke-width:0}.cls-2{fill:#1a237b}.cls-3{fill:#bd0034}</style></defs><g style="clip-path:url(#clippath)"><g style="clip-path:url(#clippath-1)" id="UNITED_KINGDOM" data-name="UNITED KINGDOM"><path style="fill:#fff;stroke-width:0" d="M-.13.12h50v28.16h-50z"/><path class="cls-3" d="m33.35 10.3 16.52-8.93V.12h-1.14L29.89 10.3h3.46zM32.57 18.66l17.3 9.35v-1.87l-13.84-7.48h-3.46zM-.13 2.26l14.8 8.04h3.46L-.13.39v1.87zM17.34 18.66-.13 28.12v.16h3.16l17.77-9.62h-3.46z"/><path class="cls-2" d="M46.45.12H28.94v9.47L46.45.12zM21.21.12H3.78l17.43 9.47V.12zM49.87 10.3V3.84L37.99 10.3h11.88zM49.87 25.05v-6.39H37.99l11.88 6.39zM4.77 28.28h16.44v-8.9l-16.44 8.9zM28.94 28.28h16.5l-16.5-8.9v8.9zM-.13 18.66v6.68l12.29-6.68H-.13zM-.13 10.3h12.29L-.13 3.61v6.69z"/><path class="cls-3" d="M22.76.12v11.85H-.13v5.02h22.89v11.29h4.64V16.99h22.47v-5.02H27.4V.12h-4.64z"/></g></g></svg>