<svg id="_4" data-name="4" xmlns="http://www.w3.org/2000/svg" viewBox="0 0 50 29.16"><defs><clipPath id="clippath"><rect class="cls-2" x="-.13" y=".19" width="50" height="29" rx="5.09" ry="5.09"/></clipPath><clipPath id="clippath-1"><path class="cls-2" d="M-.13.11h50v29.16h-50z"/></clipPath><style>.cls-1,.cls-2{fill:#f7de29;stroke-width:0}.cls-2{fill:none}</style></defs><g style="clip-path:url(#clippath)"><g style="clip-path:url(#clippath-1)" id="CHINA"><path style="fill:#cb1d23;stroke-width:0" d="M-.13.11h50v29.16h-50z"/><path class="cls-1" d="m4.68 10.66.94-2.91-2.47-1.81h3.06l.95-2.91.95 2.91 3.06.01-2.47 1.8.93 2.91-2.47-1.8-2.48 1.8zM13.2 12.23l1.04.42.72-.85-.08 1.11 1.03.42-1.08.27-.08 1.1-.59-.94-1.08.27.71-.85-.59-.95zM18.79 6.64l-1.09-.19-.53.98-.15-1.1-1.1-.2 1-.48-.15-1.11.77.8 1-.49-.52.99.77.8zM16.47 11.62l.34-1.06-.9-.66h1.11l.35-1.05.34 1.05h1.12l-.9.66.34 1.06-.9-.65-.9.65zM13.26 1.96l1.01.47.76-.82-.13 1.11 1 .48-1.09.2-.13 1.11-.55-.97-1.09.2.76-.81-.54-.97z"/></g></g></svg>