<svg width="53" height="50" viewBox="0 0 53 50" fill="none" xmlns="http://www.w3.org/2000/svg">
<path d="M42.2539 21.4041C42.2539 21.4041 33.9451 23.1518 27.2912 23.1518C20.6373 23.1518 12.3284 21.4041 12.3284 21.4041V31.2862C12.3284 31.2862 20.6373 29.5385 27.2912 29.5385C33.9451 29.5385 42.2539 31.2862 42.2539 31.2862V21.4041Z" fill="#FFF1C8"/>
<path d="M42.2539 21.4041V31.2862C42.2539 31.2862 33.944 29.5385 27.2912 29.5385C20.6384 29.5385 12.3273 31.2862 12.3273 31.2862V21.4041C12.3273 21.4041 13.5707 21.6663 15.4807 21.9874C18.5072 22.4964 23.2106 23.1551 27.2912 23.1551C31.41 23.1551 36.1637 22.4844 39.188 21.9732C41.0499 21.6586 42.2539 21.4041 42.2539 21.4041Z" fill="#FFF1C8"/>
<path d="M42.2539 21.4041V31.2862C42.2539 31.2862 36.7078 30.1174 31.0499 29.6892C28.5486 29.4844 26.0348 29.4844 23.5335 29.6892C17.8746 30.1174 12.3273 31.2862 12.3273 31.2862V21.4041C15.7895 22.1041 19.2869 22.6171 22.8045 22.941C25.7896 23.2247 28.7949 23.2247 31.78 22.941C35.2963 22.6153 38.7926 22.1023 42.2539 21.4041Z" fill="#FFF1C8"/>
<g style="mix-blend-mode:multiply">
<path d="M28.2577 29.5472C32.7093 29.6565 38.5981 30.5161 42.2539 31.2862V30.6898C42.2539 30.6898 38.1 28.858 31.965 28.1546C31.9997 28.031 32.0271 27.9056 32.0471 27.7788C32.5438 27.1129 32.7687 26.2837 32.6764 25.4588C36.595 24.4418 39.1859 22.681 39.1859 22.681V21.9732C37.2036 22.3075 34.4792 22.7116 31.6738 22.9498C28.9604 23.1802 27.0876 23.1944 25.1195 23.0994C24.9094 23.0896 22.8691 22.8307 22.8023 22.941C20.0746 22.7051 17.428 22.3151 15.4785 21.9874V22.681C15.4785 22.681 18.0322 24.4167 21.9037 25.4369C21.8051 26.2689 22.0295 27.1069 22.5309 27.7788C22.5507 27.9082 22.5785 28.0362 22.6141 28.1622C16.5611 28.8711 12.3251 30.6898 12.3251 30.6898V31.2862C12.3251 31.2862 17.9599 30.0988 23.6637 29.6805C25.1951 29.5691 26.7264 29.5101 28.2577 29.5472Z" fill="#FFF1C8"/>
</g>
<path d="M12 31.6903V21C16.3323 21.9121 22.6567 22.8274 27.2912 22.8274C31.9037 22.8274 38.2161 21.9186 42.5823 21V31.6903C38.25 30.7783 31.9256 29.8629 27.2912 29.8629C22.6775 29.8629 16.3673 30.7706 12 31.6903ZM12.6567 21.805V30.8853C14.3938 30.5412 21.5031 29.2075 27.2912 29.2075C33.0792 29.2075 40.1885 30.5412 41.9256 30.8853V21.805C40.1885 22.1491 33.0792 23.4828 27.2912 23.4828C21.5031 23.4828 14.3938 22.1491 12.6567 21.805Z" fill="#DC8B00"/>
<path d="M25.7423 28.6439V32.2605L27.2846 30.8657L28.8268 32.2605V28.6439H25.7423Z" fill="#DC8B00"/>
<path d="M25.4151 33V28.3162H29.1552V33L27.2846 31.308L25.4151 33ZM27.2846 30.4233L28.4985 31.521V28.9716H26.0718V31.521L27.2846 30.4233Z" fill="#DC8B00"/>
<path d="M28.435 22.5751C28.5253 22.6651 28.6477 22.7158 28.7754 22.716C29.2043 22.716 29.6156 22.8859 29.9189 23.1885C30.2223 23.491 30.3929 23.9013 30.3932 24.3293C30.3931 24.3926 30.4055 24.4553 30.4297 24.5138C30.4539 24.5723 30.4895 24.6254 30.5344 24.6701C30.6845 24.8199 30.8036 24.9978 30.8849 25.1936C30.9662 25.3893 31.008 25.5991 31.008 25.811C31.008 26.0229 30.9662 26.2327 30.8849 26.4285C30.8036 26.6242 30.6845 26.8021 30.5344 26.9519C30.4895 26.9967 30.454 27.0498 30.4298 27.1083C30.4056 27.1668 30.3931 27.2295 30.3932 27.2927C30.3929 27.7207 30.2223 28.1311 29.9189 28.4336C29.6156 28.7361 29.2043 28.9061 28.7754 28.9061C28.6477 28.9064 28.5254 28.957 28.435 29.047C28.1316 29.3497 27.7202 29.5197 27.2911 29.5197C26.8621 29.5197 26.4507 29.3497 26.1473 29.047C26.057 28.9569 25.9346 28.9062 25.8069 28.9061C25.3792 28.9049 24.9693 28.7348 24.667 28.4328C24.3646 28.1309 24.1944 27.7218 24.1935 27.2949C24.1936 27.2316 24.1812 27.1689 24.157 27.1105C24.1327 27.052 24.0972 26.9988 24.0523 26.9541C23.9022 26.8043 23.783 26.6264 23.7018 26.4307C23.6205 26.2349 23.5787 26.0251 23.5787 25.8132C23.5787 25.6013 23.6205 25.3915 23.7018 25.1957C23.783 25 23.9022 24.8221 24.0523 24.6723C24.0971 24.6275 24.1327 24.5744 24.1569 24.5159C24.1811 24.4574 24.1936 24.3948 24.1935 24.3315C24.1938 23.9035 24.3644 23.4932 24.6677 23.1906C24.9711 22.8881 25.3824 22.7182 25.8113 22.7182C25.9389 22.7176 26.0612 22.667 26.1517 22.5773C26.4546 22.2756 26.8649 22.106 27.2929 22.1056C27.7208 22.1052 28.1315 22.274 28.435 22.5751Z" fill="#E0DDD8"/>
<path d="M27.3338 27.7264C28.3942 27.7264 29.2537 26.8686 29.2537 25.8105C29.2537 24.7524 28.3942 23.8946 27.3338 23.8946C26.2735 23.8946 25.414 24.7524 25.414 25.8105C25.414 26.8686 26.2735 27.7264 27.3338 27.7264Z" fill="#DC8B00"/>
<path d="M25.9153 29.2785C25.9009 29.2643 25.8838 29.2529 25.865 29.2453C25.8462 29.2376 25.8261 29.2337 25.8058 29.2338C25.2914 29.2317 24.7986 29.0267 24.435 28.6635C24.0714 28.3003 23.8666 27.8083 23.8651 27.2949C23.8656 27.2746 23.8619 27.2544 23.8541 27.2356C23.8464 27.2168 23.8349 27.1998 23.8203 27.1857C23.6395 27.0053 23.496 26.7912 23.3982 26.5555C23.3003 26.3198 23.25 26.0672 23.25 25.8121C23.25 25.557 23.3003 25.3044 23.3982 25.0687C23.496 24.833 23.6395 24.6189 23.8203 24.4386C23.8349 24.4244 23.8464 24.4074 23.8541 24.3886C23.8619 24.3698 23.8656 24.3496 23.8651 24.3293C23.866 23.8146 24.0714 23.3212 24.4362 22.9574C24.801 22.5935 25.2955 22.3889 25.8113 22.3883C25.8316 22.3884 25.8517 22.3845 25.8705 22.3768C25.8893 22.3691 25.9064 22.3578 25.9208 22.3435C26.1013 22.163 26.3158 22.0198 26.5519 21.9221C26.788 21.8243 27.041 21.774 27.2966 21.774C27.5522 21.774 27.8053 21.8243 28.0414 21.9221C28.2775 22.0198 28.4919 22.163 28.6725 22.3435C28.6869 22.3578 28.704 22.3691 28.7228 22.3768C28.7415 22.3845 28.7617 22.3884 28.782 22.3883C29.2977 22.3889 29.7923 22.5935 30.1571 22.9574C30.5219 23.3212 30.7272 23.8146 30.7281 24.3293C30.7276 24.3496 30.7314 24.3698 30.7391 24.3886C30.7468 24.4074 30.7584 24.4244 30.773 24.4386C30.9539 24.6188 31.0975 24.8329 31.1954 25.0686C31.2933 25.3043 31.3437 25.557 31.3437 25.8121C31.3437 26.0673 31.2933 26.3199 31.1954 26.5556C31.0975 26.7913 30.9539 27.0054 30.773 27.1857C30.7584 27.1998 30.7468 27.2168 30.7391 27.2356C30.7314 27.2544 30.7276 27.2746 30.7281 27.2949C30.7272 27.8096 30.5219 28.303 30.1571 28.6669C29.7923 29.0307 29.2977 29.2354 28.782 29.2359C28.7617 29.2358 28.7415 29.2398 28.7228 29.2474C28.704 29.2551 28.6869 29.2664 28.6725 29.2807C28.4914 29.4614 28.2764 29.6047 28.0398 29.7024C27.8031 29.8001 27.5495 29.8502 27.2934 29.85C27.0374 29.8498 26.7838 29.7992 26.5474 29.7012C26.3109 29.6031 26.0961 29.4595 25.9153 29.2785ZM26.3827 22.8067C26.2306 22.9579 26.0249 23.0431 25.8102 23.0437C25.4687 23.0443 25.1413 23.1799 24.8999 23.4209C24.6584 23.6619 24.5225 23.9885 24.5219 24.3293C24.5222 24.4357 24.5014 24.541 24.4606 24.6393C24.4198 24.7375 24.3599 24.8267 24.2844 24.9017C24.1647 25.0211 24.0697 25.1628 24.0049 25.3189C23.9401 25.4749 23.9068 25.6421 23.9068 25.811C23.9068 25.9799 23.9401 26.1472 24.0049 26.3032C24.0697 26.4592 24.1647 26.601 24.2844 26.7204C24.3602 26.7956 24.4202 26.8852 24.461 26.9838C24.5018 27.0825 24.5225 27.1882 24.5219 27.2949C24.5225 27.6359 24.6585 27.9627 24.9003 28.2038C25.142 28.4448 25.4696 28.5803 25.8113 28.5806C26.026 28.5812 26.2317 28.6664 26.3838 28.8176C26.6259 29.0584 26.9537 29.1936 27.2955 29.1936C27.6373 29.1936 27.9652 29.0584 28.2073 28.8176C28.3592 28.6662 28.5651 28.5809 28.7798 28.5806C29.1207 28.5791 29.4472 28.4431 29.688 28.2022C29.9288 27.9613 30.0642 27.6351 30.0648 27.2949C30.0645 27.1887 30.0853 27.0834 30.1258 26.9852C30.1664 26.887 30.226 26.7977 30.3012 26.7226C30.4212 26.6033 30.5164 26.4616 30.5813 26.3056C30.6463 26.1495 30.6797 25.9822 30.6797 25.8132C30.6797 25.6442 30.6463 25.4769 30.5813 25.3209C30.5164 25.1648 30.4212 25.0231 30.3012 24.9039C30.226 24.8287 30.1664 24.7394 30.1258 24.6412C30.0853 24.543 30.0645 24.4377 30.0648 24.3315C30.0642 23.9905 29.9282 23.6637 29.6864 23.4227C29.4447 23.1817 29.1171 23.0462 28.7754 23.0459C28.669 23.046 28.5637 23.0251 28.4654 22.9844C28.3672 22.9437 28.278 22.8841 28.2029 22.8088C27.9615 22.5682 27.6344 22.4329 27.2933 22.4325C26.9521 22.4321 26.6246 22.5666 26.3827 22.8067Z" fill="#DC8B00"/>
<g filter="url(#filter0_d_860_26)">
<path d="M27.3338 28.0595C26.8891 28.0595 26.4544 27.9279 26.0847 27.6813C25.7149 27.4348 25.4268 27.0843 25.2566 26.6743C25.0865 26.2642 25.042 25.8131 25.1289 25.3778C25.2157 24.9426 25.4299 24.5428 25.7445 24.2291C26.059 23.9154 26.4597 23.7018 26.8959 23.6153C27.3321 23.5289 27.7842 23.5735 28.195 23.7435C28.6058 23.9134 28.9568 24.2012 29.2037 24.5703C29.4506 24.9394 29.5823 25.3732 29.5821 25.817C29.5815 26.4118 29.3444 26.982 28.9229 27.4025C28.5014 27.8229 27.9298 28.0592 27.3338 28.0595ZM27.3338 24.2288C27.0191 24.2288 26.7114 24.322 26.4497 24.4965C26.1879 24.671 25.9839 24.919 25.8635 25.2093C25.743 25.4995 25.7115 25.8188 25.7729 26.1269C25.8343 26.435 25.9859 26.7179 26.2085 26.9401C26.4311 27.1622 26.7146 27.3134 27.0234 27.3747C27.3321 27.436 27.6521 27.4045 27.9429 27.2843C28.2337 27.1641 28.4823 26.9606 28.6571 26.6994C28.832 26.4382 28.9254 26.1312 28.9254 25.817C28.9259 25.608 28.8852 25.401 28.8055 25.2077C28.7258 25.0145 28.6087 24.8388 28.4608 24.6908C28.313 24.5428 28.1374 24.4253 27.944 24.3451C27.7506 24.2649 27.5433 24.2235 27.3338 24.2234V24.2288Z" fill="url(#paint0_linear_860_26)"/>
</g>
<path d="M44.9345 26.0421H47V26.6974H44.9345V26.0421Z" fill="#DC8B00"/>
<path d="M44.2541 24.1746L45.7143 22.7173L46.1787 23.1807L44.7184 24.6379L44.2541 24.1746Z" fill="#DC8B00"/>
<path d="M44.3819 28.5188L44.8462 28.0555L46.3065 29.5127L45.8422 29.9761L44.3819 28.5188Z" fill="#DC8B00"/>
<defs>
<filter id="filter0_d_860_26" x="21.0856" y="23.5724" width="12.4965" height="12.4872" filterUnits="userSpaceOnUse" color-interpolation-filters="sRGB">
<feFlood flood-opacity="0" result="BackgroundImageFix"/>
<feColorMatrix in="SourceAlpha" type="matrix" values="0 0 0 0 0 0 0 0 0 0 0 0 0 0 0 0 0 0 127 0" result="hardAlpha"/>
<feOffset dy="4"/>
<feGaussianBlur stdDeviation="2"/>
<feComposite in2="hardAlpha" operator="out"/>
<feColorMatrix type="matrix" values="0 0 0 0 0 0 0 0 0 0 0 0 0 0 0 0 0 0 0.25 0"/>
<feBlend mode="normal" in2="BackgroundImageFix" result="effect1_dropShadow_860_26"/>
<feBlend mode="normal" in="SourceGraphic" in2="effect1_dropShadow_860_26" result="shape"/>
</filter>
<linearGradient id="paint0_linear_860_26" x1="27.3338" y1="21.4151" x2="27.3338" y2="28.0595" gradientUnits="userSpaceOnUse">
<stop stop-color="#946E00"/>
<stop offset="1" stop-color="#E0DDD8"/>
</linearGradient>
</defs>
</svg>
