<svg width="53" height="50" viewBox="0 0 53 50" fill="none" xmlns="http://www.w3.org/2000/svg">
<path d="M44.0452 12.4414V38.405C44.0452 39.7533 42.8865 40.8464 41.4573 40.8464H12.1279C10.6987 40.8464 9.54 39.7533 9.54 38.405V12.4414C9.54 11.0931 10.6987 10 12.1279 10H41.4573C42.8865 10 44.0452 11.0931 44.0452 12.4414Z" fill="#FFF1CA"/>
<path d="M43.7525 12.0183V16.8945H9.24736V12.0183C9.24736 10.6706 10.4067 9.57687 11.8353 9.57687H41.1646C42.5932 9.57687 43.7525 10.6706 43.7525 12.0183Z" fill="#DC8B00"/>
<path opacity="0.2" d="M43.7525 12.0183V13.2651C43.3592 12.3927 42.4413 11.7807 41.3717 11.7807H12.0423C10.6138 11.7807 9.45439 12.8744 9.45439 14.2221V16.8945H9.24736V12.0183C9.24736 10.6706 10.4067 9.57687 11.8353 9.57687H41.1646C42.5932 9.57687 43.7525 10.6706 43.7525 12.0183Z" fill="#FFF1C8"/>
<path opacity="0.1" d="M32.4349 13.2357C32.4349 14.7233 31.6895 16.0482 30.5302 16.8945H9.24736V12.0183C9.24736 10.6706 10.4067 9.57687 11.8353 9.57687H30.5302C31.6895 10.4232 32.4349 11.7481 32.4349 13.2357Z" fill="#DC8B00"/>
<path d="M27.5224 9.57687H11.8353C10.406 9.57687 9.24736 10.6699 9.24736 12.0183V16.8945H27.5224C29.6644 16.8945 31.4008 15.2565 31.4008 13.2357C31.4007 11.215 29.6644 9.57687 27.5224 9.57687Z" fill="#FFF1CA"/>
<path opacity="0.2" d="M31.3997 13.2356C31.3997 13.7402 31.2893 14.2252 31.0961 14.6646C30.9339 13.9647 30.5647 13.3397 30.0472 12.8515C29.3433 12.1906 28.3771 11.7805 27.304 11.7805H11.6179C10.5586 11.7805 9.64414 12.3827 9.24736 13.2453V12.0181C9.24736 10.6704 10.4067 9.57666 11.8353 9.57666H27.5213C28.5909 9.57666 29.564 9.98682 30.2644 10.6477C30.9649 11.3086 31.3997 12.2266 31.3997 13.2356Z" fill="#FFF1C8"/>
<path d="M14.2955 14.6907C15.1473 14.6907 15.8379 14.0393 15.8379 13.2357C15.8379 12.432 15.1473 11.7806 14.2955 11.7806C13.4437 11.7806 12.7531 12.432 12.7531 13.2357C12.7531 14.0393 13.4437 14.6907 14.2955 14.6907Z" fill="#FFF1CA"/>
<path d="M19.4718 14.6907C20.3236 14.6907 21.0142 14.0393 21.0142 13.2357C21.0142 12.432 20.3236 11.7806 19.4718 11.7806C18.62 11.7806 17.9294 12.432 17.9294 13.2357C17.9294 14.0393 18.62 14.6907 19.4718 14.6907Z" fill="#FFF1CA"/>
<path d="M24.6481 14.6907C25.4999 14.6907 26.1905 14.0393 26.1905 13.2357C26.1905 12.432 25.4999 11.7806 24.6481 11.7806C23.7963 11.7806 23.1057 12.432 23.1057 13.2357C23.1057 14.0393 23.7963 14.6907 24.6481 14.6907Z" fill="#FFF1CA"/>
<path d="M41.1647 9.25128C35.3416 9.25128 17.584 9.25128 11.8354 9.25128C10.218 9.25128 8.90234 10.4925 8.90234 12.0182V37.9818C8.90234 39.5074 10.218 40.7486 11.8353 40.7486H41.1646C42.7819 40.7486 44.0975 39.5074 44.0975 37.9818C44.0975 26.939 44.0975 24.2645 44.0975 12.0182C44.0977 10.4925 42.782 9.25128 41.1647 9.25128ZM9.59248 12.0182C9.59248 10.8515 10.5987 9.90226 11.8354 9.90226H27.5224C29.4708 9.90226 31.0558 11.3977 31.0558 13.2357C31.0558 15.0735 29.4707 16.5689 27.5224 16.5689H9.59248V12.0182ZM43.4075 37.9818C43.4075 39.1485 42.4013 40.0978 41.1646 40.0978H11.8353C10.5986 40.0978 9.59238 39.1485 9.59238 37.9818V17.22H43.4075V37.9818ZM43.4075 16.569H29.8293C30.9817 15.8568 31.7459 14.6296 31.7459 13.2358C31.7459 11.8417 30.9817 10.6146 29.8293 9.90236H41.1647C42.4014 9.90236 43.4076 10.8516 43.4076 12.0183V16.569H43.4075Z" fill="#DC8B00"/>
<path d="M14.2955 11.4551C13.2548 11.4551 12.4082 12.2539 12.4082 13.2357C12.4082 14.2176 13.2549 15.0162 14.2955 15.0162C15.3362 15.0162 16.183 14.2175 16.183 13.2357C16.183 12.254 15.3362 11.4551 14.2955 11.4551ZM14.2955 14.3651C13.6354 14.3651 13.0982 13.8584 13.0982 13.2356C13.0982 12.6127 13.6354 12.1061 14.2955 12.1061C14.9558 12.1061 15.4929 12.6128 15.4929 13.2356C15.4929 13.8585 14.9557 14.3651 14.2955 14.3651Z" fill="#DC8B00"/>
<path d="M19.4717 11.4551C18.431 11.4551 17.5844 12.2539 17.5844 13.2357C17.5844 14.2176 18.4311 15.0162 19.4717 15.0162C20.5123 15.0162 21.3592 14.2175 21.3592 13.2357C21.3592 12.254 20.5124 11.4551 19.4717 11.4551ZM19.4717 14.3651C18.8116 14.3651 18.2744 13.8584 18.2744 13.2356C18.2744 12.6127 18.8116 12.1061 19.4717 12.1061C20.132 12.1061 20.6691 12.6128 20.6691 13.2356C20.6692 13.8585 20.132 14.3651 19.4717 14.3651Z" fill="#DC8B00"/>
<path d="M24.648 11.4551C23.6073 11.4551 22.7607 12.2539 22.7607 13.2357C22.7607 14.2176 23.6074 15.0162 24.648 15.0162C25.6886 15.0162 26.5355 14.2175 26.5355 13.2357C26.5355 12.254 25.6887 11.4551 24.648 11.4551ZM24.648 14.3651C23.9879 14.3651 23.4507 13.8584 23.4507 13.2356C23.4507 12.6127 23.9879 12.1061 24.648 12.1061C25.3083 12.1061 25.8454 12.6128 25.8454 13.2356C25.8455 13.8585 25.3083 14.3651 24.648 14.3651Z" fill="#DC8B00"/>
<g clip-path="url(#clip0_860_80)">
<path d="M29.196 27.9606C28.7615 28.2612 28.4275 28.7948 28.4275 28.7948C28.394 29.3631 28.9623 29.1629 29.2958 29.2962C29.6315 29.43 30.0983 29.2298 29.864 28.8952C29.6315 28.5617 30.0654 28.1942 30.0977 27.7592C30.1312 27.326 29.6315 27.66 29.196 27.9606Z" fill="#DC8B00"/>
<path d="M27.8587 30.8913C27.0533 30.6612 26.8894 30.7581 26.5554 30.2896C26.2213 29.8217 25.2198 28.9535 24.985 29.1208C24.7519 29.2881 25.1188 29.8887 25.2527 30.2562C25.3865 30.6242 25.3738 31.2035 26.5762 31.5381C27.779 31.8721 28.3254 31.0246 27.8587 30.8913Z" fill="#DC8B00"/>
<path d="M26.5 21C22.3577 21 19 24.3577 19 28.5C19 32.6423 22.3577 36 26.5 36C30.6423 36 34 32.6423 34 28.5C34 24.3577 30.6423 21 26.5 21ZM33.3204 29.6429C32.8346 29.1479 31.7858 28.4221 31.7004 29.1837C31.6352 29.7692 32.8029 30.0438 33.265 29.9596C33.171 30.3969 33.0365 30.8192 32.864 31.2219C32.8185 30.1275 32.2433 30.7592 32.2017 31.2727C32.1567 31.8069 31.6663 31.451 31.3104 31.005C30.9544 30.5602 30.3308 31.7631 29.8404 31.9846C29.35 32.2079 27.9706 31.8963 28.3727 32.7865C28.7719 33.6773 27.9267 33.6438 28.4598 34.0344C28.9917 34.4221 30.3187 33.3312 30.7704 33.9387C29.5929 34.8652 28.1119 35.4231 26.5 35.4231C23.0362 35.4231 20.166 32.8633 19.6629 29.5373C19.9813 28.8225 20.549 28.1815 20.9708 27.7598C21.9948 26.7363 20.9338 24.6358 21.8685 25.1706C22.8048 25.7048 22.4921 27.6652 23.1608 27.8873C23.8283 28.11 23.605 26.5067 24.0954 26.1502C24.5863 25.7942 25.8331 25.9725 25.8331 26.5517C25.8331 26.8437 26.1498 29.5154 27.3613 29.3867C28.0254 29.3169 25.9669 26.8188 27.3481 27.3531C28.7269 27.8873 28.3456 26.6677 28.079 26.3123C27.8125 25.9558 28.4604 25.5271 28.9063 25.3488C29.3512 25.17 29.4412 23.9233 29.174 23.6117C28.9063 23.3002 29.886 23.2552 30.1537 22.9875C30.2125 22.9292 30.2858 22.8473 30.3625 22.7573C30.5535 22.8865 30.7375 23.025 30.9146 23.1721C30.7438 23.5471 30.434 23.7773 30.0192 23.9683C29.3679 24.2694 30.8523 24.6687 31.1967 24.3917C31.401 24.2262 31.4731 23.9758 31.484 23.7063C32.6817 24.9519 33.4231 26.6394 33.4231 28.5C33.4231 28.89 33.3827 29.2696 33.3204 29.6429Z" fill="#DC8B00"/>
</g>
<defs>
<clipPath id="clip0_860_80">
<rect width="15" height="15" fill="white" transform="translate(19 21)"/>
</clipPath>
</defs>
</svg>
