<svg width="53" height="50" viewBox="0 0 53 50" fill="none" xmlns="http://www.w3.org/2000/svg">
<path d="M43.7527 36.5034C43.7527 38.4414 42.0874 40.0125 40.0331 40.0125H12.9672C10.9129 40.0125 9.24757 38.4414 9.24757 36.5034C9.24757 35.7232 9.91804 35.0906 10.7451 35.0906H42.2553C43.0823 35.0907 43.7527 35.7233 43.7527 36.5034Z" fill="url(#paint0_linear_860_6)"/>
<path opacity="0.2" d="M43.7527 36.5034C43.7527 36.7151 43.732 36.9201 43.694 37.1219H12.491C12.077 37.1219 11.7043 37.2814 11.4317 37.5353C11.1592 37.7892 10.9936 38.144 10.9936 38.5346C10.9936 38.8959 11.0523 39.2442 11.1626 39.573C10.0205 38.974 9.24757 37.8217 9.24757 36.5033C9.24757 36.1127 9.41319 35.7579 9.68575 35.504C9.9583 35.2501 10.331 35.0906 10.745 35.0906H42.2552C43.0833 35.0907 43.7527 35.7222 43.7527 36.5034Z" fill="#DC8B00"/>
<path d="M42.0067 16.2257V35.0929H10.9935V16.2257C10.9935 15.3045 11.725 14.5395 12.6704 14.4256C12.7498 14.4158 12.836 14.4093 12.9189 14.4093H40.0814C40.1642 14.4093 40.2504 14.4158 40.3298 14.4256C41.2753 14.5395 42.0067 15.3045 42.0067 16.2257Z" fill="#FFF1C8"/>
<path opacity="0.2" d="M42.0067 16.2235V16.3798H15.3825C14.3197 16.3798 13.4571 17.1935 13.4571 18.1962V35.0907H10.9935V16.2235C10.9935 15.2209 11.8561 14.4071 12.9189 14.4071H40.0814C41.1441 14.4071 42.0067 15.2209 42.0067 16.2235Z" fill="#F4F2FF"/>
<path d="M13.7539 17.0114H39.2463V32.4866H13.7539V17.0114Z" fill="#F4F2FF"/>
<path d="M31.4541 35.0907L29.9584 37.2785C29.7753 37.5462 29.4608 37.7079 29.1231 37.7079H23.8771C23.5395 37.7079 23.2249 37.5462 23.0419 37.2785L21.5462 35.0907H31.4541Z" fill="#F4F2FF"/>
<path opacity="0.1" d="M10.9935 34.1141H42.0067V35.0907H10.9935V34.1141Z" fill="#DC8B00"/>
<path opacity="0.1" d="M40.3298 14.4256L36.6032 15.8872L34.4881 16.7173V20.7309C34.4881 21.7107 33.8704 22.593 32.9112 22.9836C30.7857 23.8332 28.6326 24.2629 26.5002 24.2629C24.3678 24.2629 22.2112 23.8332 20.0926 22.9836C19.1299 22.593 18.5088 21.7108 18.5088 20.7309V16.7141L12.6705 14.4257C12.7499 14.4159 12.8361 14.4094 12.919 14.4094H40.0815C40.1642 14.4093 40.2505 14.4158 40.3298 14.4256Z" fill="#DC8B00"/>
<path d="M33.4544 13.9811V20.7321C33.4544 21.3221 33.0756 21.8528 32.5018 22.0855C28.502 23.6879 24.4965 23.6879 20.4967 22.0855C19.9228 21.8527 19.5441 21.3221 19.5441 20.7321V13.9811H33.4544Z" fill="url(#paint1_linear_860_6)"/>
<path opacity="0.2" d="M27.6641 23.2386C25.2711 23.4281 22.8839 23.0437 20.4966 22.0855C19.9227 21.8527 19.544 21.3221 19.544 20.7321V13.9811H21.8681V20.7321C21.8681 21.3221 22.2469 21.8528 22.8207 22.0855C24.4391 22.7297 26.0516 23.1196 27.6641 23.2386Z" fill="#F4F2FF"/>
<path opacity="0.1" d="M33.4544 13.9811V17.8248L26.4992 20.548L19.5441 17.8248V13.9811H33.4544Z" fill="#DC8B00"/>
<path d="M37.7348 14.3875L36.2066 14.9856L34.3787 15.7029L33.4549 16.0651H33.4524L26.5001 18.7895L21.8686 16.974L19.5454 16.0651L19.5429 16.0628L18.6215 15.7029L15.2655 14.3875L24.6203 10.7237L26.5001 9.98767L32.7168 12.4224H32.7193L37.7348 14.3875Z" fill="#DC8B00"/>
<path opacity="0.2" d="M37.7348 14.3875L36.2066 14.9856L34.3787 15.7029L33.4549 15.3408H33.4524L29.9825 13.9809L26.5001 12.6163L23.0154 13.9809L21.8686 14.4295L19.5454 15.3408H19.5429L18.6215 15.7029L15.2655 14.3875L24.6203 10.7214L26.5001 9.98535L32.7168 12.4225H32.7193L37.7348 14.3875Z" fill="#030e62"/>
<path d="M42.3519 34.7745V16.2236C42.3519 15.0427 41.3333 14.0816 40.0814 14.0816H37.8542C20.7617 7.3876 28.9363 10.5891 26.6324 9.68682C26.5475 9.65371 26.4525 9.65371 26.3675 9.68682L15.1461 14.0816H12.919C11.6671 14.0816 10.6484 15.0426 10.6484 16.2236V34.7745C9.67788 34.823 8.90234 35.5764 8.90234 36.5035C8.90234 38.6178 10.7257 40.3379 12.9672 40.3379H40.0332C42.2743 40.3379 44.0977 38.6178 44.0977 36.5035C44.0977 35.5764 43.3221 34.823 42.3519 34.7745ZM26.5 10.3401C26.9676 10.5232 36.3672 14.2044 36.8347 14.3875C27.9083 17.8843 35.4328 14.9367 26.5 18.4371C25.0179 17.8563 17.6481 14.9686 16.1653 14.3875L26.5 10.3401ZM20.3626 22.3847C24.4345 24.0184 28.5633 24.0189 32.6358 22.3847C33.3418 22.1018 33.798 21.4526 33.798 20.7313V17.3369H35.8626V18.0013C35.8626 18.1812 36.0169 18.3268 36.2076 18.3268C36.3983 18.3268 36.5526 18.1812 36.5526 18.0013V17.3369H38.9013V32.1611H14.0989V17.3369H19.2003V20.7313C19.2003 21.4526 19.6566 22.1018 20.3626 22.3847ZM19.8904 20.7313V16.5526L26.3676 19.0903C26.4516 19.123 26.5465 19.1238 26.6325 19.0903L33.1079 16.5524V20.7312C33.1079 21.1909 32.8164 21.6048 32.3656 21.7857C28.4727 23.3473 24.5251 23.3473 20.6328 21.7857C20.1819 21.6049 19.8904 21.191 19.8904 20.7313ZM33.798 16.6858V16.2831L35.8626 15.4738V16.6857H33.798V16.6858ZM11.3386 16.2236C11.3386 15.4016 12.0476 14.7327 12.919 14.7327H15.2468L19.2004 16.281V16.6858H13.754C13.5633 16.6858 13.409 16.8314 13.409 17.0113V32.4866C13.409 32.6665 13.5633 32.8121 13.754 32.8121H39.2464C39.4371 32.8121 39.5914 32.6665 39.5914 32.4866V17.0114C39.5914 16.8315 39.4371 16.6859 39.2464 16.6859H36.5527V15.2034L37.7534 14.7328H40.0815C40.9529 14.7328 41.6618 15.4017 41.6618 16.2237V34.7654C35.0095 34.7654 17.0037 34.7654 11.3387 34.7654L11.3386 16.2236ZM30.8209 35.4163L29.6682 37.102C29.5482 37.2775 29.3447 37.3824 29.1233 37.3824H23.8771C23.6557 37.3824 23.4519 37.2775 23.3319 37.102L22.1795 35.4163H30.8209ZM40.0332 39.6869H12.9672C11.1065 39.6869 9.59248 38.259 9.59248 36.5035C9.59248 35.904 10.1098 35.4163 10.7452 35.4163H21.3581L22.7519 37.4553C22.9999 37.8174 23.4204 38.0335 23.877 38.0335H29.1232C29.5801 38.0335 30.0007 37.8173 30.2483 37.455L31.6421 35.4163H42.255C42.8905 35.4163 43.4074 35.9039 43.4074 36.5035C43.4075 38.2589 41.8939 39.6869 40.0332 39.6869Z" fill="#DC8B00"/>
<defs>
<linearGradient id="paint0_linear_860_6" x1="26.5002" y1="32.7244" x2="26.5002" y2="40.0125" gradientUnits="userSpaceOnUse">
<stop stop-color="#030e62"/>
<stop offset="1" stop-color="#FFF1C8"/>
</linearGradient>
<linearGradient id="paint1_linear_860_6" x1="26.4992" y1="9.50693" x2="26.4992" y2="23.2873" gradientUnits="userSpaceOnUse">
<stop stop-color="#030e62"/>
<stop offset="1" stop-color="#FFF1C8"/>
</linearGradient>
</defs>
</svg>
