<svg width="53" height="50" viewBox="0 0 53 50" fill="none" xmlns="http://www.w3.org/2000/svg">
<path d="M42.6138 30.6872L34.4249 34.6622C33.654 35.0354 32.8025 35.2295 31.9347 35.2295H22.1395L21.7399 35.4503L20.3718 36.2118L13.6964 30.2303L15.1655 29.1794L17.6556 27.4014C18.4427 26.8379 19.4072 26.5333 20.392 26.5333H22.7651C23.7054 26.5333 24.6216 26.8074 25.3884 27.3177H31.6561C32.4431 27.3177 33.1615 27.6185 33.6781 28.1059C34.1947 28.597 34.5136 29.2671 34.5136 30.0134C34.5136 30.2799 34.4005 30.5237 34.2149 30.6988L40.6038 27.215C40.9307 27.036 41.2939 26.9485 41.6572 26.9485C42.1254 26.9485 42.5935 27.097 42.9769 27.3902C44.1514 28.2923 43.9618 30.0323 42.6138 30.6872Z" fill="#FFFAEB"/>
<path opacity="0.1" d="M21.74 35.4503L20.3719 36.2117L13.6965 30.2303L15.1656 29.1794L21.74 35.4503Z" fill="#DC8B00"/>
<path d="M13.7516 29.453L21.3181 36.6731C21.666 37.0051 21.6628 37.5403 21.3109 37.8685L18.3399 40.6395C17.9879 40.9677 17.4206 40.9647 17.0727 40.6326L9.50626 33.4125C9.15834 33.0805 9.16155 32.5453 9.5135 32.2171L12.4845 29.4461C12.8364 29.1179 13.4037 29.121 13.7516 29.453Z" fill="#DC8B00"/>
<path opacity="0.2" d="M18.7212 40.2858L18.3418 40.6399C17.9867 40.9673 17.4217 40.9635 17.0746 40.6322L9.50729 33.4133C9.16021 33.082 9.16021 32.5452 9.51537 32.2178L12.4857 29.446C12.8369 29.1186 13.4019 29.1224 13.753 29.4536L14.1162 29.8001L11.5251 32.2179C11.17 32.5453 11.17 33.0821 11.517 33.4134L18.7212 40.2858Z" fill="#DC8B00"/>
<path d="M43.1933 27.1377C42.4126 26.54 41.3026 26.4575 40.4326 26.9318L34.8579 29.97C34.8323 28.3248 33.4055 26.9938 31.6557 26.9938H25.4947C24.6861 26.4786 23.7455 26.2068 22.7669 26.2068H20.3938C19.3366 26.2068 18.2903 26.5386 17.4478 27.1411L14.2274 29.4443L13.9969 29.2243C13.5157 28.765 12.7282 28.761 12.2418 29.215L9.27076 31.9859C8.78341 32.4403 8.77844 33.1815 9.26103 33.6416L16.8272 40.8617C17.3081 41.3205 18.0953 41.3254 18.5824 40.8713L21.5534 38.1002C22.04 37.6464 22.0445 36.9036 21.5633 36.4444L21.2213 36.1181L22.2322 35.555H31.9352C32.8514 35.555 33.7663 35.346 34.5814 34.9505L42.7713 30.9759C44.3396 30.2151 44.5611 28.1849 43.1933 27.1377ZM21.0682 37.6371L18.0973 40.408C17.8812 40.6096 17.5317 40.6075 17.318 40.4037L9.75159 33.1836C9.53773 32.9796 9.53938 32.6505 9.75594 32.4485L12.7269 29.6776C12.9428 29.4762 13.2924 29.4778 13.506 29.6818H13.5062L21.0726 36.902C21.2862 37.1058 21.2844 37.4356 21.0682 37.6371ZM42.456 30.3969L34.2661 34.3715C33.548 34.7197 32.742 34.9038 31.9353 34.9038H22.1379C22.0762 34.9038 22.0155 34.9193 21.9625 34.9491L20.7211 35.6406L14.7167 29.9111L17.8645 27.6599C18.588 27.1427 19.4862 26.8578 20.3938 26.8578H22.7669C23.6389 26.8578 24.476 27.1093 25.1875 27.5849C25.2458 27.6238 25.3156 27.6448 25.387 27.6448H31.6557C33.0409 27.6448 34.1681 28.7082 34.1681 30.0151C34.1681 30.3673 33.8645 30.6537 33.4911 30.6537H24.9605C24.7699 30.6537 24.6155 30.7995 24.6155 30.9792C24.6155 31.1589 24.7701 31.3047 24.9605 31.3047H33.4911C33.8493 31.3047 34.1759 31.174 34.4198 30.9606L40.7776 27.4954C41.4026 27.1546 42.1982 27.2144 42.7586 27.6433C43.7406 28.3955 43.5794 29.8515 42.456 30.3969Z" fill="#DC8B00"/>
<path d="M39.9805 16.2392V22.7973C39.9805 23.3705 39.6126 23.886 39.0552 24.112C35.1697 25.6687 31.2786 25.6687 27.3931 24.112C26.8356 23.8859 26.4677 23.3705 26.4677 22.7973V16.2392H39.9805Z" fill="url(#paint0_linear_860_104)"/>
<path opacity="0.2" d="M34.3558 25.2323C32.0312 25.4163 29.7121 25.0429 27.3931 24.112C26.8356 23.8859 26.4677 23.3705 26.4677 22.7973V16.2392H28.7254V22.7973C28.7254 23.3705 29.0934 23.886 29.6508 24.112C31.2228 24.7379 32.7893 25.1165 34.3558 25.2323Z" fill="#030e62"/>
<path opacity="0.1" d="M39.9805 16.2392V19.9732L33.2241 22.6184L26.4677 19.9732V16.2392H39.9805Z" fill="#DC8B00"/>
<path d="M44.1386 16.634L42.6541 17.2151L40.8785 17.912L39.981 18.2637H39.9786L33.225 20.9104L28.7258 19.1467L26.469 18.2637L26.4666 18.2615L25.5715 17.912L22.3114 16.634L31.3989 13.075L33.225 12.36L39.2641 14.7252H39.2665L44.1386 16.634Z" fill="#DC8B00"/>
<path opacity="0.2" d="M44.1386 16.634L42.6541 17.2151L40.8785 17.9119L39.981 17.5601H39.9786L36.6078 16.2391L33.225 14.9135L29.8397 16.2391L28.7258 16.6748L26.469 17.5601H26.4666L25.5715 17.9119L22.3114 16.634L31.3989 13.0727L33.225 12.3577L39.2641 14.7252H39.2665L44.1386 16.634Z" fill="url(#paint1_linear_860_104)"/>
<path d="M33.0787 12.0274L22.165 16.3016C22.0225 16.3573 21.9296 16.4884 21.9296 16.634C21.9296 16.7794 22.0225 16.9107 22.1648 16.9665L26.0874 18.5028V22.7967C26.0874 23.5148 26.5417 24.1611 27.2445 24.4433C31.181 26.0223 35.2037 26.0476 39.2033 24.4433C39.9064 24.1612 40.3607 23.5148 40.3607 22.7967V18.5048L42.2734 17.755V20.1447C42.2734 20.3436 42.4442 20.5047 42.6549 20.5047C42.8657 20.5047 43.0365 20.3436 43.0365 20.1447V17.4558L44.2846 16.9666C44.4269 16.9106 44.52 16.7795 44.52 16.634C44.52 16.4887 44.4272 16.3573 44.2849 16.3016C44.0152 16.196 35.1355 12.7186 33.3711 12.0276C33.2778 11.9907 33.1723 11.9909 33.0787 12.0274ZM39.5975 22.7966C39.5975 23.2253 39.3255 23.6117 38.9045 23.7805C35.1353 25.293 31.3127 25.293 27.5434 23.7805C27.1224 23.6117 26.8507 23.2256 26.8507 22.7966V18.8031L33.0785 21.2428C33.1722 21.2796 33.2777 21.2796 33.3715 21.2428L39.5975 18.8028V22.7966ZM43.1431 16.6338C42.1961 17.0049 34.1718 20.1495 33.2251 20.5205L26.6414 17.9415C26.6321 17.937 26.6224 17.9328 26.6125 17.9289L23.3062 16.6343L33.2251 12.7498C34.2598 13.155 29.5192 11.2985 43.1431 16.6338Z" fill="#DC8B00"/>
<defs>
<linearGradient id="paint0_linear_860_104" x1="33.2241" y1="11.8928" x2="33.2241" y2="25.2795" gradientUnits="userSpaceOnUse">
<stop stop-color="#946E00"/>
<stop offset="1" stop-color="#FFF1C8"/>
</linearGradient>
<linearGradient id="paint1_linear_860_104" x1="33.225" y1="9.68739" x2="33.225" y2="17.9119" gradientUnits="userSpaceOnUse">
<stop stop-color="#946E00"/>
<stop offset="1" stop-color="#FFF1C8"/>
</linearGradient>
</defs>
</svg>
