<svg width="53" height="50" viewBox="0 0 53 50" fill="none" xmlns="http://www.w3.org/2000/svg">
<path d="M38.2527 22.0284V32.6643C38.2527 33.3301 37.6805 33.8698 36.9748 33.8698H17.051C16.3452 33.8698 15.7731 33.3301 15.7731 32.6643V22.0284C15.7731 21.3626 16.3452 20.8228 17.051 20.8228H36.9748C37.6805 20.8228 38.2527 21.3626 38.2527 22.0284Z" fill="#FFF1C8"/>
<path d="M38.2522 22.0281V32.6629C38.2522 33.2618 37.7898 33.7599 37.1826 33.8543C37.224 33.7371 37.2447 33.6134 37.2447 33.4832V22.8484C37.2447 22.1844 36.672 21.644 35.9645 21.644H16.0412C15.9722 21.644 15.9032 21.6506 15.8342 21.6604C15.9998 21.1753 16.4828 20.8237 17.0522 20.8237H36.9756C37.6795 20.8236 38.2522 21.3641 38.2522 22.0281Z" fill="#FFF1C8"/>
<path d="M17.7279 29.7206V24.9719C19.0773 24.9719 20.1714 23.9399 20.1714 22.6669H33.8546C33.8546 23.9399 34.9485 24.9719 36.2981 24.9719V29.7206C34.9486 29.7206 33.8546 30.7526 33.8546 32.0257H20.1713C20.1713 30.7527 19.0773 29.7206 17.7279 29.7206Z" fill="#E0DDD8"/>
<path d="M17.7285 24.9708C18.1012 24.9708 18.4565 24.8927 18.7706 24.7494C18.5325 25.1498 18.1668 25.4786 17.7285 25.6837V24.9708Z" fill="#FFF1C8"/>
<path d="M36.2992 24.9708V29.7201C35.9093 29.7201 35.5401 29.8048 35.2123 29.961V27.0773C35.2123 26.4973 34.8448 25.9718 34.2767 25.7497C33.3905 25.4034 32.7659 24.5802 32.7659 23.6199H19.9507C20.0922 23.3302 20.1715 23.0047 20.1715 22.6661H33.8528C33.8528 23.9389 34.9501 24.9708 36.2992 24.9708Z" fill="#FFF1C8"/>
<path d="M28.1745 29.9571C29.7057 29.3584 30.4325 27.702 29.7978 26.2575C29.1631 24.8129 27.4073 24.1273 25.8761 24.7261C24.3449 25.3248 23.6182 26.9812 24.2529 28.4257C24.8875 29.8703 26.6433 30.5559 28.1745 29.9571Z" fill="#FFF1C8"/>
<path d="M30.0124 27.347C30.0124 28.9095 28.6701 30.1759 27.0139 30.1759H27.0001C28.294 29.8601 29.2498 28.7533 29.2498 27.4349C29.2498 25.8724 27.9144 24.6094 26.2616 24.6029C26.5031 24.5443 26.7551 24.515 27.0139 24.515C28.6701 24.515 30.0124 25.7813 30.0124 27.347Z" fill="#FFF1C8"/>
<path d="M43.7523 30.3347V36.9901C43.7523 37.3652 43.43 37.6693 43.0324 37.6693H31.055C30.6574 37.6693 30.3351 37.3652 30.3351 36.9901V30.3347C30.3351 29.9596 30.6574 29.6555 31.055 29.6555H43.0325C43.43 29.6555 43.7523 29.9596 43.7523 30.3347Z" fill="#E0DDD8"/>
<path d="M43.7523 30.3353V36.989C43.7523 37.3666 43.4314 37.6693 43.0311 37.6693H43.007V31.11C43.007 30.7357 42.6827 30.433 42.2858 30.433H30.3367V30.3353C30.3367 29.961 30.6576 29.655 31.0544 29.655H43.0311C43.4314 29.6551 43.7523 29.961 43.7523 30.3353Z" fill="#FFF1C8"/>
<path d="M30.3351 31.3944H43.7523V33.0173H30.3351V31.3944Z" fill="url(#paint0_linear_860_45)"/>
<path d="M43.007 31.3933H43.7523V33.0177H43.007V31.3933Z" fill="#DC8B00"/>
<path d="M19.0846 23.6199H19.9507C19.7126 24.1147 19.2951 24.5183 18.7706 24.7495C18.9707 24.4141 19.0846 24.0301 19.0846 23.6199Z" fill="#FFF1C8"/>
<path d="M28.8136 12.9267L34.5172 22.1011C34.8742 22.6754 34.6702 23.414 34.0614 23.7509L16.8754 33.2599C16.2667 33.5968 15.4837 33.4043 15.1266 32.83L9.42303 23.6556C9.066 23.0813 9.27003 22.3427 9.87881 22.0058L27.0648 12.4968C27.6736 12.1598 28.4564 12.3524 28.8136 12.9267Z" fill="#FFF1C8"/>
<path d="M34.2496 23.6199C34.222 23.5255 34.1805 23.4344 34.1254 23.3432L28.4217 14.1668C28.0628 13.5939 27.2796 13.4018 26.6723 13.7371L9.48524 23.2455C9.4162 23.2845 9.35409 23.3268 9.2955 23.3757C9.14022 22.8613 9.36454 22.2917 9.8786 22.0052L27.0656 12.4968C27.6729 12.1582 28.4561 12.3535 28.815 12.9264L34.5187 22.0997C34.8328 22.6107 34.7085 23.2488 34.2496 23.6199Z" fill="#FFF1C8"/>
<path d="M15.2341 29.3579L12.6876 25.2618C13.8516 24.6177 14.2418 23.2053 13.5591 22.1072L25.3621 15.5765C26.0447 16.6747 27.5419 17.0427 28.7059 16.3987L31.2524 20.4948C30.0884 21.1388 29.6982 22.5512 30.3809 23.6494L18.5779 30.1801C17.8953 29.0819 16.3981 28.7137 15.2341 29.3579Z" fill="#E0DDD8"/>
<path d="M31.2512 20.4948C30.9683 20.6543 30.7267 20.8562 30.5403 21.0905L28.8795 18.4205C28.6354 18.0281 28.1542 17.806 27.6832 17.9039C26.9357 18.0594 26.1487 17.8722 25.5681 17.4021C25.1895 17.0957 24.6531 17.0365 24.2229 17.2746L13.8777 23.0014C13.8397 22.6954 13.7362 22.3927 13.5602 22.1062L25.361 15.5762C26.0442 16.6731 27.5418 17.0442 28.7046 16.3997L31.2512 20.4948Z" fill="#FFF1C8"/>
<path d="M24.7057 24.0092C25.3735 22.5787 24.6857 20.9084 23.1694 20.2784C21.6532 19.6483 19.8826 20.2972 19.2148 21.7277C18.5469 23.1581 19.2347 24.8285 20.751 25.4585C22.2673 26.0885 24.0379 25.4396 24.7057 24.0092Z" fill="#FFF1C8"/>
<path d="M23.4875 25.319C23.3599 25.3906 23.2253 25.4525 23.0907 25.5013C24.226 24.6387 24.5469 23.1022 23.7877 21.8751C23.0251 20.6478 21.4345 20.1629 20.0784 20.6837C20.1957 20.5926 20.3199 20.5111 20.4511 20.4363C21.883 19.6453 23.7187 20.0977 24.5572 21.4454C25.3956 22.7963 24.9194 24.5281 23.4875 25.319Z" fill="#FFF1C8"/>
<path d="M20.4827 33.8573C21.1513 31.1888 19.4003 28.5142 16.5717 27.8834C13.7431 27.2526 10.908 28.9045 10.2394 31.573C9.57075 34.2415 11.3218 36.9161 14.1504 37.5469C16.979 38.1777 19.814 36.5258 20.4827 33.8573Z" fill="#E0DDD8"/>
<path d="M20.6304 32.7018C20.6304 35.28 18.5497 37.3991 15.8824 37.6432C18.0596 37.0378 19.647 35.1367 19.647 32.8841C19.647 30.1431 17.2902 27.9199 14.3814 27.9199C14.2089 27.9199 14.0364 27.9264 13.8673 27.9427C14.34 27.8092 14.8437 27.7376 15.3648 27.7376C18.2737 27.7377 20.6304 29.961 20.6304 32.7018Z" fill="#FFF1C8"/>
<path d="M18.9131 33.5073C19.3769 31.6565 18.1625 29.8016 16.2007 29.3641C14.2389 28.9266 12.2726 30.0723 11.8089 31.923C11.3452 33.7738 12.5596 35.6287 14.5214 36.0662C16.4832 36.5037 18.4494 35.358 18.9131 33.5073Z" fill="#FFF1C8"/>
<path d="M19.0155 32.7019C19.0155 34.4987 17.5629 35.9733 15.703 36.1361C17.0867 35.6446 18.0701 34.3849 18.0701 32.9069C18.0701 31.0059 16.4346 29.4629 14.4194 29.4629C14.3055 29.4629 14.1917 29.4694 14.0812 29.4759C14.4815 29.3359 14.9128 29.2578 15.3648 29.2578C17.3835 29.2579 19.0155 30.8009 19.0155 32.7019Z" fill="#FFF1C8"/>
<path d="M12.0158 28.4697C10.6478 29.4355 9.75697 30.9713 9.75697 32.7035C9.75697 35.6211 12.2731 37.9948 15.3658 37.9948C17.9091 37.9948 20.0592 36.3883 20.7439 34.1954H29.99V36.9901C29.99 37.544 30.4679 37.9948 31.055 37.9948H43.0324C43.6195 37.9948 44.0974 37.544 44.0974 36.9901C44.0974 34.5245 44.0974 32.5787 44.0974 30.3346C44.0974 29.7807 43.6195 29.3299 43.0324 29.3299H38.5978V22.0284C38.5978 21.1841 37.8697 20.4973 36.9748 20.4973H33.9201L29.1112 12.762C28.6566 12.0311 27.6626 11.7885 26.89 12.2159L9.70428 21.725C8.93226 22.152 8.67264 23.0921 9.12522 23.8202L12.0158 28.4697ZM15.3658 37.3438C12.6535 37.3438 10.4471 35.2623 10.4471 32.7036C10.4471 30.1449 12.6535 28.0634 15.3658 28.0634C18.078 28.0634 20.2846 30.1449 20.2846 32.7036C20.2846 35.2623 18.078 37.3438 15.3658 37.3438ZM14.013 22.2335L25.2574 16.012C26.0311 16.9642 27.4045 17.3016 28.5723 16.8269L30.7908 20.3959C29.7804 21.1244 29.4204 22.4196 29.9269 23.5231L19.5958 29.2395C18.5667 28.1226 17.054 27.4122 15.3658 27.4122C15.0604 27.4122 14.7628 27.4416 14.4706 27.4861L13.1492 25.3606C14.1586 24.6306 14.5164 23.3352 14.013 22.2335ZM29.99 33.5443H20.8969C20.9988 32.9464 20.9769 32.6513 20.9558 32.3513H29.99C29.99 32.3999 29.99 33.591 29.99 33.5443ZM29.99 30.3347C29.99 30.3885 29.99 31.7338 29.99 31.7003H20.8706C20.8539 31.6189 20.8322 31.5395 20.8117 31.4595L24.5011 29.4181C25.1147 30.0798 26.0103 30.5026 27.013 30.5026C28.8578 30.5026 30.3585 29.0867 30.3585 27.3463C30.3585 26.9741 30.2857 26.6189 30.1585 26.2879L34.0062 24.1589C34.4479 24.7609 35.1465 25.1832 35.9529 25.2775V29.3299H31.055C30.4679 29.3299 29.99 29.7807 29.99 30.3347ZM26.6684 29.0557V29.3463C26.6684 29.5261 26.8229 29.6718 27.0134 29.6718C27.204 29.6718 27.3585 29.526 27.3585 29.3463V29.0525C27.7991 28.9146 28.12 28.5267 28.12 28.0654C28.12 27.861 28.0532 27.6735 27.9441 27.5131L29.5473 26.6261C29.6227 26.8544 29.6683 27.0946 29.6683 27.3463C29.6683 28.7277 28.4772 29.8515 27.0128 29.8515C26.2641 29.8515 25.5896 29.5551 25.1065 29.0831L26.0463 28.5631C26.1799 28.7938 26.4003 28.9721 26.6684 29.0557ZM26.6402 28.2346L27.3519 27.8407C27.4002 27.9044 27.4299 27.9811 27.4299 28.0653C27.4299 28.2823 27.2428 28.4587 27.0129 28.4587C26.8479 28.4588 26.7078 28.366 26.6402 28.2346ZM43.4073 36.9901C43.4073 37.1851 43.2392 37.3437 43.0325 37.3437H31.055C30.8483 37.3437 30.6802 37.1851 30.6802 36.9901V33.3428H43.4073V36.9901ZM43.4073 32.6918H30.6802V31.72H43.4073V32.6918ZM43.0324 29.9809C43.2391 29.9809 43.4072 30.1395 43.4072 30.3346V31.0689H30.6802V30.3346C30.6802 30.1395 30.8483 29.9809 31.055 29.9809H43.0324ZM36.9749 21.1483C37.4892 21.1483 37.9077 21.5431 37.9077 22.0284V29.3299H36.6431V24.9721C36.6431 24.7923 36.4885 24.6466 36.2981 24.6466C35.5791 24.6466 34.9451 24.3026 34.5672 23.7808C35.1101 23.2618 35.1725 22.5119 34.8149 21.9364L34.325 21.1483H36.9749ZM10.0533 22.2865L27.2392 12.7774C27.6838 12.5314 28.255 12.6717 28.5158 13.0914L34.2194 22.2657C34.4801 22.6849 34.3317 23.2238 33.8868 23.47L20.6012 30.821C20.4488 30.4451 20.2572 30.0875 20.0225 29.7582L30.5553 23.9302C30.7198 23.839 30.7749 23.6397 30.6785 23.4847C30.0919 22.5409 30.4262 21.3293 31.4269 20.7758C31.5914 20.6847 31.6465 20.4853 31.5501 20.3303L29.0036 16.2341C28.9573 16.1596 28.8815 16.1055 28.793 16.0837C28.7036 16.0619 28.6102 16.0743 28.5313 16.1179C27.5288 16.6725 26.245 16.3539 25.6597 15.412C25.6133 15.3375 25.5375 15.2834 25.449 15.2616C25.3596 15.2396 25.2662 15.2522 25.1873 15.2958L13.3846 21.8265C13.2201 21.9176 13.165 22.1169 13.2614 22.272C13.8467 23.2134 13.5111 24.4287 12.5132 24.9812C12.3487 25.0722 12.2936 25.2717 12.39 25.4266L13.763 27.6352C13.3506 27.7515 12.9593 27.9126 12.5925 28.1104L9.72053 23.491C9.4603 23.0723 9.60957 22.5319 10.0533 22.2865Z" fill="#DC8B00"/>
<path d="M23.6626 25.6009C25.2538 24.7203 25.7893 22.7828 24.856 21.2815C23.9224 19.7802 21.8683 19.276 20.2775 20.1557C18.6819 21.0388 18.1483 22.9695 19.0841 24.4751C20.0196 25.9795 22.0659 26.4841 23.6626 25.6009ZM20.6266 20.7175C21.8975 20.0141 23.5246 20.427 24.2607 21.6109C25.0015 22.8025 24.5766 24.3405 23.3136 25.0392C22.0478 25.7396 20.4227 25.3416 19.6796 24.1458C18.9367 22.951 19.3598 21.4181 20.6266 20.7175Z" fill="#DC8B00"/>
<path d="M22.1447 23.1592C22.425 23.0037 22.7565 23.2501 22.6768 23.5388C22.626 23.7227 22.4258 23.8295 22.2362 23.7826C22.143 23.7598 22.0649 23.7038 22.016 23.6251C21.9191 23.4701 21.7084 23.4177 21.5438 23.5089C21.3793 23.5998 21.3242 23.7993 21.4206 23.9544C21.5628 24.1831 21.7906 24.3457 22.0622 24.4125C22.2664 24.463 22.3877 24.446 22.5289 24.4196L22.6665 24.6409C22.7638 24.7971 22.9753 24.8473 23.1387 24.7571C23.3032 24.666 23.3583 24.4667 23.2619 24.3116L23.1257 24.0926C23.2269 23.9804 23.304 23.8497 23.3444 23.703C23.4909 23.173 23.1544 22.6314 22.5923 22.4933C22.3217 22.4262 22.038 22.4634 21.7955 22.5976C21.6237 22.6926 21.402 22.6383 21.3016 22.4763C21.2008 22.3143 21.2586 22.1052 21.4302 22.0103C21.602 21.9152 21.8235 21.9697 21.9241 22.1316C22.0207 22.2864 22.2319 22.3381 22.3963 22.2479C22.5608 22.1567 22.6159 21.9573 22.5195 21.8023C22.2877 21.4298 21.8369 21.2565 21.4112 21.3349L21.2747 21.1153C21.1782 20.9602 20.9669 20.9081 20.8025 20.9991C20.6382 21.09 20.5829 21.2896 20.6793 21.4446L20.8157 21.6641C20.5347 21.9765 20.4745 22.4326 20.7061 22.8055C20.9991 23.2774 21.6447 23.4359 22.1447 23.1592Z" fill="#DC8B00"/>
<path d="M39.2225 34.9296H42.4463C42.6368 34.9296 42.7913 34.7838 42.7913 34.6041C42.7913 34.4244 42.6367 34.2786 42.4463 34.2786H39.2225C39.0319 34.2786 38.8775 34.4243 38.8775 34.6041C38.8775 34.7839 39.032 34.9296 39.2225 34.9296Z" fill="#DC8B00"/>
<path d="M42.4463 35.4885H41.136C40.9454 35.4885 40.791 35.6343 40.791 35.814C40.791 35.9936 40.9455 36.1394 41.136 36.1394H42.4463C42.6368 36.1394 42.7913 35.9937 42.7913 35.814C42.7913 35.6342 42.6368 35.4885 42.4463 35.4885Z" fill="#DC8B00"/>
<path d="M15.3658 28.934C13.1625 28.934 11.3701 30.625 11.3701 32.7035C11.3701 34.782 13.1625 36.473 15.3658 36.473C17.5692 36.473 19.3617 34.782 19.3617 32.7035C19.3617 30.625 17.5692 28.934 15.3658 28.934ZM15.3658 35.822C13.5432 35.822 12.0601 34.423 12.0601 32.7035C12.0601 30.984 13.5431 29.5849 15.3658 29.5849C17.1886 29.5849 18.6715 30.984 18.6715 32.7035C18.6715 34.423 17.1886 35.822 15.3658 35.822Z" fill="#DC8B00"/>
<path d="M15.3658 31.5349C15.6121 31.5349 15.8125 31.7241 15.8125 31.9564C15.8125 32.1362 15.9671 32.2819 16.1575 32.2819C16.348 32.2819 16.5026 32.1361 16.5026 31.9564C16.5026 31.4795 16.1686 31.079 15.7114 30.94V30.6255C15.7114 30.4457 15.5568 30.3 15.3664 30.3C15.1759 30.3 15.0214 30.4458 15.0214 30.6255V30.9396C14.5635 31.0782 14.229 31.479 14.229 31.9564C14.229 32.5478 14.739 33.029 15.3657 33.029C15.612 33.029 15.8124 33.218 15.8124 33.4504C15.8124 33.6828 15.6119 33.8719 15.3657 33.8719C15.1194 33.8719 14.919 33.6827 14.919 33.4504C14.919 33.2706 14.7644 33.1249 14.574 33.1249C14.3835 33.1249 14.229 33.2707 14.229 33.4504C14.229 33.9278 14.5635 34.3286 15.0214 34.4672V34.7813C15.0214 34.9611 15.1759 35.1068 15.3664 35.1068C15.5568 35.1068 15.7114 34.961 15.7114 34.7813V34.4668C16.1686 34.3278 16.5026 33.9273 16.5026 33.4504C16.5026 32.8591 15.9925 32.378 15.3657 32.378C15.1193 32.378 14.919 32.1889 14.919 31.9565C14.919 31.7242 15.1194 31.5349 15.3658 31.5349Z" fill="#DC8B00"/>
<defs>
<linearGradient id="paint0_linear_860_45" x1="19.756" y1="32.3931" x2="51.7511" y2="32.3931" gradientUnits="userSpaceOnUse">
<stop stop-color="#D49E00"/>
<stop offset="1" stop-color="#FFF1C8"/>
</linearGradient>
</defs>
</svg>
