<?xml version="1.0" encoding="UTF-8"?>
<svg id="Layer_1" xmlns="http://www.w3.org/2000/svg" xmlns:xlink="http://www.w3.org/1999/xlink" version="1.1" viewBox="0 0 136 39">
  <!-- Generator: Adobe Illustrator 29.6.1, SVG Export Plug-In . SVG Version: 2.1.1 Build 9)  -->
  <defs>
    <style>
      .st0 {
        fill: none;
      }

      .st1 {
        fill: #fbec4f;
      }

      .st2 {
        fill: #45b2ef;
      }

      .st3 {
        clip-path: url(#clippath);
      }
    </style>
    <clipPath id="clippath">
      <rect class="st0" width="136" height="39"/>
    </clipPath>
  </defs>
  <g class="st3">
    <g>
      <path class="st2" d="M2.7,11.96l1.09-5.11h20.2l-1.09,5.11h-6.87l-4.27,20.29h-6.56l4.27-20.29H2.7Z"/>
      <path class="st2" d="M45.47,6.85l-1.09,5.11h-12.81l-.99,4.78h11.87l-1.09,5.01h-11.87l-1.14,5.46h12.86l-1.04,5.04h-19.36l5.36-25.4h19.31Z"/>
      <path class="st2" d="M60.25,6.85c1.42,0,2.66.18,3.7.53,1.04.36,1.88.87,2.52,1.56.64.68,1.06,1.52,1.26,2.5.21.99.18,2.11-.08,3.37-.27,1.24-.72,2.36-1.35,3.35-.63.99-1.4,1.83-2.32,2.52-.92.69-1.98,1.21-3.18,1.58-1.19.36-2.5.54-3.93.52h-6.03l-1.98,9.46h-5.98l5.36-25.4h12.02ZM56.3,17.89c1.43.03,2.53-.2,3.31-.68.77-.48,1.27-1.23,1.48-2.24.21-1.02.03-1.77-.54-2.27-.57-.5-1.57-.74-3-.74h-4.42l-1.24,5.93h4.42Z"/>
      <path class="st1" d="M86.74,15.39c.03-.61-.03-1.16-.2-1.65-.17-.49-.43-.91-.79-1.24-.36-.34-.8-.6-1.34-.78-.54-.18-1.15-.27-1.84-.27-1.19,0-2.25.23-3.18.7-.92.47-1.72,1.08-2.39,1.85-.67.77-1.23,1.64-1.66,2.63-.44.99-.76,2-.98,3.04-.14.66-.22,1.31-.25,1.96-.03.64,0,1.26.09,1.84.09.58.26,1.12.5,1.61.24.5.55.93.95,1.29.4.36.89.65,1.47.85.58.2,1.26.3,2.04.3,1.53,0,2.83-.44,3.89-1.32,1.06-.88,1.88-2.16,2.46-3.82h6.45c-.32,1.06-.75,2.05-1.27,2.97-.53.92-1.13,1.77-1.82,2.54-.69.77-1.44,1.46-2.27,2.06-.83.61-1.71,1.12-2.63,1.54-.92.42-1.89.74-2.89.96-1,.22-2.03.33-3.07.33-2.11,0-3.9-.32-5.39-.95-1.48-.64-2.65-1.53-3.5-2.68-.85-1.15-1.39-2.53-1.61-4.14-.22-1.61-.12-3.39.29-5.34.41-1.96,1.08-3.77,1.99-5.41.91-1.64,2.05-3.06,3.4-4.25,1.35-1.19,2.91-2.12,4.67-2.78,1.76-.66,3.69-.99,5.8-.99.93,0,1.82.09,2.68.27.86.18,1.65.45,2.39.8.74.35,1.41.79,1.99,1.3.59.52,1.08,1.11,1.48,1.79.4.68.68,1.43.86,2.27.17.83.21,1.74.12,2.72h-6.45Z"/>
      <path class="st1" d="M92.72,23.04c.33-1.51.86-2.86,1.59-4.07.73-1.2,1.63-2.22,2.68-3.06s2.25-1.48,3.58-1.93c1.33-.45,2.76-.67,4.28-.67s2.91.22,4.07.67c1.15.45,2.07,1.09,2.76,1.93.69.84,1.14,1.86,1.35,3.06.21,1.2.15,2.56-.18,4.07-.32,1.52-.85,2.89-1.59,4.09-.74,1.2-1.64,2.22-2.7,3.06-1.06.83-2.26,1.47-3.6,1.92-1.33.44-2.76.67-4.29.67s-2.86-.22-4-.66c-1.14-.44-2.06-1.08-2.76-1.91-.7-.83-1.16-1.85-1.37-3.06-.22-1.21-.16-2.58.16-4.11ZM98.87,23.04c-.14.7-.21,1.38-.2,2.05,0,.66.11,1.25.32,1.77.2.52.52.93.95,1.24.43.31.99.46,1.7.46s1.34-.15,1.9-.44c.56-.3,1.06-.7,1.49-1.2.43-.5.79-1.09,1.09-1.76.29-.67.51-1.37.67-2.11.15-.7.24-1.38.25-2.05.01-.66-.08-1.25-.29-1.77-.2-.52-.53-.93-.97-1.24-.44-.31-1.04-.46-1.8-.46-.68,0-1.29.15-1.85.46-.55.31-1.05.72-1.48,1.24-.43.52-.8,1.11-1.09,1.77-.3.66-.52,1.34-.67,2.05Z"/>
      <path class="st1" d="M112.01,11.96l1.09-5.11h20.2l-1.09,5.11h-6.87l-4.27,20.29h-6.56l4.27-20.29h-6.77Z"/>
    </g>
  </g>
</svg>