<svg width="140" height="39" fill="none" xmlns="http://www.w3.org/2000/svg"><g fill="#fff"><path d="M29.514 21.161c0 2.228-.174 4.158-.498 5.738-.311 1.482-.822 2.702-1.531 3.648-.697.909-1.594 1.568-2.726 2.004-1.208.46-2.739.697-4.544.697h-.05c-1.543 0-2.825-.236-3.809-.697a5.856 5.856 0 0 1-2.34-1.905c-.622-.859-1.083-1.929-1.357-3.211-.298-1.357-.448-2.938-.435-4.693V7.717c0-1.381-.075-2.502-.224-3.423-.175-1.058-.523-1.892-1.034-2.564A3.955 3.955 0 0 0 8.752.298C8.016.112 7.157.012 6.11.012H0V3.81h2.415c1.506.025 1.705.448 1.792.647.349.772.536 1.904.536 3.261v13.444c0 2.652.236 5.029.697 7.07.485 2.141 1.32 3.971 2.477 5.428 1.182 1.494 2.776 2.614 4.73 3.36 1.905.722 4.158 1.059 6.921 1.059s5.228-.349 7.157-1.059c1.98-.746 3.573-1.88 4.718-3.373 1.133-1.456 1.917-3.286 2.34-5.452.399-2.054.61-4.419.61-7.046V0H29.54v21.148l-.025.013ZM43.131 1.668c-.747.31-1.356.746-1.817 1.27a4.363 4.363 0 0 0-.946 1.866 7.892 7.892 0 0 0-.212 1.818v5.165h3.71v-1.344c0-1.643.398-2.763 1.182-3.435.847-.722 2.141-1.083 3.847-1.083h3.236v31.58h7.282V5.925h11.465v-4.73H45.844c-1.058 0-1.942.15-2.689.46l-.025.013ZM99.98 27.136c-1.244 2.079-2.663 3.672-4.231 4.755-1.531 1.045-3.324 1.556-5.477 1.568-1.83 0-3.349-.36-4.619-1.108a9.526 9.526 0 0 1-3.161-2.974c-.847-1.258-1.47-2.714-1.855-4.333-.41-1.68-.61-3.41-.61-5.14 0-2.826.286-5.216.859-7.108.548-1.817 1.307-3.311 2.24-4.407.934-1.083 1.967-1.842 3.162-2.315 1.258-.498 2.565-.734 3.984-.734 2.352 0 4.182.635 5.601 1.942 1.432 1.32 2.427 3.472 2.988 6.422l.211 1.07h3.336v-1.318c0-1.494-.05-2.963-.149-4.37-.112-1.63-.573-2.937-1.345-3.92-1.02-1.283-2.564-2.328-4.717-3.2C94.13 1.134 91.64.71 88.827.71c-2.252 0-4.406.51-6.385 1.531-1.954.996-3.697 2.403-5.153 4.145-1.432 1.718-2.59 3.772-3.436 6.088-.834 2.302-1.257 4.804-1.257 7.43 0 2.627.373 4.867 1.108 7.033.746 2.216 1.83 4.17 3.236 5.801a15.333 15.333 0 0 0 5.153 3.934c2.017.959 4.282 1.444 6.735 1.444 1.518 0 2.975-.137 4.331-.424a13.112 13.112 0 0 0 3.934-1.518c1.195-.71 2.328-1.643 3.361-2.776 1.021-1.132 1.954-2.54 2.776-4.195l.498-.983-2.975-2.303-.76 1.258-.012-.038ZM137.05 25.891l-.759 1.258c-1.245 2.078-2.676 3.684-4.232 4.755-1.531 1.045-3.324 1.555-5.477 1.568-1.843 0-3.349-.36-4.618-1.108a9.516 9.516 0 0 1-3.162-2.975c-.847-1.27-1.469-2.726-1.855-4.332-.411-1.68-.61-3.41-.61-5.14 0-2.826.286-5.216.859-7.108.548-1.83 1.307-3.311 2.241-4.407.921-1.083 1.966-1.842 3.161-2.315 1.258-.498 2.565-.735 3.984-.735 2.352 0 4.182.635 5.601 1.942 1.419 1.307 2.427 3.473 2.988 6.423l.199 1.07h3.336v-1.319c0-1.53-.05-3-.15-4.369-.112-1.618-.572-2.938-1.356-3.921-1.021-1.282-2.565-2.328-4.718-3.199-2.066-.834-4.544-1.257-7.369-1.257-2.253 0-4.407.51-6.386 1.531a16.499 16.499 0 0 0-5.153 4.145c-1.432 1.718-2.589 3.772-3.436 6.087-.834 2.303-1.257 4.805-1.257 7.431 0 2.627.373 4.855 1.108 7.033.734 2.204 1.83 4.158 3.236 5.801 1.407 1.656 3.137 2.975 5.154 3.933 2.016.959 4.282 1.444 6.734 1.444 1.518 0 2.975-.136 4.332-.423a13.107 13.107 0 0 0 3.933-1.519c1.195-.709 2.328-1.643 3.361-2.775 1.021-1.133 1.967-2.54 2.788-4.207l.473-.984-2.962-2.303.012-.025Z"/></g></svg>