<svg xmlns="http://www.w3.org/2000/svg" xml:space="preserve" id="Layer_1" x="0" y="0" version="1.1" viewBox="0 0 336 140"><style>.st7{fill:#fff}.st9{fill:#e1e1e1;stroke:#808285;stroke-miterlimit:10}</style><g id="Layer_1-2"><path d="M125.8 120c-4.6 0-8.2-3.7-8.2-8.2V28.2c0-4.6 3.7-8.2 8.2-8.2h35.8V1.2h-49.1c-7.6 0-13.8 6.2-13.8 13.8v110c0 7.6 6.2 13.8 13.8 13.8h49.1V120z" style="fill:#030e62"/><path d="M224.5 28.2v4.3h18.8V15c0-7.6-6.2-13.8-13.8-13.8h-49.1V20h35.8c4.6 0 8.3 3.7 8.3 8.2zM224.5 107.5v4.2c0 4.6-3.7 8.2-8.2 8.2h-35.8v18.8h49.1c7.6 0 13.8-6.2 13.8-13.8v-17.5c-.2.1-18.9.1-18.9.1zM180.4 60.6h44.1v18.8h-44.1z" class="st9"/></g></svg>