<svg id="Layer_1" data-name="Layer 1" xmlns="http://www.w3.org/2000/svg" version="1.1" viewBox="0 0 136 39"><defs><clipPath id="clippath"><path style="stroke-width:0;fill:none" d="M0 0h136v39H0z"/></clipPath><style>.cls-3{stroke-width:0;fill:#fff}</style></defs><g style="clip-path:url(#clippath)"><path class="cls-3" d="M45.36 5.71c-.66.28-1.2.66-1.61 1.13-.41.47-.7 1.04-.84 1.65-.13.51-.19 1.05-.19 1.61v4.56h3.27v-1.19c0-1.45.35-2.44 1.04-3.04.75-.63 1.89-.96 3.4-.96h2.86v27.92h6.43V9.48h10.13V5.3H47.72c-.94 0-1.72.13-2.38.41ZM37.61 1.12v20.73c0 2.49-.19 4.74-.57 6.68-.41 2.05-1.16 3.78-2.23 5.17-1.08 1.42-2.59 2.49-4.47 3.2-1.82.68-4.04 1-6.78 1s-4.76-.33-6.56-1c-1.85-.7-3.36-1.77-4.48-3.19-1.1-1.38-1.9-3.12-2.35-5.15-.44-1.94-.66-4.2-.66-6.71V8.39c0-1.28-.17-2.35-.51-3.09-.09-.19-.28-.59-1.7-.61H5.01v-3.6h5.8c1 0 1.82.09 2.51.27.85.21 1.58.69 2.1 1.36.49.64.82 1.43.98 2.43.15.86.22 1.93.22 3.24v14.96c0 1.67.14 3.17.42 4.45.26 1.21.69 2.23 1.28 3.04.57.79 1.3 1.38 2.21 1.81.94.43 2.15.65 3.61.65h.05c1.72 0 3.17-.22 4.31-.66 1.08-.42 1.92-1.04 2.59-1.9.68-.89 1.16-2.06 1.46-3.45.31-1.5.47-3.33.47-5.44V1.12h4.6ZM95.61 28.23c-1.1 1.84-2.36 3.25-3.75 4.2-1.35.93-2.93 1.38-4.85 1.38-1.62 0-2.96-.32-4.08-.98a8.466 8.466 0 0 1-2.79-2.63c-.75-1.11-1.3-2.4-1.64-3.83-.36-1.48-.54-3.01-.54-4.54 0-2.5.25-4.61.76-6.28.49-1.61 1.16-2.92 1.98-3.9.82-.96 1.74-1.63 2.8-2.04 1.12-.43 2.27-.65 3.52-.65 2.08 0 3.7.57 4.95 1.72 1.26 1.16 2.15 3.07 2.64 5.68l.19.95h2.95v-1.17c0-1.32-.04-2.62-.13-3.86-.1-1.44-.5-2.6-1.19-3.46-.9-1.13-2.26-2.06-4.17-2.83-1.83-.74-4.02-1.12-6.51-1.12-1.99 0-3.89.46-5.64 1.35-1.73.88-3.27 2.12-4.55 3.67-1.27 1.52-2.29 3.33-3.04 5.38-.74 2.04-1.11 4.25-1.11 6.57s.33 4.3.98 6.21c.66 1.96 1.62 3.68 2.86 5.13 1.25 1.46 2.78 2.63 4.55 3.48 1.78.85 3.78 1.27 5.95 1.27 1.34 0 2.63-.13 3.83-.37 1.24-.26 2.41-.71 3.47-1.34 1.05-.62 2.05-1.45 2.97-2.46.91-1 1.73-2.25 2.46-3.71l.43-.87-2.63-2.03-.67 1.11ZM128.38 27.12l-.67 1.11c-1.1 1.84-2.36 3.25-3.75 4.2-1.35.93-2.93 1.38-4.84 1.38-1.62 0-2.96-.32-4.09-.98-1.15-.68-2.07-1.54-2.79-2.63-.75-1.12-1.3-2.41-1.64-3.83-.36-1.48-.54-3.01-.54-4.55 0-2.5.25-4.62.76-6.28.49-1.61 1.15-2.92 1.98-3.9.82-.96 1.73-1.63 2.8-2.04 1.12-.43 2.27-.65 3.52-.65 2.08 0 3.7.57 4.95 1.72 1.26 1.16 2.15 3.07 2.64 5.67l.18.95h2.95v-1.17c0-1.36-.04-2.66-.13-3.86-.1-1.43-.5-2.6-1.19-3.46-.9-1.14-2.27-2.06-4.17-2.83-1.83-.74-4.02-1.12-6.51-1.12-1.99 0-3.89.46-5.64 1.35a14.49 14.49 0 0 0-4.56 3.67c-1.27 1.52-2.29 3.33-3.04 5.38-.74 2.04-1.11 4.25-1.11 6.57s.33 4.29.98 6.21c.65 1.95 1.61 3.67 2.86 5.13 1.25 1.46 2.78 2.63 4.55 3.48 1.78.85 3.78 1.27 5.95 1.27 1.34 0 2.63-.13 3.83-.37 1.25-.26 2.41-.71 3.47-1.34 1.06-.62 2.06-1.45 2.97-2.46.91-1 1.74-2.25 2.46-3.72l.42-.87-2.62-2.03Z"/></g></svg>