<?xml version="1.0" encoding="UTF-8"?>
<svg id="Layer_1" xmlns="http://www.w3.org/2000/svg" version="1.1" viewBox="0 0 30 30">
  <!-- Generator: Adobe Illustrator 29.6.1, SVG Export Plug-In . SVG Version: 2.1.1 Build 9)  -->
  <path d="M21.75,5.77h-1.5v-1.01c0-.17-.14-.3-.3-.3s-.3.14-.3.3v1.01h-5.12v-1.01c0-.17-.14-.3-.3-.3s-.3.14-.3.3v1.01h-5.12v-1.01c0-.17-.14-.3-.3-.3s-.3.14-.3.3v1.01h-1.5c-1.52,0-2.76,1.24-2.76,2.76v15.06c0,1.52,1.24,2.76,2.76,2.76h15.06c1.52,0,2.76-1.24,2.76-2.76v-15.06c0-1.52-1.24-2.76-2.76-2.76ZM23.91,23.6c0,1.19-.97,2.16-2.16,2.16H6.69c-1.19,0-2.16-.97-2.16-2.16v-15.06c0-1.19.97-2.16,2.16-2.16h1.5v1.44c-.52.14-.91.61-.91,1.17,0,.67.54,1.21,1.21,1.21s1.21-.54,1.21-1.21c0-.56-.39-1.04-.91-1.17v-1.44h5.12v1.44c-.52.14-.91.61-.91,1.17,0,.67.54,1.21,1.21,1.21s1.21-.54,1.21-1.21c0-.56-.39-1.04-.91-1.17v-1.44h5.12v1.44c-.52.14-.91.61-.91,1.17,0,.67.54,1.21,1.21,1.21s1.21-.54,1.21-1.21c0-.56-.39-1.04-.91-1.17v-1.44h1.5c1.19,0,2.16.97,2.16,2.16v15.06ZM8.49,9.01c.17,0,.3-.14.3-.3v-.24c.18.1.3.3.3.52,0,.33-.27.6-.6.6s-.6-.27-.6-.6c0-.22.12-.42.3-.52v.24c0,.17.14.3.3.3ZM14.22,9.01c.17,0,.3-.14.3-.3v-.24c.18.1.3.3.3.52,0,.33-.27.6-.6.6s-.6-.27-.6-.6c0-.22.12-.42.3-.52v.24c0,.17.14.3.3.3ZM19.95,9.01c.17,0,.3-.14.3-.3v-.24c.18.1.3.3.3.52,0,.33-.27.6-.6.6s-.6-.27-.6-.6c0-.22.12-.42.3-.52v.24c0,.17.14.3.3.3Z"/>
  <path d="M21.75,12.94H6.69c-.77,0-1.4.63-1.4,1.4v9.26c0,.77.63,1.4,1.4,1.4h15.06c.77,0,1.4-.63,1.4-1.4v-9.26c0-.77-.63-1.4-1.4-1.4ZM22.54,23.6c0,.44-.35.79-.79.79H6.69c-.44,0-.79-.35-.79-.79v-9.26c0-.44.35-.79.79-.79h15.06c.44,0,.79.35.79.79v9.26Z"/>
  <rect x="11.38" y="15.04" width="2.27" height="2.06" rx=".4" ry=".4"/>
  <rect x="14.78" y="15.04" width="2.27" height="2.06" rx=".4" ry=".4"/>
  <rect x="18.18" y="15.04" width="2.27" height="2.06" rx=".4" ry=".4"/>
  <rect x="7.99" y="17.94" width="2.27" height="2.06" rx=".4" ry=".4"/>
  <rect x="11.38" y="17.94" width="2.27" height="2.06" rx=".4" ry=".4"/>
  <rect x="14.78" y="17.94" width="2.27" height="2.06" rx=".4" ry=".4"/>
  <rect x="18.18" y="17.94" width="2.27" height="2.06" rx=".4" ry=".4"/>
  <rect x="7.99" y="20.84" width="2.27" height="2.06" rx=".4" ry=".4"/>
  <rect x="11.38" y="20.84" width="2.27" height="2.06" rx=".4" ry=".4"/>
  <rect x="14.78" y="20.84" width="2.27" height="2.06" rx=".4" ry=".4"/>
</svg>