<svg width="30" height="30" fill="none" xmlns="http://www.w3.org/2000/svg"><path d="M19.688 19.688V22.5m-9.375-8.438h.009v.01h-.01v-.01Zm0 2.813h.009v.01h-.01v-.01Zm0 2.813h.009v.009h-.01v-.01Zm0 2.812h.009v.01h-.01v-.01Zm3.121-8.438h.01v.01h-.01v-.01Zm0 2.813h.01v.01h-.01v-.01Zm0 2.813h.01v.009h-.01v-.01Zm0 2.812h.01v.01h-.01v-.01Zm3.132-8.438h.009v.01h-.01v-.01Zm0 2.813h.009v.01h-.01v-.01Zm0 2.813h.009v.009h-.01v-.01Zm0 2.812h.009v.01h-.01v-.01Zm3.122-8.438h.009v.01h-.01v-.01Zm0 2.813h.009v.01h-.01v-.01ZM10.313 7.5h9.374v2.813h-9.375V7.5ZM15 2.812c-2.365 0-4.698.137-6.992.404-1.375.16-2.383 1.345-2.383 2.73v18.429a2.813 2.813 0 0 0 2.813 2.813h13.124a2.813 2.813 0 0 0 2.813-2.813V5.946c0-1.385-1.008-2.57-2.383-2.73A60.634 60.634 0 0 0 15 2.812Z" stroke="#0B0B0B" stroke-width="1.5" stroke-linecap="round" stroke-linejoin="round"/></svg>