<?xml version="1.0" encoding="UTF-8"?>
<svg id="Layer_1" xmlns="http://www.w3.org/2000/svg" version="1.1" viewBox="0 0 30 30">
  <!-- Generator: Adobe Illustrator 29.6.1, SVG Export Plug-In . SVG Version: 2.1.1 Build 9)  -->
  <path d="M23.64,26.89H6.37c-1.97,0-3.56-1.59-3.57-3.56v-14.42c0-1.97,1.59-3.56,3.56-3.57h17.27c1.97,0,3.56,1.59,3.57,3.56v14.42c0,1.97-1.59,3.56-3.56,3.57ZM6.36,7.52c-.77,0-1.39.63-1.39,1.39v14.42c0,.77.63,1.39,1.4,1.39h17.27c.77,0,1.39-.63,1.39-1.4v-14.42c0-.77-.63-1.39-1.4-1.39H6.36Z"/>
  <rect x="3.29" y="11.19" width="23.42" height="2.17"/>
  <g>
    <rect x="9.31" y="3.11" width="2.17" height="6.4"/>
    <rect x="18.52" y="3.1" width="2.17" height="6.4"/>
  </g>
</svg>