<svg width="30" height="30" fill="none" xmlns="http://www.w3.org/2000/svg"><path d="M14.187 4.795a2.81 2.81 0 0 0-.124.83c0 .518.42.938.937.938h5.625c.518 0 .938-.42.938-.938a2.81 2.81 0 0 0-.125-.83m-7.251 0a2.814 2.814 0 0 1 2.688-1.982h1.875c1.265 0 2.334.834 2.688 1.982m-7.251 0c-.47.028-.938.062-1.404.1-1.414.118-2.47 1.322-2.47 2.74v2.678m11.125-5.518c.47.028.938.062 1.404.1 1.414.118 2.47 1.322 2.47 2.74v12.99a2.813 2.813 0 0 1-2.812 2.813h-2.813m-9.375-13.125H6.095c-.777 0-1.407.63-1.407 1.406V25.78c0 .777.63 1.407 1.407 1.407H18.28c.777 0 1.407-.63 1.407-1.407v-2.343m-9.375-13.125h7.968c.777 0 1.407.63 1.407 1.406v11.719m-10.313-3.75 1.875 1.875L15 16.875" stroke="#FFF" stroke-width="1.5" stroke-linecap="round" stroke-linejoin="round"/></svg>