<svg width="30" height="30" fill="none" xmlns="http://www.w3.org/2000/svg"><path d="M5.324 12.683a75.554 75.554 0 0 0-.613 7.934A60.778 60.778 0 0 1 15 26.13c3.226-2.15 6.668-4 10.289-5.512a75.568 75.568 0 0 0-.614-7.934m-19.352 0a63.256 63.256 0 0 0-3.323-1.016 74.877 74.877 0 0 1 13-7.301 74.877 74.877 0 0 1 12.998 7.301 63.15 63.15 0 0 0-3.323 1.016m-19.352 0A63.382 63.382 0 0 1 15 16.861a63.383 63.383 0 0 1 9.676-4.178M8.438 18.75a.937.937 0 1 0 0-1.875.937.937 0 0 0 0 1.875Zm0 0v-4.594A69.26 69.26 0 0 1 15 10.554M6.24 24.991a7.476 7.476 0 0 0 2.198-5.303v-1.875" stroke="#0B0B0B" stroke-width="1.5" stroke-linecap="round" stroke-linejoin="round"/></svg>