<?xml version="1.0" encoding="UTF-8"?>
<svg id="Layer_1" xmlns="http://www.w3.org/2000/svg" version="1.1" viewBox="0 0 30 30">
  <!-- Generator: Adobe Illustrator 29.6.1, SVG Export Plug-In . SVG Version: 2.1.1 Build 9)  -->
  <defs>
    <style>
      .st0 {
        fill: none;
        stroke: #000;
        stroke-linecap: round;
        stroke-linejoin: round;
        stroke-width: 1.5px;
      }
    </style>
  </defs>
  <path class="st0" d="M14.19,4.8c-.08.27-.12.55-.12.83,0,.52.42.94.94.94h5.62c.52,0,.94-.42.94-.94,0-.28-.04-.56-.12-.83M14.19,4.8c.36-1.18,1.45-1.98,2.69-1.98h1.88c1.26,0,2.33.83,2.69,1.98M14.19,4.8c-.47.03-.94.06-1.4.1-1.41.12-2.47,1.32-2.47,2.74v2.68M21.44,4.79c.47.03.94.06,1.4.1,1.41.12,2.47,1.32,2.47,2.74v12.99c0,1.55-1.26,2.81-2.81,2.81h-2.81M10.31,10.31h-4.22c-.78,0-1.41.63-1.41,1.41v14.06c0,.78.63,1.41,1.41,1.41h12.19c.78,0,1.41-.63,1.41-1.41v-2.34M10.31,10.31h7.97c.78,0,1.41.63,1.41,1.41v11.72M9.37,19.69l1.88,1.88,3.75-4.69"/>
</svg>