<svg width="30" height="30" fill="none" xmlns="http://www.w3.org/2000/svg"><path d="M17.779 13.15a3.334 3.334 0 0 0-4.626-.919A3.334 3.334 0 1 0 18.342 15a3.31 3.31 0 0 0-.563-1.85Zm0 0a3.334 3.334 0 0 0-4.626-.919A3.334 3.334 0 1 0 18.342 15a3.31 3.31 0 0 0-.563-1.85Zm0 0a3.334 3.334 0 0 0-4.626-.919A3.334 3.334 0 1 0 18.342 15a3.31 3.31 0 0 0-.563-1.85Zm0 0a3.334 3.334 0 0 0-4.626-.919A3.334 3.334 0 1 0 18.342 15a3.31 3.31 0 0 0-.563-1.85Zm0 0a3.334 3.334 0 0 0-4.626-.919A3.334 3.334 0 1 0 18.342 15a3.31 3.31 0 0 0-.563-1.85Zm5.42 1.844c0-.207 0-.444.006-.713.019-1.594.044-4.056-.406-5.187a3.163 3.163 0 0 0-.32-.613 3.248 3.248 0 0 0-.43-.537v.012a3.362 3.362 0 0 0-1.35-.819c-1.201-.374-3.49-.356-4.996-.337-.256 0-.494.006-.7.006-.206 0-.45 0-.713-.006-1.506-.019-3.788-.044-4.988.338a3.423 3.423 0 0 0-1.344.819 3.273 3.273 0 0 0-.75 1.15c-.444 1.13-.42 3.606-.407 5.2 0 .255.007.493.007.693 0 .2 0 .438-.007.694-.012 1.594-.037 4.068.407 5.2.168.431.425.819.75 1.15.325.331.719.581 1.15.75.063.025.131.05.206.069 1.207.368 3.489.35 4.989.337.256 0 .494-.006.7-.006.206 0 .45 0 .713.006 1.506.019 3.788.044 4.988-.337a3.424 3.424 0 0 0 1.344-.819c.332-.325.582-.719.75-1.15.45-1.125.426-3.588.407-5.188 0-.262-.006-.506-.006-.712Zm-12.46-2.838a5.133 5.133 0 0 1 7.115-1.418h.006a5.124 5.124 0 0 1 1.413 7.112 5.126 5.126 0 0 1-7.114 1.412 5.114 5.114 0 0 1-1.42-7.106Zm10.71-2.043c-.057.143-.15.274-.257.387a1.182 1.182 0 0 1-.844.356c-.119 0-.238-.018-.35-.05a.962.962 0 0 1-.313-.15h-.006a1.194 1.194 0 0 1-.513-1.231c.044-.237.163-.444.326-.612.162-.17.381-.282.612-.325a1.2 1.2 0 0 1 1.432 1.168c0 .156-.031.313-.088.457ZM18.34 15a3.334 3.334 0 0 0-5.189-2.769A3.334 3.334 0 1 0 18.342 15Zm-.562-1.85a3.334 3.334 0 0 0-4.626-.919A3.334 3.334 0 1 0 18.342 15a3.31 3.31 0 0 0-.563-1.85Zm0 0a3.334 3.334 0 0 0-4.626-.919A3.334 3.334 0 1 0 18.342 15a3.31 3.31 0 0 0-.563-1.85Zm0 0a3.334 3.334 0 0 0-4.626-.919A3.334 3.334 0 1 0 18.342 15a3.31 3.31 0 0 0-.563-1.85Zm0 0a3.334 3.334 0 0 0-4.626-.919A3.334 3.334 0 1 0 18.342 15a3.31 3.31 0 0 0-.563-1.85Zm0 0a3.334 3.334 0 0 0-4.626-.919A3.334 3.334 0 1 0 18.342 15a3.31 3.31 0 0 0-.563-1.85Zm0 0a3.334 3.334 0 0 0-4.626-.919A3.334 3.334 0 1 0 18.342 15a3.31 3.31 0 0 0-.563-1.85Zm0 0a3.334 3.334 0 0 0-4.626-.919A3.334 3.334 0 1 0 18.342 15a3.31 3.31 0 0 0-.563-1.85Zm5.42 1.844c0-.207 0-.444.006-.713.019-1.594.044-4.056-.406-5.187a3.163 3.163 0 0 0-.32-.613 3.248 3.248 0 0 0-.43-.537v.012a3.362 3.362 0 0 0-1.35-.819c-1.201-.374-3.49-.356-4.996-.337-.256 0-.494.006-.7.006-.206 0-.45 0-.713-.006-1.506-.019-3.788-.044-4.988.338a3.423 3.423 0 0 0-1.344.819 3.273 3.273 0 0 0-.75 1.15c-.444 1.13-.42 3.606-.407 5.2 0 .255.007.493.007.693 0 .2 0 .438-.007.694-.012 1.594-.037 4.068.407 5.2.168.431.425.819.75 1.15.325.331.719.581 1.15.75.063.025.131.05.206.069 1.207.368 3.489.35 4.989.337.256 0 .494-.006.7-.006.206 0 .45 0 .713.006 1.506.019 3.788.044 4.988-.337a3.424 3.424 0 0 0 1.344-.819c.332-.325.582-.719.75-1.15.45-1.125.426-3.588.407-5.188 0-.262-.006-.506-.006-.712Zm-12.46-2.838a5.133 5.133 0 0 1 7.115-1.418h.006a5.124 5.124 0 0 1 1.413 7.112 5.126 5.126 0 0 1-7.114 1.412 5.114 5.114 0 0 1-1.42-7.106Zm10.71-2.043c-.057.143-.15.274-.257.387a1.182 1.182 0 0 1-.844.356c-.119 0-.238-.018-.35-.05a.962.962 0 0 1-.313-.15h-.006a1.194 1.194 0 0 1-.513-1.231c.044-.237.163-.444.326-.612.162-.17.381-.282.612-.325a1.2 1.2 0 0 1 1.432 1.168c0 .156-.031.313-.088.457ZM18.34 15a3.334 3.334 0 0 0-5.189-2.769A3.334 3.334 0 1 0 18.342 15Zm-.562-1.85a3.334 3.334 0 0 0-4.626-.919A3.334 3.334 0 1 0 18.342 15a3.31 3.31 0 0 0-.563-1.85Zm0 0a3.334 3.334 0 0 0-4.626-.919A3.334 3.334 0 1 0 18.342 15a3.31 3.31 0 0 0-.563-1.85Zm0 0a3.334 3.334 0 0 0-4.626-.919A3.334 3.334 0 1 0 18.342 15a3.31 3.31 0 0 0-.563-1.85Zm0 0a3.334 3.334 0 0 0-4.626-.919A3.334 3.334 0 1 0 18.342 15a3.31 3.31 0 0 0-.563-1.85Zm5.42 1.844c0-.207 0-.444.006-.713.019-1.594.044-4.056-.406-5.187a3.163 3.163 0 0 0-.32-.613 3.248 3.248 0 0 0-.43-.537v.012a3.362 3.362 0 0 0-1.35-.819c-1.201-.374-3.49-.356-4.996-.337-.256 0-.494.006-.7.006-.206 0-.45 0-.713-.006-1.506-.019-3.788-.044-4.988.338a3.423 3.423 0 0 0-1.344.819 3.273 3.273 0 0 0-.75 1.15c-.444 1.13-.42 3.606-.407 5.2 0 .255.007.493.007.693 0 .2 0 .438-.007.694-.012 1.594-.037 4.068.407 5.2.168.431.425.819.75 1.15.325.331.719.581 1.15.75.063.025.131.05.206.069 1.207.368 3.489.35 4.989.337.256 0 .494-.006.7-.006.206 0 .45 0 .713.006 1.506.019 3.788.044 4.988-.337a3.424 3.424 0 0 0 1.344-.819c.332-.325.582-.719.75-1.15.45-1.125.426-3.588.407-5.188 0-.262-.006-.506-.006-.712Zm-12.46-2.838a5.133 5.133 0 0 1 7.115-1.418h.006a5.124 5.124 0 0 1 1.413 7.112 5.126 5.126 0 0 1-7.114 1.412 5.114 5.114 0 0 1-1.42-7.106Zm10.71-2.043c-.057.143-.15.274-.257.387a1.182 1.182 0 0 1-.844.356c-.119 0-.238-.018-.35-.05a.962.962 0 0 1-.313-.15h-.006a1.194 1.194 0 0 1-.513-1.231c.044-.237.163-.444.326-.612.162-.17.381-.282.612-.325a1.2 1.2 0 0 1 1.432 1.168c0 .156-.031.313-.088.457ZM18.34 15a3.334 3.334 0 0 0-5.189-2.769A3.334 3.334 0 1 0 18.342 15Zm-.562-1.85a3.334 3.334 0 0 0-4.626-.919A3.334 3.334 0 1 0 18.342 15a3.31 3.31 0 0 0-.563-1.85Zm0 0a3.334 3.334 0 0 0-4.626-.919A3.334 3.334 0 1 0 18.342 15a3.31 3.31 0 0 0-.563-1.85Zm0 0a3.334 3.334 0 0 0-4.626-.919A3.334 3.334 0 1 0 18.342 15a3.31 3.31 0 0 0-.563-1.85Zm0 0a3.334 3.334 0 0 0-4.626-.919A3.334 3.334 0 1 0 18.342 15a3.31 3.31 0 0 0-.563-1.85Zm5.42 1.844c0-.207 0-.444.006-.713.019-1.594.044-4.056-.406-5.187a3.163 3.163 0 0 0-.32-.613 3.248 3.248 0 0 0-.43-.537v.012a3.362 3.362 0 0 0-1.35-.819c-1.201-.374-3.49-.356-4.996-.337-.256 0-.494.006-.7.006-.206 0-.45 0-.713-.006-1.506-.019-3.788-.044-4.988.338a3.423 3.423 0 0 0-1.344.819 3.273 3.273 0 0 0-.75 1.15c-.444 1.13-.42 3.606-.407 5.2 0 .255.007.493.007.693 0 .2 0 .438-.007.694-.012 1.594-.037 4.068.407 5.2.168.431.425.819.75 1.15.325.331.719.581 1.15.75.063.025.131.05.206.069 1.207.368 3.489.35 4.989.337.256 0 .494-.006.7-.006.206 0 .45 0 .713.006 1.506.019 3.788.044 4.988-.337a3.424 3.424 0 0 0 1.344-.819c.332-.325.582-.719.75-1.15.45-1.125.426-3.588.407-5.188 0-.262-.006-.506-.006-.712Zm-12.46-2.838a5.133 5.133 0 0 1 7.115-1.418h.006a5.124 5.124 0 0 1 1.413 7.112 5.126 5.126 0 0 1-7.114 1.412 5.114 5.114 0 0 1-1.42-7.106Zm10.71-2.043c-.057.143-.15.274-.257.387a1.182 1.182 0 0 1-.844.356c-.119 0-.238-.018-.35-.05a.962.962 0 0 1-.313-.15h-.006a1.194 1.194 0 0 1-.513-1.231c.044-.237.163-.444.326-.612.162-.17.381-.282.612-.325a1.2 1.2 0 0 1 1.432 1.168c0 .156-.031.313-.088.457ZM18.34 15a3.334 3.334 0 0 0-5.189-2.769A3.334 3.334 0 1 0 18.342 15Zm4.858-.006c0-.207 0-.444.006-.713.019-1.594.044-4.056-.406-5.187a3.163 3.163 0 0 0-.32-.613 3.248 3.248 0 0 0-.43-.537v.012a3.362 3.362 0 0 0-1.35-.819c-1.201-.374-3.49-.356-4.996-.337-.256 0-.494.006-.7.006-.206 0-.45 0-.713-.006-1.506-.019-3.788-.044-4.988.338a3.423 3.423 0 0 0-1.344.819 3.273 3.273 0 0 0-.75 1.15c-.444 1.13-.42 3.606-.407 5.2 0 .255.007.493.007.693 0 .2 0 .438-.007.694-.012 1.594-.037 4.068.407 5.2.168.431.425.819.75 1.15.325.331.719.581 1.15.75.063.025.131.05.206.069 1.207.368 3.489.35 4.989.337.256 0 .494-.006.7-.006.206 0 .45 0 .713.006 1.506.019 3.788.044 4.988-.337a3.424 3.424 0 0 0 1.344-.819c.332-.325.582-.719.75-1.15.45-1.125.426-3.588.407-5.188 0-.262-.006-.506-.006-.712Zm-12.46-2.838a5.133 5.133 0 0 1 7.115-1.418h.006a5.124 5.124 0 0 1 1.413 7.112 5.126 5.126 0 0 1-7.114 1.412 5.114 5.114 0 0 1-1.42-7.106Zm10.71-2.043c-.057.143-.15.274-.257.387a1.182 1.182 0 0 1-.844.356c-.119 0-.238-.018-.35-.05a.962.962 0 0 1-.313-.15h-.006a1.194 1.194 0 0 1-.513-1.231c.044-.237.163-.444.326-.612.162-.17.381-.282.612-.325a1.2 1.2 0 0 1 1.432 1.168c0 .156-.031.313-.088.457ZM18.34 15a3.334 3.334 0 0 0-5.189-2.769A3.334 3.334 0 1 0 18.342 15Zm5.602-14H6.095C3.3 1 1.006 3.269 1 6.063V23.9c0 2.794 2.27 5.094 5.064 5.1h17.841c2.8 0 5.095-2.269 5.095-5.063V6.1c.006-2.8-2.263-5.094-5.057-5.1Zm-.626 22.306c-1.169 1.175-2.588 1.544-4.188 1.625-1.65.094-6.601.094-8.252 0-1.6-.081-3.02-.45-4.188-1.619a4.91 4.91 0 0 1-.663-.812c-.65-.994-.888-2.131-.95-3.375-.094-1.65-.094-6.6 0-8.25.062-1.244.294-2.375.944-3.369.187-.287.406-.562.669-.819C7.858 5.52 9.283 5.15 10.877 5.075c1.65-.094 6.602-.094 8.252 0 1.6.081 3.02.444 4.188 1.612.263.263.482.538.67.82.65.993.887 2.124.943 3.368.094 1.644.094 6.587 0 8.244-.062 1.244-.3 2.381-.95 3.375-.181.281-.4.556-.663.812ZM22.8 9.094a3.163 3.163 0 0 0-.32-.613 3.248 3.248 0 0 0-.43-.537v.012a3.362 3.362 0 0 0-1.35-.819c-1.201-.374-3.49-.356-4.996-.337-.256 0-.494.006-.7.006-.206 0-.45 0-.713-.006-1.506-.019-3.788-.044-4.988.338a3.423 3.423 0 0 0-1.344.819 3.273 3.273 0 0 0-.75 1.15c-.444 1.13-.42 3.606-.407 5.2 0 .255.007.493.007.693 0 .2 0 .438-.007.694-.012 1.594-.037 4.068.407 5.2.168.431.425.819.75 1.15.325.331.719.581 1.15.75.063.025.131.05.206.069 1.207.368 3.489.35 4.989.337.256 0 .494-.006.7-.006.206 0 .45 0 .713.006 1.506.019 3.788.044 4.988-.337a3.424 3.424 0 0 0 1.344-.819c.332-.325.582-.719.75-1.15.45-1.125.426-3.588.407-5.188 0-.262-.006-.506-.006-.712 0-.207 0-.444.006-.713.019-1.594.044-4.056-.406-5.187Zm-12.06 3.062a5.133 5.133 0 0 1 7.115-1.418h.006a5.124 5.124 0 0 1 1.413 7.112 5.126 5.126 0 0 1-7.114 1.412 5.114 5.114 0 0 1-1.42-7.106Zm10.71-2.043c-.057.143-.15.274-.257.387a1.182 1.182 0 0 1-.844.356c-.119 0-.238-.018-.35-.05a.962.962 0 0 1-.313-.15h-.006a1.194 1.194 0 0 1-.513-1.231c.044-.237.163-.444.326-.612.162-.17.381-.282.612-.325a1.2 1.2 0 0 1 1.432 1.168c0 .156-.031.313-.088.457ZM18.34 15a3.334 3.334 0 0 0-5.189-2.769A3.334 3.334 0 1 0 18.342 15Zm-.562-1.85a3.334 3.334 0 0 0-4.626-.919A3.334 3.334 0 1 0 18.342 15a3.31 3.31 0 0 0-.563-1.85Zm0 0a3.334 3.334 0 0 0-4.626-.919A3.334 3.334 0 1 0 18.342 15a3.31 3.31 0 0 0-.563-1.85Zm5.42 1.844c0-.207 0-.444.006-.713.019-1.594.044-4.056-.406-5.187a3.163 3.163 0 0 0-.32-.613 3.248 3.248 0 0 0-.43-.537v.012a3.362 3.362 0 0 0-1.35-.819c-1.201-.374-3.49-.356-4.996-.337-.256 0-.494.006-.7.006-.206 0-.45 0-.713-.006-1.506-.019-3.788-.044-4.988.338a3.423 3.423 0 0 0-1.344.819 3.273 3.273 0 0 0-.75 1.15c-.444 1.13-.42 3.606-.407 5.2 0 .255.007.493.007.693 0 .2 0 .438-.007.694-.012 1.594-.037 4.068.407 5.2.168.431.425.819.75 1.15.325.331.719.581 1.15.75.063.025.131.05.206.069 1.207.368 3.489.35 4.989.337.256 0 .494-.006.7-.006.206 0 .45 0 .713.006 1.506.019 3.788.044 4.988-.337a3.424 3.424 0 0 0 1.344-.819c.332-.325.582-.719.75-1.15.45-1.125.426-3.588.407-5.188 0-.262-.006-.506-.006-.712Zm-12.46-2.838a5.133 5.133 0 0 1 7.115-1.418h.006a5.124 5.124 0 0 1 1.413 7.112 5.126 5.126 0 0 1-7.114 1.412 5.114 5.114 0 0 1-1.42-7.106Zm10.71-2.043c-.057.143-.15.274-.257.387a1.182 1.182 0 0 1-.844.356c-.119 0-.238-.018-.35-.05a.962.962 0 0 1-.313-.15h-.006a1.194 1.194 0 0 1-.513-1.231c.044-.237.163-.444.326-.612.162-.17.381-.282.612-.325a1.2 1.2 0 0 1 1.432 1.168c0 .156-.031.313-.088.457ZM18.34 15a3.334 3.334 0 0 0-5.189-2.769A3.334 3.334 0 1 0 18.342 15Zm-.562-1.85a3.334 3.334 0 0 0-4.626-.919A3.334 3.334 0 1 0 18.342 15a3.31 3.31 0 0 0-.563-1.85Zm0 0a3.334 3.334 0 0 0-4.626-.919A3.334 3.334 0 1 0 18.342 15a3.31 3.31 0 0 0-.563-1.85Zm5.42 1.844c0-.207 0-.444.006-.713.019-1.594.044-4.056-.406-5.187a3.163 3.163 0 0 0-.32-.613 3.248 3.248 0 0 0-.43-.537v.012a3.362 3.362 0 0 0-1.35-.819c-1.201-.374-3.49-.356-4.996-.337-.256 0-.494.006-.7.006-.206 0-.45 0-.713-.006-1.506-.019-3.788-.044-4.988.338a3.423 3.423 0 0 0-1.344.819 3.273 3.273 0 0 0-.75 1.15c-.444 1.13-.42 3.606-.407 5.2 0 .255.007.493.007.693 0 .2 0 .438-.007.694-.012 1.594-.037 4.068.407 5.2.168.431.425.819.75 1.15.325.331.719.581 1.15.75.063.025.131.05.206.069 1.207.368 3.489.35 4.989.337.256 0 .494-.006.7-.006.206 0 .45 0 .713.006 1.506.019 3.788.044 4.988-.337a3.424 3.424 0 0 0 1.344-.819c.332-.325.582-.719.75-1.15.45-1.125.426-3.588.407-5.188 0-.262-.006-.506-.006-.712Zm-12.46-2.838a5.133 5.133 0 0 1 7.115-1.418h.006a5.124 5.124 0 0 1 1.413 7.112 5.126 5.126 0 0 1-7.114 1.412 5.114 5.114 0 0 1-1.42-7.106Zm10.71-2.043c-.057.143-.15.274-.257.387a1.182 1.182 0 0 1-.844.356c-.119 0-.238-.018-.35-.05a.962.962 0 0 1-.313-.15h-.006a1.194 1.194 0 0 1-.513-1.231c.044-.237.163-.444.326-.612.162-.17.381-.282.612-.325a1.2 1.2 0 0 1 1.432 1.168c0 .156-.031.313-.088.457ZM18.34 15a3.334 3.334 0 0 0-5.189-2.769A3.334 3.334 0 1 0 18.342 15Zm-.562-1.85a3.334 3.334 0 0 0-4.626-.919A3.334 3.334 0 1 0 18.342 15a3.31 3.31 0 0 0-.563-1.85Zm0 0a3.334 3.334 0 0 0-4.626-.919A3.334 3.334 0 1 0 18.342 15a3.31 3.31 0 0 0-.563-1.85Zm0 0a3.334 3.334 0 0 0-4.626-.919A3.334 3.334 0 1 0 18.342 15a3.31 3.31 0 0 0-.563-1.85Zm0 0a3.334 3.334 0 0 0-4.626-.919A3.334 3.334 0 1 0 18.342 15a3.31 3.31 0 0 0-.563-1.85Zm0 0a3.334 3.334 0 0 0-4.626-.919A3.334 3.334 0 1 0 18.342 15a3.31 3.31 0 0 0-.563-1.85Zm0 0a3.334 3.334 0 0 0-4.626-.919A3.334 3.334 0 1 0 18.342 15a3.31 3.31 0 0 0-.563-1.85Zm5.42 1.844c0-.207 0-.444.006-.713.019-1.594.044-4.056-.406-5.187a3.163 3.163 0 0 0-.32-.613 3.248 3.248 0 0 0-.43-.537v.012a3.362 3.362 0 0 0-1.35-.819c-1.201-.374-3.49-.356-4.996-.337-.256 0-.494.006-.7.006-.206 0-.45 0-.713-.006-1.506-.019-3.788-.044-4.988.338a3.423 3.423 0 0 0-1.344.819 3.273 3.273 0 0 0-.75 1.15c-.444 1.13-.42 3.606-.407 5.2 0 .255.007.493.007.693 0 .2 0 .438-.007.694-.012 1.594-.037 4.068.407 5.2.168.431.425.819.75 1.15.325.331.719.581 1.15.75.063.025.131.05.206.069 1.207.368 3.489.35 4.989.337.256 0 .494-.006.7-.006.206 0 .45 0 .713.006 1.506.019 3.788.044 4.988-.337a3.424 3.424 0 0 0 1.344-.819c.332-.325.582-.719.75-1.15.45-1.125.426-3.588.407-5.188 0-.262-.006-.506-.006-.712Zm-12.46-2.838a5.133 5.133 0 0 1 7.115-1.418h.006a5.124 5.124 0 0 1 1.413 7.112 5.126 5.126 0 0 1-7.114 1.412 5.114 5.114 0 0 1-1.42-7.106Zm10.71-2.043c-.057.143-.15.274-.257.387a1.182 1.182 0 0 1-.844.356c-.119 0-.238-.018-.35-.05a.962.962 0 0 1-.313-.15h-.006a1.194 1.194 0 0 1-.513-1.231c.044-.237.163-.444.326-.612.162-.17.381-.282.612-.325a1.2 1.2 0 0 1 1.432 1.168c0 .156-.031.313-.088.457ZM18.34 15a3.334 3.334 0 0 0-5.189-2.769A3.334 3.334 0 1 0 18.342 15Zm-.562-1.85a3.334 3.334 0 0 0-4.626-.919A3.334 3.334 0 1 0 18.342 15a3.31 3.31 0 0 0-.563-1.85Zm0 0a3.334 3.334 0 0 0-4.626-.919A3.334 3.334 0 1 0 18.342 15a3.31 3.31 0 0 0-.563-1.85Z" fill="#021430"/></svg>