<svg width="28" height="28" fill="none" xmlns="http://www.w3.org/2000/svg"><path d="M22.943 0H5.095C2.3 0 .006 2.269 0 5.063V22.9c0 2.794 2.27 5.094 5.064 5.1h17.841c2.8 0 5.095-2.269 5.095-5.063V5.1c.006-2.8-2.263-5.094-5.057-5.1ZM6.389 4a2.41 2.41 0 0 1 2.407 2.406 2.404 2.404 0 0 1-2.407 2.407 2.403 2.403 0 0 1-2.326-1.794A2.408 2.408 0 0 1 6.39 4ZM8.47 24H4.313V10.637h4.158V24Zm15.553 0h-4.15v-6.5c0-1.55-.032-3.544-2.158-3.544-2.163 0-2.494 1.688-2.494 3.431V24h-4.15V10.637h3.981v1.825h.057c.556-1.05 1.913-2.156 3.932-2.156 4.2 0 4.982 2.769 4.982 6.369V24Z" fill="currentColor"/></svg>