<svg width="30" height="30" fill="none" xmlns="http://www.w3.org/2000/svg"><path d="M18.008 11.762v4.447a.198.198 0 0 1-.203.202h-.71a.209.209 0 0 1-.165-.082l-2.04-2.75v2.635a.198.198 0 0 1-.202.202h-.71a.199.199 0 0 1-.203-.202v-4.446c0-.115.088-.202.202-.202h.706a.2.2 0 0 1 .164.087l2.04 2.75v-2.635c0-.115.087-.202.202-.202h.711a.198.198 0 0 1 .208.191v.005Zm-5.124-.202h-.711a.199.199 0 0 0-.203.202v4.447c0 .114.088.202.203.202h.71a.198.198 0 0 0 .203-.202v-4.447a.205.205 0 0 0-.202-.202Zm-1.718 3.724H9.22v-3.522a.199.199 0 0 0-.203-.202h-.71a.199.199 0 0 0-.203.202v4.447c0 .054.016.098.055.136a.205.205 0 0 0 .136.055h2.855a.199.199 0 0 0 .202-.202v-.711c0-.104-.087-.203-.191-.203h.005ZM21.76 11.56H18.9a.205.205 0 0 0-.202.202v4.447c0 .104.087.202.202.202h2.855a.199.199 0 0 0 .202-.202v-.717a.199.199 0 0 0-.202-.202h-1.942v-.744h1.942a.199.199 0 0 0 .202-.202v-.717a.199.199 0 0 0-.202-.202h-1.942v-.75h1.942a.199.199 0 0 0 .202-.202v-.71c-.005-.104-.093-.203-.202-.203h.005ZM29 6.108v17.828c-.006 2.8-2.302 5.07-5.108 5.064H6.064c-2.8-.006-5.07-2.308-5.064-5.108V6.064C1.005 3.264 3.308.994 6.108 1h17.828c2.8.005 5.07 2.302 5.064 5.108Zm-3.85 7.662c0-4.561-4.577-8.275-10.194-8.275-5.616 0-10.193 3.714-10.193 8.274 0 4.086 3.625 7.515 8.525 8.165 1.192.257 1.056.695.788 2.303-.044.257-.208 1.006.88.552 1.088-.454 5.868-3.456 8.012-5.917 1.477-1.624 2.182-3.27 2.182-5.091v-.011Z" fill="currentColor"/></svg>