<svg width="30" height="30" fill="none" xmlns="http://www.w3.org/2000/svg"><path fill-rule="evenodd" clip-rule="evenodd" d="M23.942 1H6.094C3.3 1 1.005 3.268.999 6.062v17.837c0 2.794 2.27 5.094 5.064 5.1h17.841c2.8 0 5.095-2.268 5.095-5.062V6.1c.006-2.8-2.263-5.094-5.057-5.1ZM25 10.227v.144l-9.251 5.434c-.46.27-1.039.27-1.498 0L5 10.371v-.144C5 8.721 6.28 7.5 7.857 7.5h14.286C23.72 7.5 25 8.721 25 10.227ZM5 19.773v-7.801l8.503 4.994c.918.54 2.076.54 2.994 0L25 11.972v7.8c0 1.507-1.28 2.728-2.857 2.728H7.857C6.28 22.5 5 21.279 5 19.773Z" fill="#021430"/></svg>