<svg width="30" height="30" fill="none" xmlns="http://www.w3.org/2000/svg"><path fill-rule="evenodd" clip-rule="evenodd" d="M23.942 1H6.094C3.3 1 1.005 3.268.999 6.062v17.837c0 2.794 2.27 5.094 5.064 5.1h17.841c2.8 0 5.095-2.268 5.095-5.062V6.1c.006-2.8-2.263-5.094-5.057-5.1ZM7.857 5A2.857 2.857 0 0 0 5 7.857V10c0 8.284 6.716 15 15 15h2.143A2.857 2.857 0 0 0 25 22.143v-1.306c0-.82-.558-1.534-1.353-1.733l-4.212-1.053a1.786 1.786 0 0 0-1.862.661l-.924 1.232c-.096.128-.236.156-.334.12a10.748 10.748 0 0 1-6.379-6.379c-.036-.098-.008-.238.12-.334l1.232-.924a1.786 1.786 0 0 0 .661-1.862l-1.053-4.212A1.786 1.786 0 0 0 9.163 5H7.857Z" fill="currentColor"/></svg>