<svg width="64" height="64" fill="none" xmlns="http://www.w3.org/2000/svg"><g filter="url(#a)"><circle cx="32.5" cy="29.5" r="18.5" fill="#FFBE00"/><path d="M32 58a28 28 0 1 0 0-56 28 28 0 0 0 0 56Zm13.234-26.36a2.614 2.614 0 0 1 0 3.708c-1.028 1.018-2.69 1.029-3.707 0l-9.516-9.515-9.516 9.515a2.614 2.614 0 0 1-3.707 0c-1.018-1.028-1.029-2.69 0-3.707L30.14 20.266a2.614 2.614 0 0 1 3.707 0L45.234 31.64Z" fill="#fff"/></g><defs><filter id="a" x="0" y="0" width="64" height="64" filterUnits="userSpaceOnUse" color-interpolation-filters="sRGB"><feFlood flood-opacity="0" result="BackgroundImageFix"/><feColorMatrix in="SourceAlpha" values="0 0 0 0 0 0 0 0 0 0 0 0 0 0 0 0 0 0 127 0" result="hardAlpha"/><feOffset dy="2"/><feGaussianBlur stdDeviation="2"/><feComposite in2="hardAlpha" operator="out"/><feColorMatrix values="0 0 0 0 0 0 0 0 0 0 0 0 0 0 0 0 0 0 0.1 0"/><feBlend in2="BackgroundImageFix" result="effect1_dropShadow_2388_10794"/><feBlend in="SourceGraphic" in2="effect1_dropShadow_2388_10794" result="shape"/></filter></defs></svg>