<svg width="24" height="24" fill="none" xmlns="http://www.w3.org/2000/svg"><path d="M16 2H8a4 4 0 0 0-4 4v8a4 4 0 0 0 1.6 3.2l4 3a4 4 0 0 0 4.8 0l4-3A4 4 0 0 0 20 14V6a4 4 0 0 0-4-4Z" fill="#0033A1" stroke="#0033A1" stroke-width="2" stroke-linecap="round"/><path d="M11.088 8.76c-.122.06-.245.11-.37.145-.124.033-.249.06-.373.08-.122.016-.24.027-.353.032a6.423 6.423 0 0 1-.311.009c-.233 0-.404-.056-.515-.166C9.056 8.749 9 8.588 9 8.378a.98.98 0 0 1 .037-.294.43.43 0 0 1 .15-.204.886.886 0 0 1 .294-.137 3.95 3.95 0 0 1 .494-.108 2.155 2.155 0 0 0 .892-.344c.117-.08.22-.169.308-.266.091-.097.177-.2.257-.311.083-.116.16-.219.228-.307.072-.089.143-.164.212-.224A.698.698 0 0 1 12.353 6c.244 0 .432.051.565.154.133.102.2.262.2.481v6.661c0 .172-.026.321-.075.449a.83.83 0 0 1-.532.494 1.293 1.293 0 0 1-.41.062 1.28 1.28 0 0 1-.407-.063.849.849 0 0 1-.324-.182.853.853 0 0 1-.208-.311 1.224 1.224 0 0 1-.074-.449V8.76Z" fill="#FFF"/></svg>