<svg width="24" height="24" fill="none" xmlns="http://www.w3.org/2000/svg"><path d="M16 2H8a4 4 0 0 0-4 4v8a4 4 0 0 0 1.6 3.2l4 3a4 4 0 0 0 4.8 0l4-3A4 4 0 0 0 20 14V6a4 4 0 0 0-4-4Z" fill="#0033A1" stroke="#0033A1" stroke-width="2" stroke-linecap="round"/><path d="M9 12.28a.86.86 0 0 1 .058-.322.738.738 0 0 1 .17-.252.799.799 0 0 1 .57-.227.63.63 0 0 1 .52.215.956.956 0 0 1 .148.219c.041.08.085.162.132.248.047.085.1.169.157.252.06.08.136.152.227.218.09.064.202.115.334.153.135.039.3.058.492.058.209 0 .392-.029.549-.087.157-.058.288-.139.392-.243a.959.959 0 0 0 .231-.376c.053-.146.079-.307.079-.483 0-.135-.015-.26-.045-.376a.756.756 0 0 0-.446-.533 1.6 1.6 0 0 0-.48-.12c-.08-.008-.173-.019-.28-.032a1.26 1.26 0 0 1-.302-.087.695.695 0 0 1-.247-.178.466.466 0 0 1-.1-.313c0-.15.021-.27.063-.364a.508.508 0 0 1 .185-.223.855.855 0 0 1 .306-.12c.121-.024.261-.04.421-.05.28-.016.486-.102.615-.26.132-.156.198-.365.198-.627 0-.17-.028-.316-.086-.438a.776.776 0 0 0-.232-.297.935.935 0 0 0-.346-.173 1.56 1.56 0 0 0-.417-.054c-.22 0-.4.032-.541.095-.14.06-.258.138-.351.231a1.584 1.584 0 0 0-.24.306 3.02 3.02 0 0 1-.202.301 1.02 1.02 0 0 1-.24.236c-.09.06-.21.09-.359.09-.096 0-.191-.013-.285-.04a.751.751 0 0 1-.252-.129.599.599 0 0 1-.173-.215c-.041-.085-.055-.185-.041-.301.022-.22.077-.421.165-.603.09-.184.204-.35.338-.495.138-.149.294-.278.467-.389A3.246 3.246 0 0 1 11.899 6c.487.003.898.067 1.234.194.339.127.614.293.826.5.212.206.365.443.458.71.097.264.145.534.145.81 0 .365-.08.68-.24.94-.16.262-.397.48-.714.653.21.06.39.147.541.26.154.113.28.247.376.4.096.155.168.327.214.517.047.187.07.388.07.603 0 .451-.08.843-.239 1.177-.16.333-.377.61-.652.83a2.82 2.82 0 0 1-.966.495 4.194 4.194 0 0 1-1.177.161c-.353 0-.666-.034-.942-.103a3.052 3.052 0 0 1-.718-.264 2.395 2.395 0 0 1-.52-.38 2.275 2.275 0 0 1-.343-.43 1.866 1.866 0 0 1-.194-.425A1.381 1.381 0 0 1 9 12.28Z" fill="#FFF"/></svg>