<svg width="24" height="24" fill="none" xmlns="http://www.w3.org/2000/svg"><path d="M16 2H8a4 4 0 0 0-4 4v8a4 4 0 0 0 1.6 3.2l4 3a4 4 0 0 0 4.8 0l4-3A4 4 0 0 0 20 14V6a4 4 0 0 0-4-4Z" fill="#0033A1" stroke="#0033A1" stroke-width="2" stroke-linecap="round"/><path d="M14.512 12.533c.287 0 .495.073.622.22.13.146.195.352.195.618s-.065.472-.195.618c-.127.147-.335.22-.622.22H9.818a.86.86 0 0 1-.345-.066.833.833 0 0 1-.257-.187.867.867 0 0 1-.162-.265.91.91 0 0 1-.054-.312c0-.107.011-.213.033-.315.022-.102.062-.208.12-.316.059-.11.14-.226.245-.348.106-.125.24-.262.403-.411.166-.152.367-.32.602-.506s.513-.396.834-.631c.288-.205.536-.388.743-.548.207-.163.383-.31.527-.44.147-.13.264-.246.353-.349a1.62 1.62 0 0 0 .203-.294.978.978 0 0 0 .1-.27c.016-.086.025-.176.025-.27 0-.174-.028-.33-.083-.465a.903.903 0 0 0-.233-.344 1.01 1.01 0 0 0-.37-.22 1.492 1.492 0 0 0-.489-.075.996.996 0 0 0-.423.083.978.978 0 0 0-.303.212 1.32 1.32 0 0 0-.212.303c-.058.113-.11.23-.153.348a2.022 2.022 0 0 1-.117.262.753.753 0 0 1-.398.365.968.968 0 0 1-.345.054c-.18 0-.332-.023-.456-.07a.783.783 0 0 1-.299-.208.86.86 0 0 1-.166-.315 1.528 1.528 0 0 1-.05-.403c0-.177.028-.354.083-.531a1.95 1.95 0 0 1 .258-.515c.113-.166.253-.32.419-.46.169-.142.364-.263.585-.366.221-.105.469-.187.743-.245A4.21 4.21 0 0 1 12.084 6c.39 0 .739.035 1.046.104.31.069.58.164.813.286a2.314 2.314 0 0 1 1 .955c.106.188.182.386.229.593.047.208.07.415.07.623 0 .23-.02.445-.062.647a2.127 2.127 0 0 1-.2.577 2.376 2.376 0 0 1-.364.527c-.153.169-.34.338-.565.507l-2.3 1.714h2.76Z" fill="#FFF"/></svg>