<svg width="24" height="24" viewBox="0 0 24 24" fill="none" xmlns="http://www.w3.org/2000/svg">
<path d="M16 2H8C5.79086 2 4 3.79086 4 6V14C4 15.259 4.59278 16.4446 5.6 17.2L9.6 20.2C11.0222 21.2667 12.9778 21.2667 14.4 20.2L18.4 17.2C19.4072 16.4446 20 15.259 20 14V6C20 3.79086 18.2091 2 16 2Z" fill="#2D1674" stroke="#2D1674" stroke-width="2" stroke-linecap="round"/>
<path d="M13.1025 12.9629C13.1025 12.7643 13.0765 12.5999 13.0244 12.4697C12.9756 12.3395 12.9056 12.2354 12.8145 12.1572C12.7233 12.0758 12.6143 12.0173 12.4873 11.9814C12.3604 11.9424 12.222 11.918 12.0723 11.9082C11.6947 11.8691 11.4212 11.7845 11.252 11.6543C11.0827 11.5241 10.998 11.363 10.998 11.1709C10.998 11.0146 11.0208 10.8844 11.0664 10.7803C11.1152 10.6761 11.182 10.5931 11.2666 10.5312C11.3545 10.4694 11.457 10.4255 11.5742 10.3994C11.6914 10.3734 11.8184 10.3604 11.9551 10.3604C12.0885 10.3604 12.2171 10.3392 12.3408 10.2969C12.4645 10.2546 12.5736 10.1895 12.668 10.1016C12.7624 10.0137 12.8372 9.90137 12.8926 9.76465C12.9512 9.62467 12.9805 9.45866 12.9805 9.2666C12.9805 9.09082 12.9463 8.93783 12.8779 8.80762C12.8128 8.67415 12.7201 8.56348 12.5996 8.47559C12.4792 8.3877 12.3359 8.32259 12.1699 8.28027C12.0072 8.2347 11.8281 8.21191 11.6328 8.21191C11.5156 8.21191 11.4017 8.22331 11.291 8.24609C11.1803 8.26888 11.0697 8.3112 10.959 8.37305C10.8516 8.43164 10.7441 8.51465 10.6367 8.62207C10.5326 8.72624 10.4284 8.86133 10.3242 9.02734C10.2624 9.125 10.2021 9.20638 10.1436 9.27148C10.085 9.33659 10.0231 9.38867 9.95801 9.42773C9.8929 9.4668 9.82292 9.49447 9.74805 9.51074C9.67318 9.52702 9.5918 9.53516 9.50391 9.53516C9.32487 9.53516 9.17025 9.5026 9.04004 9.4375C8.90983 9.3724 8.80078 9.28776 8.71289 9.18359C8.62826 9.07943 8.56478 8.96224 8.52246 8.83203C8.4834 8.70182 8.46387 8.57161 8.46387 8.44141C8.46387 8.16146 8.54036 7.89616 8.69336 7.64551C8.84961 7.3916 9.07585 7.17025 9.37207 6.98145C9.67155 6.79264 10.0378 6.6429 10.4707 6.53223C10.9069 6.42155 11.4066 6.36621 11.9697 6.36621C12.4678 6.36621 12.9235 6.42643 13.3369 6.54688C13.7503 6.66732 14.1068 6.84147 14.4062 7.06934C14.7057 7.29395 14.9385 7.56738 15.1045 7.88965C15.2705 8.21191 15.3535 8.57324 15.3535 8.97363C15.3535 9.19173 15.3275 9.40658 15.2754 9.61816C15.2266 9.8265 15.1533 10.0202 15.0557 10.1992C14.9613 10.375 14.8424 10.5296 14.6992 10.6631C14.556 10.7965 14.3916 10.8975 14.2061 10.9658C14.4339 11.0407 14.6325 11.1449 14.8018 11.2783C14.9743 11.4118 15.1175 11.568 15.2314 11.7471C15.3486 11.9261 15.4365 12.1214 15.4951 12.333C15.5537 12.5446 15.583 12.7643 15.583 12.9922C15.583 13.194 15.5618 13.4137 15.5195 13.6514C15.4805 13.889 15.4072 14.1266 15.2998 14.3643C15.1924 14.6019 15.0459 14.8314 14.8604 15.0527C14.6748 15.2741 14.4355 15.471 14.1426 15.6436C13.8529 15.8128 13.5013 15.9479 13.0879 16.0488C12.6777 16.153 12.196 16.2051 11.6426 16.2051C11.1283 16.2051 10.6628 16.1383 10.2461 16.0049C9.82943 15.8747 9.47461 15.7021 9.18164 15.4873C8.88867 15.2725 8.66243 15.0283 8.50293 14.7549C8.34342 14.4782 8.26367 14.195 8.26367 13.9053C8.26367 13.7295 8.28809 13.5684 8.33691 13.4219C8.38574 13.2754 8.45736 13.1501 8.55176 13.0459C8.64616 12.9385 8.76009 12.8555 8.89355 12.7969C9.03027 12.7383 9.1849 12.709 9.35742 12.709C9.51042 12.709 9.64062 12.7285 9.74805 12.7676C9.85872 12.8066 9.95312 12.8587 10.0312 12.9238C10.1094 12.9889 10.1745 13.0638 10.2266 13.1484C10.2786 13.2331 10.3242 13.321 10.3633 13.4121C10.4121 13.5293 10.4674 13.6416 10.5293 13.749C10.5944 13.8564 10.6725 13.9525 10.7637 14.0371C10.8581 14.1185 10.9704 14.1852 11.1006 14.2373C11.2308 14.2861 11.387 14.3105 11.5693 14.3105C12.0902 14.3105 12.4759 14.2015 12.7266 13.9834C12.9772 13.762 13.1025 13.4219 13.1025 12.9629Z" fill="white"/>
</svg>
