<svg width="24" height="24" viewBox="0 0 24 24" fill="none" xmlns="http://www.w3.org/2000/svg">
<path d="M16 2H8C5.79086 2 4 3.79086 4 6V14C4 15.259 4.59278 16.4446 5.6 17.2L9.6 20.2C11.0222 21.2667 12.9778 21.2667 14.4 20.2L18.4 17.2C19.4072 16.4446 20 15.259 20 14V6C20 3.79086 18.2091 2 16 2Z" fill="#2D1674" stroke="#2D1674" stroke-width="2" stroke-linecap="round"/>
<path d="M11.208 9.59375C11.0648 9.66536 10.9199 9.72233 10.7734 9.76465C10.627 9.80371 10.4805 9.83464 10.334 9.85742C10.1908 9.87695 10.0524 9.88997 9.91895 9.89648C9.78548 9.90299 9.66341 9.90625 9.55273 9.90625C9.2793 9.90625 9.07747 9.84115 8.94727 9.71094C8.81706 9.58073 8.75195 9.39193 8.75195 9.14453C8.75195 9.00456 8.7666 8.889 8.7959 8.79785C8.82845 8.70345 8.88704 8.6237 8.97168 8.55859C9.05632 8.49349 9.17188 8.43978 9.31836 8.39746C9.4681 8.35189 9.66178 8.30957 9.89941 8.27051C10.124 8.23145 10.321 8.17773 10.4902 8.10938C10.6628 8.03776 10.8158 7.95638 10.9492 7.86523C11.0859 7.77083 11.2064 7.66667 11.3105 7.55273C11.418 7.4388 11.5189 7.31673 11.6133 7.18652C11.7109 7.0498 11.8005 6.92936 11.8818 6.8252C11.9665 6.72103 12.0495 6.63314 12.1309 6.56152C12.2155 6.48991 12.3034 6.4362 12.3945 6.40039C12.4857 6.36458 12.5866 6.34668 12.6973 6.34668C12.9837 6.34668 13.2051 6.4069 13.3613 6.52734C13.5176 6.64779 13.5957 6.83659 13.5957 7.09375V14.9307C13.5957 15.1325 13.5664 15.3083 13.5078 15.458C13.4492 15.6045 13.3662 15.7266 13.2588 15.8242C13.1546 15.9219 13.0293 15.9935 12.8828 16.0391C12.7363 16.0879 12.5752 16.1123 12.3994 16.1123C12.2269 16.1123 12.0674 16.0879 11.9209 16.0391C11.7744 15.9935 11.6475 15.9219 11.54 15.8242C11.4359 15.7266 11.3545 15.6045 11.2959 15.458C11.2373 15.3083 11.208 15.1325 11.208 14.9307V9.59375Z" fill="white"/>
</svg>
