<svg width="24" height="24" viewBox="0 0 24 24" fill="none" xmlns="http://www.w3.org/2000/svg">
<path d="M16 2H8C5.79086 2 4 3.79086 4 6V14C4 15.259 4.59278 16.4446 5.6 17.2L9.6 20.2C11.0222 21.2667 12.9778 21.2667 14.4 20.2L18.4 17.2C19.4072 16.4446 20 15.259 20 14V6C20 3.79086 18.2091 2 16 2Z" fill="#2D1674" stroke="#2D1674" stroke-width="2" stroke-linecap="round"/>
<path d="M14.7334 14.0273C15.0719 14.0273 15.3161 14.1136 15.4658 14.2861C15.6188 14.4587 15.6953 14.7012 15.6953 15.0137C15.6953 15.3262 15.6188 15.5687 15.4658 15.7412C15.3161 15.9137 15.0719 16 14.7334 16H9.21094C9.0612 16 8.92611 15.974 8.80566 15.9219C8.68848 15.8665 8.58757 15.7933 8.50293 15.7021C8.42155 15.611 8.35807 15.5068 8.3125 15.3896C8.27018 15.2725 8.24902 15.1504 8.24902 15.0234C8.24902 14.8965 8.26204 14.7728 8.28809 14.6523C8.31413 14.5319 8.36133 14.4082 8.42969 14.2812C8.49805 14.151 8.59408 14.0143 8.71777 13.8711C8.84147 13.7246 8.99935 13.5635 9.19141 13.3877C9.38672 13.2087 9.62272 13.0101 9.89941 12.792C10.1761 12.5739 10.5033 12.3265 10.8809 12.0498C11.2194 11.8089 11.5107 11.5941 11.7549 11.4053C11.999 11.2132 12.2057 11.0407 12.375 10.8877C12.5475 10.7347 12.6859 10.598 12.79 10.4775C12.8942 10.3538 12.974 10.2383 13.0293 10.1309C13.0879 10.0202 13.127 9.91439 13.1465 9.81348C13.166 9.71257 13.1758 9.60677 13.1758 9.49609C13.1758 9.29102 13.1432 9.10872 13.0781 8.94922C13.0163 8.78971 12.9251 8.65462 12.8047 8.54395C12.6842 8.43001 12.5394 8.34375 12.3701 8.28516C12.2008 8.22656 12.0088 8.19727 11.7939 8.19727C11.6019 8.19727 11.4359 8.22982 11.2959 8.29492C11.1592 8.35677 11.0404 8.43978 10.9395 8.54395C10.8418 8.64811 10.7588 8.76693 10.6904 8.90039C10.6221 9.03385 10.5618 9.17057 10.5098 9.31055C10.4707 9.41797 10.4251 9.52051 10.373 9.61816C10.3242 9.71257 10.2607 9.7972 10.1826 9.87207C10.1077 9.94368 10.015 10.0023 9.9043 10.0479C9.79362 10.0902 9.65853 10.1113 9.49902 10.1113C9.28743 10.1113 9.1084 10.0837 8.96191 10.0283C8.81868 9.96973 8.7015 9.88835 8.61035 9.78418C8.52246 9.68001 8.45736 9.55632 8.41504 9.41309C8.37598 9.26986 8.35645 9.11198 8.35645 8.93945C8.35645 8.73112 8.389 8.52279 8.4541 8.31445C8.52246 8.10286 8.62337 7.90104 8.75684 7.70898C8.8903 7.51367 9.05469 7.33301 9.25 7.16699C9.44857 7.00098 9.67806 6.85775 9.93848 6.7373C10.1989 6.61361 10.4902 6.51758 10.8125 6.44922C11.138 6.3776 11.4928 6.3418 11.877 6.3418C12.3359 6.3418 12.7461 6.38249 13.1074 6.46387C13.472 6.54525 13.791 6.65755 14.0645 6.80078C14.3411 6.94076 14.5755 7.10677 14.7676 7.29883C14.9629 7.49089 15.1208 7.69922 15.2412 7.92383C15.3649 8.14518 15.4544 8.37793 15.5098 8.62207C15.5651 8.86621 15.5928 9.11035 15.5928 9.35449C15.5928 9.62467 15.5684 9.87858 15.5195 10.1162C15.474 10.3538 15.3958 10.5801 15.2852 10.7949C15.1777 11.0098 15.0345 11.2165 14.8555 11.415C14.6764 11.6136 14.4551 11.8122 14.1914 12.0107L11.4863 14.0273H14.7334Z" fill="white"/>
</svg>
