<svg width="356" height="99" fill="none" xmlns="http://www.w3.org/2000/svg"><rect width="356" height="99" rx="49.5" fill="#08095D"/><path d="M65.096 69.542h4.823v4.875h-4.823c-3.547 0-6.43-2.915-6.43-6.5v-39c0-3.585 2.884-6.5 6.43-6.5h16.628c1.708 0 3.346.68 4.551 1.9l9.093 9.19a6.539 6.539 0 0 1 1.879 4.601v15.184h-4.823V38.667h-8.038c-1.778 0-3.215-1.452-3.215-3.25v-8.125H65.096c-.884 0-1.607.731-1.607 1.625v39c0 .894.723 1.625 1.607 1.625ZM76.35 58.167h3.215c3.104 0 5.626 2.55 5.626 5.688s-2.522 5.687-5.626 5.687h-1.608v3.25c0 .894-.723 1.625-1.607 1.625a1.621 1.621 0 0 1-1.608-1.625v-13c0-.894.724-1.625 1.608-1.625Zm3.215 8.125a2.419 2.419 0 0 0 2.411-2.438 2.419 2.419 0 0 0-2.411-2.437h-1.608v4.875h1.608Zm9.645-8.125h3.215c2.662 0 4.823 2.184 4.823 4.875v6.5c0 2.691-2.16 4.875-4.823 4.875H89.21a1.621 1.621 0 0 1-1.608-1.625v-13c0-.894.724-1.625 1.608-1.625Zm3.215 13c.884 0 1.608-.731 1.608-1.625v-6.5c0-.894-.724-1.625-1.608-1.625h-1.607v9.75h1.607Zm8.038-11.375a1.62 1.62 0 0 1 1.607-1.625h4.823a1.62 1.62 0 0 1 1.607 1.625 1.62 1.62 0 0 1-1.607 1.625h-3.215v3.25h3.215a1.62 1.62 0 0 1 1.607 1.625 1.62 1.62 0 0 1-1.607 1.625h-3.215v4.875c0 .894-.724 1.625-1.608 1.625a1.62 1.62 0 0 1-1.607-1.625v-13ZM142.349 40.587c.233 0 .537-.02.911-.06a5.532 5.532 0 0 0 2.492-.941c.44-.294.834-.691 1.181-1.191.354-.508.641-1.138.861-1.892.22-.754.33-1.669.33-2.743 0-.874-.11-1.675-.33-2.402a4.85 4.85 0 0 0-1.011-1.872c-.46-.52-1.051-.924-1.772-1.211-.72-.287-1.581-.43-2.582-.43h-3.143v12.742h3.063Zm-.211-16.196c1.609 0 3.047.193 4.315.58 1.268.387 2.342.971 3.223 1.752.881.78 1.551 1.759 2.012 2.933.467 1.168.7 2.536.7 4.104 0 1.635-.203 3.09-.61 4.364-.407 1.268-1.031 2.34-1.872 3.213-.841.868-1.905 1.529-3.193 1.982-1.288.454-2.813.681-4.575.681h-7.157V24.39h7.157Zm16.186 9.81c0 .8.104 1.591.311 2.372.206.774.533 1.468.98 2.082a5.212 5.212 0 0 0 1.732 1.491c.708.374 1.558.56 2.553.56 1.014 0 1.878-.186 2.592-.56a5.128 5.128 0 0 0 1.762-1.491 6.127 6.127 0 0 0 .991-2.082 9.22 9.22 0 0 0 .17-3.974 7.156 7.156 0 0 0-.42-1.522 6.198 6.198 0 0 0-.741-1.35c-.3-.421-.661-.785-1.081-1.092a4.865 4.865 0 0 0-1.452-.73 5.939 5.939 0 0 0-1.821-.261 5.78 5.78 0 0 0-1.792.26 4.762 4.762 0 0 0-1.421.731c-.414.307-.771.67-1.072 1.091a6.422 6.422 0 0 0-.73 1.351c-.194.48-.337.988-.431 1.522-.086.534-.13 1.068-.13 1.601Zm-4.344 0c0-.888.09-1.759.27-2.613.187-.854.461-1.662.821-2.422a9.518 9.518 0 0 1 1.371-2.093 8.528 8.528 0 0 1 1.932-1.651 9.705 9.705 0 0 1 2.483-1.081c.921-.26 1.935-.39 3.043-.39 1.114 0 2.135.13 3.063.39.927.26 1.761.62 2.502 1.08a8.431 8.431 0 0 1 1.942 1.652 9.121 9.121 0 0 1 1.391 2.093c.374.76.651 1.568.831 2.422.187.854.28 1.725.28 2.612 0 .888-.093 1.755-.28 2.603-.18.848-.457 1.648-.831 2.402a9.208 9.208 0 0 1-1.391 2.082 8.692 8.692 0 0 1-1.942 1.632 9.624 9.624 0 0 1-2.502 1.061c-.928.254-1.949.38-3.063.38-1.108 0-2.122-.126-3.043-.38a9.669 9.669 0 0 1-2.483-1.061 8.796 8.796 0 0 1-1.932-1.632 9.614 9.614 0 0 1-1.371-2.082 11.113 11.113 0 0 1-.821-2.402c-.18-.847-.27-1.715-.27-2.603ZM184.159 44h-4.464L174.5 24.39h4.394l3.193 13.564h.04l3.584-13.563h3.854l3.583 13.563h.04l3.193-13.563h4.395L195.581 44h-4.465l-3.473-13.243L184.159 44Zm18.609-19.61h4.304l8.448 13.144h.04V24.39h4.144V44h-4.344l-8.408-13.133h-.04V44h-4.144V24.39Zm24.964 0v15.916h9.279V44h-13.623V24.39h4.344Zm14.514 9.81c0 .801.104 1.592.31 2.373a6.24 6.24 0 0 0 .981 2.082 5.212 5.212 0 0 0 1.732 1.491c.707.374 1.558.56 2.553.56 1.014 0 1.878-.186 2.592-.56a5.128 5.128 0 0 0 1.762-1.491 6.127 6.127 0 0 0 .991-2.082 9.22 9.22 0 0 0 .17-3.974 7.156 7.156 0 0 0-.42-1.522 6.198 6.198 0 0 0-.741-1.35 4.815 4.815 0 0 0-1.081-1.092 4.865 4.865 0 0 0-1.452-.73 5.939 5.939 0 0 0-1.821-.261 5.78 5.78 0 0 0-1.792.26 4.92 4.92 0 0 0-2.493 1.822 6.422 6.422 0 0 0-.73 1.351c-.194.48-.337.988-.431 1.522a9.94 9.94 0 0 0-.13 1.601Zm-4.344 0c0-.887.09-1.758.27-2.612.187-.854.461-1.662.821-2.422a9.518 9.518 0 0 1 1.371-2.093 8.528 8.528 0 0 1 1.932-1.651 9.705 9.705 0 0 1 2.483-1.081c.92-.26 1.935-.39 3.043-.39 1.114 0 2.135.13 3.063.39.927.26 1.761.62 2.502 1.08a8.431 8.431 0 0 1 1.942 1.652 9.154 9.154 0 0 1 1.391 2.093c.374.76.651 1.568.831 2.422.187.854.28 1.725.28 2.612 0 .888-.093 1.755-.28 2.603-.18.848-.457 1.648-.831 2.402a9.242 9.242 0 0 1-1.391 2.082 8.692 8.692 0 0 1-1.942 1.632 9.624 9.624 0 0 1-2.502 1.061c-.928.254-1.949.38-3.063.38-1.108 0-2.123-.126-3.043-.38a9.669 9.669 0 0 1-2.483-1.061 8.796 8.796 0 0 1-1.932-1.632 9.614 9.614 0 0 1-1.371-2.082 11.113 11.113 0 0 1-.821-2.402c-.18-.847-.27-1.715-.27-2.603Zm39.929 9.8h-4.555l-1.671-4.685h-7.317L262.616 44h-4.554l7.627-19.61h4.514L277.831 44Zm-12.362-7.908h4.915l-2.433-6.876-2.482 6.876Zm21.581 4.495c.233 0 .537-.02.911-.06a5.532 5.532 0 0 0 2.492-.941 4.45 4.45 0 0 0 1.181-1.191c.354-.508.641-1.138.861-1.892.22-.754.33-1.669.33-2.743 0-.874-.11-1.675-.33-2.402a4.823 4.823 0 0 0-1.011-1.872c-.46-.52-1.051-.924-1.772-1.211-.72-.287-1.581-.43-2.582-.43h-3.143v12.742h3.063Zm-.21-16.196c1.608 0 3.046.193 4.314.58 1.268.387 2.342.971 3.223 1.752.881.78 1.551 1.759 2.012 2.933.467 1.168.701 2.536.701 4.104 0 1.635-.204 3.09-.611 4.364-.407 1.268-1.031 2.34-1.872 3.213-.841.868-1.905 1.529-3.193 1.982-1.288.454-2.813.681-4.574.681h-7.157V24.39h7.157ZM129.109 71.562c.032.355.11.672.235.954.125.276.286.51.484.703.203.193.435.34.695.445.266.104.555.156.868.156.229 0 .463-.023.703-.07.245-.047.466-.13.664-.25.203-.12.37-.281.5-.484.13-.209.195-.47.195-.782 0-.265-.068-.49-.203-.671-.135-.183-.341-.342-.617-.477a5.59 5.59 0 0 0-1.039-.383c-.417-.12-.909-.247-1.477-.383-.458-.11-.906-.247-1.344-.414a4.583 4.583 0 0 1-1.171-.664 3.168 3.168 0 0 1-.836-1c-.209-.396-.313-.88-.313-1.453 0-.552.065-1.039.195-1.46.131-.423.31-.787.54-1.095.229-.307.5-.562.812-.765a4.37 4.37 0 0 1 1.016-.5 5.846 5.846 0 0 1 1.148-.266 9.448 9.448 0 0 1 1.219-.078c.63 0 1.226.073 1.789.219.562.14 1.062.377 1.5.71.437.334.794.772 1.07 1.313.281.537.451 1.2.508 1.992h-2.984c-.047-.583-.245-1.023-.594-1.32-.344-.297-.794-.445-1.352-.445-.182 0-.372.02-.57.062-.198.037-.38.102-.547.196-.161.088-.297.21-.406.367a.95.95 0 0 0-.164.57c0 .323.096.576.289.758.198.182.458.33.781.445.323.11.693.206 1.109.29.422.077.857.174 1.305.288.469.125.914.276 1.336.453.422.172.794.399 1.117.68.323.281.578.628.766 1.04.193.41.289.916.289 1.515 0 .568-.07 1.075-.211 1.523a3.821 3.821 0 0 1-.57 1.172c-.24.334-.526.617-.86.852a4.778 4.778 0 0 1-1.086.57c-.39.146-.802.25-1.234.313-.432.067-.87.101-1.312.101A6.43 6.43 0 0 1 129.43 76a4.936 4.936 0 0 1-1.649-.86 4.474 4.474 0 0 1-1.179-1.476c-.303-.594-.469-1.294-.5-2.102h3.007Zm8.524-4.078c0-.791.143-1.49.429-2.093.287-.61.665-1.12 1.133-1.532a4.897 4.897 0 0 1 1.617-.945 5.636 5.636 0 0 1 1.876-.32c.692 0 1.338.09 1.937.273.604.183 1.128.461 1.57.836.443.37.789.841 1.039 1.414.256.568.383 1.24.383 2.016V76h-3.265v-8.445c0-.756-.144-1.302-.43-1.64-.281-.34-.693-.509-1.234-.509-.485 0-.878.175-1.18.524-.297.343-.469.862-.516 1.554h-3.359Zm12.203-1.18c0-.452.06-.85.18-1.195a2.8 2.8 0 0 1 1.179-1.531c.266-.172.545-.307.836-.406a4.62 4.62 0 0 1 .899-.219c.307-.047.599-.07.875-.07h2.273v2.719h-1.859c-.198 0-.37.023-.516.07a.988.988 0 0 0-.359.195.759.759 0 0 0-.211.274.85.85 0 0 0-.063.32c0 .161.026.312.078.453.058.14.141.266.25.375.11.11.243.198.399.266.161.067.346.11.555.125h1.726v2.46h-1.601c-.178.011-.347.037-.508.079a.963.963 0 0 0-.43.219 1.044 1.044 0 0 0-.297.453c-.073.197-.109.46-.109.789 0 .307.07.58.211.82.146.234.336.435.57.602.24.161.51.286.813.375.302.083.612.125.929.125.354 0 .683-.053.985-.157.302-.104.562-.265.781-.484.219-.219.39-.5.516-.844.124-.344.187-.755.187-1.234v-8h3.234v8.414c0 .823-.151 1.55-.453 2.18a4.492 4.492 0 0 1-1.218 1.57c-.516.422-1.12.74-1.813.953a7.494 7.494 0 0 1-2.219.32c-.484 0-.966-.039-1.445-.117a7.233 7.233 0 0 1-1.359-.36 6.307 6.307 0 0 1-1.196-.616c-.37-.25-.69-.542-.961-.875a4.2 4.2 0 0 1-.633-1.149 4.267 4.267 0 0 1-.226-1.43c0-.64.102-1.205.305-1.695a2.355 2.355 0 0 1 1.007-1.148 3.843 3.843 0 0 1-.578-.578 3.599 3.599 0 0 1-.656-1.352 3.276 3.276 0 0 1-.078-.695Zm22.039 4.204a7.054 7.054 0 0 0-.336-.008 6.903 6.903 0 0 0-.328-.008c-.38 0-.755.01-1.125.031-.37.021-.724.058-1.063.11-.338.052-.653.12-.945.203a2.926 2.926 0 0 0-.75.328c-.208.13-.372.29-.492.477-.12.182-.18.395-.18.64 0 .271.06.495.18.672.12.177.273.32.461.43.193.104.406.177.641.219.234.041.468.062.703.062.229 0 .497-.023.804-.07.313-.047.654-.12 1.024-.219v2.5c-.438.125-.844.219-1.219.281a6.265 6.265 0 0 1-1.117.102 7.36 7.36 0 0 1-1.821-.219 4.55 4.55 0 0 1-1.515-.664 3.41 3.41 0 0 1-1.031-1.164c-.25-.469-.375-1.031-.375-1.688 0-.583.099-1.099.297-1.546a3.53 3.53 0 0 1 .828-1.18 4.803 4.803 0 0 1 1.273-.852 8.322 8.322 0 0 1 1.617-.547 12.19 12.19 0 0 1 1.867-.289 19.725 19.725 0 0 1 2.305-.062c.099 0 .198.002.297.008v-1.118c0-.338-.07-.62-.211-.843a1.565 1.565 0 0 0-.531-.547 2.206 2.206 0 0 0-.711-.29 3.527 3.527 0 0 0-.758-.085c-.333 0-.646.047-.937.14-.292.094-.55.24-.774.438a2.222 2.222 0 0 0-.547.766 3.113 3.113 0 0 0-.234 1.101h-3.328a6.489 6.489 0 0 1 .265-1.719c.157-.5.368-.934.633-1.304.271-.375.589-.688.953-.938.365-.255.763-.46 1.196-.617a6.601 6.601 0 0 1 1.398-.344 11.35 11.35 0 0 1 1.539-.101c.417 0 .836.028 1.258.086a6.3 6.3 0 0 1 1.219.289c.39.13.755.307 1.093.531.344.224.641.5.891.828.255.328.456.716.602 1.164.145.443.218.956.218 1.54V76h-3.234v-5.492Zm5.687-2.89v-3.329h2.688v.961h3.195v2.367h-5.883Zm0 6.491v-3.296h2.688v.96h3.195v2.336h-5.883Zm8.25 1.891V62.883h3.297V76h-3.297Zm11.438-10.563c-.318 0-.62.047-.906.141a2.62 2.62 0 0 0-1.36 1.023 2.717 2.717 0 0 0-.359.82h-3.453a7.795 7.795 0 0 1 .766-1.968 5.599 5.599 0 0 1 1.265-1.539 5.518 5.518 0 0 1 1.766-.992c.672-.24 1.432-.36 2.281-.36 1.12 0 2.068.178 2.844.532.781.354 1.414.84 1.898 1.46.485.62.834 1.352 1.047 2.196.219.838.328 1.745.328 2.719 0 .61-.049 1.2-.148 1.773a7.365 7.365 0 0 1-.453 1.617 6.128 6.128 0 0 1-.797 1.391 5.039 5.039 0 0 1-1.164 1.086 5.378 5.378 0 0 1-1.555.703c-.583.167-1.24.25-1.969.25-.739 0-1.403-.083-1.992-.25a5.525 5.525 0 0 1-1.555-.695 4.824 4.824 0 0 1-1.148-1.078 6.242 6.242 0 0 1-.774-1.391 8.008 8.008 0 0 1-.437-1.617 11.133 11.133 0 0 1-.141-1.79v-.921h6.047v2.656h-2.617c.089.339.214.646.375.922.162.276.354.516.578.719.224.198.474.351.75.46.281.11.586.165.914.165a2.46 2.46 0 0 0 1.157-.266c.343-.182.632-.443.867-.781.239-.344.422-.763.547-1.258.125-.495.187-1.06.187-1.695 0-1.307-.229-2.305-.687-2.992-.459-.693-1.159-1.04-2.102-1.04Zm-5.094-6.906h7.524v-2.015h3.101v4.507h-11.898l1.273-2.492Zm12.867 7.774c0-.453.06-.852.18-1.196.12-.349.279-.648.477-.898.203-.255.437-.466.703-.633.265-.172.544-.307.836-.406.297-.104.596-.177.898-.219.307-.047.599-.07.875-.07h2.274v2.719h-1.86c-.198 0-.37.023-.515.07a.993.993 0 0 0-.36.195.77.77 0 0 0-.211.274.868.868 0 0 0-.062.32c0 .161.026.312.078.453.057.14.141.266.25.375.109.11.242.198.398.266.162.067.347.11.555.125h1.727v2.46h-1.602c-.177.011-.346.037-.508.079a.965.965 0 0 0-.429.219 1.044 1.044 0 0 0-.297.453c-.073.197-.11.46-.11.789 0 .307.071.58.211.82.146.234.336.435.571.602.239.161.51.286.812.375.302.083.612.125.93.125.354 0 .682-.053.984-.157.302-.104.563-.265.781-.484.219-.219.391-.5.516-.844s.187-.755.187-1.234v-8h3.235v8.414c0 .823-.151 1.55-.453 2.18a4.483 4.483 0 0 1-1.219 1.57c-.516.422-1.12.74-1.813.953a7.488 7.488 0 0 1-2.218.32 8.98 8.98 0 0 1-1.446-.117 7.233 7.233 0 0 1-1.359-.36 6.328 6.328 0 0 1-1.195-.616c-.37-.25-.69-.542-.961-.875a4.148 4.148 0 0 1-.633-1.149 4.267 4.267 0 0 1-.227-1.43c0-.64.102-1.205.305-1.695a2.352 2.352 0 0 1 1.008-1.148 3.752 3.752 0 0 1-.578-.578 3.936 3.936 0 0 1-.406-.657c-.11-.229-.193-.46-.25-.695a3.215 3.215 0 0 1-.079-.695Zm19.032 3.773h-.93v-2.016h4.32v1.954L221.719 76h-2.75v-7.773c0-.48.044-.951.133-1.415.093-.468.242-.911.445-1.328.208-.416.474-.802.797-1.156a4.622 4.622 0 0 1 1.195-.914 6.535 6.535 0 0 1 1.633-.602c.625-.145 1.336-.218 2.133-.218.781 0 1.479.073 2.093.218a6.418 6.418 0 0 1 1.618.602c.468.255.864.56 1.187.914.323.354.586.74.789 1.156.203.417.349.86.438 1.329.093.463.14.934.14 1.414V76h-3.258v-8.031c0-.302-.054-.607-.164-.914a2.176 2.176 0 0 0-.523-.82 2.64 2.64 0 0 0-.937-.594c-.381-.157-.842-.235-1.383-.235-.552 0-1.024.078-1.414.235a2.695 2.695 0 0 0-.953.593c-.245.24-.425.513-.54.82a2.614 2.614 0 0 0-.171.915v3.906l1.828-1.797ZM234.125 76V62.883h3.297V76h-3.297Zm14.641-13.117 2.14 7.36 1.602-7.36h3.523L252.539 76h-2.781l-2.211-7.484L245.375 76h-2.789l-3.484-13.117h3.523l1.594 7.422 2.148-7.422h2.399Zm-8.946-1.86 1.274-2.492h14v2.492H239.82Zm12.266-9.054h3.039v4.547h-3.039v-4.547ZM257.562 76V62.883h3.258v7.297c0 .583.073 1.075.219 1.476.151.396.346.719.586.969.245.245.516.422.813.531.302.104.606.156.914.156.463 0 .862-.065 1.195-.195.333-.13.604-.312.812-.547.214-.234.37-.515.469-.843.099-.334.149-.701.149-1.102v-7.742h3.234v8.031c0 .734-.086 1.43-.258 2.086a4.766 4.766 0 0 1-.805 1.71c-.364.485-.838.87-1.421 1.157-.584.281-1.292.422-2.125.422-.808 0-1.54-.161-2.196-.484-.656-.323-1.226-.823-1.711-1.5V76h-3.133Zm14.219 0V62.883h3.297V76h-3.297Zm9.133-8.227v4.102l1.828-1.797h-.93v-2.016h4.321v1.954L280.406 76h-2.75v-7.969c0-.599.073-1.187.219-1.765a5.039 5.039 0 0 1 .734-1.602c.344-.49.789-.914 1.336-1.273.552-.365 1.229-.63 2.032-.797l2.015 1.343 2.047-1.312c.776.177 1.432.445 1.969.805a4.804 4.804 0 0 1 2.023 2.843 6.87 6.87 0 0 1 .227 1.758V76H287v-8.227c0-.354-.076-.697-.227-1.03a2.292 2.292 0 0 0-.703-.884l-1.375.829a1.59 1.59 0 0 1-.672.195c-.234.015-.479-.05-.734-.195l-1.414-.868c-.339.26-.583.563-.734.907a2.58 2.58 0 0 0-.227 1.046Zm-2.594-6.75 1.274-2.492h10.625v2.492H278.32ZM292.688 76V62.883h3.257v7.297c0 .583.073 1.075.219 1.476.151.396.346.719.586.969.245.245.516.422.812.531.303.104.607.156.915.156.463 0 .862-.065 1.195-.195.333-.13.604-.312.812-.547.214-.234.37-.515.469-.843.099-.334.149-.701.149-1.102v-7.742h3.234v8.031c0 .734-.086 1.43-.258 2.086a4.766 4.766 0 0 1-.805 1.71c-.364.485-.838.87-1.421 1.157-.584.281-1.292.422-2.125.422-.808 0-1.539-.161-2.196-.484-.656-.323-1.226-.823-1.711-1.5V76h-3.132Z" fill="#fff"/></svg>