<svg xmlns="http://www.w3.org/2000/svg" id="Layer_1" version="1.1" viewBox="0 0 418 246"><defs><style>.st0{fill:none;stroke:#956722;stroke-miterlimit:10;stroke-width:2px}</style></defs><path d="M200.62 175.22c-7.56 14.83-17.64 26.25-29.96 33.94-12.3 7.67-25.82 11.56-40.2 11.56-12.45 0-23.05-2.51-31.53-7.45-8.54-4.98-15.64-11.93-21.1-20.66-5.57-8.91-9.69-19.15-12.22-30.44-2.57-11.45-3.87-23.5-3.87-35.83 0-26.48 3.18-47.33 9.44-62 6.11-14.32 14.38-24.5 24.56-30.25 10.36-5.85 22.05-8.82 34.72-8.82 17.12 0 31.03 5.06 41.33 15.03 10.49 10.16 17.84 25.12 21.84 44.46l.68 3.29h17.41v-4.12c0-9.84-.34-19.49-1-28.68-.72-9.89-3.56-18.16-8.45-24.57l-.17-.2c-6.56-7.56-16.59-14.27-29.8-19.95-13.15-5.65-30.58-8.52-51.79-8.52-16.2 0-31.37 3.22-45.1 9.56-13.68 6.33-25.82 15.25-36.08 26.51C29.09 49.33 21.07 62.65 15.5 77.66c-5.55 14.97-8.37 31.35-8.37 48.68 0 21.92 4.43 41.97 13.18 59.6 8.8 17.77 21.85 32.04 38.79 42.42C76.01 238.74 96.68 244 120.52 244s43.77-4.57 59.35-13.58c15.58-9.02 28.91-23.24 39.61-42.29l1.74-3.09-18.33-14.26-2.27 4.45ZM282.94 216.97v-85h119.78v-19.82H282.94V36.49h130.72V16.67H259.61v220.12H415v-19.82z" class="st0"/></svg>