<?xml version="1.0" encoding="UTF-8"?>
<svg id="Layer_1" xmlns="http://www.w3.org/2000/svg" version="1.1" viewBox="0 0 1990 650">
  <!-- Generator: Adobe Illustrator 29.6.1, SVG Export Plug-In . SVG Version: 2.1.1 Build 9)  -->
  <defs>
    <style>
      .st0 {
        fill: #fbec4f;
      }

      .st1 {
        fill: #fff;
      }

      .st2 {
        fill: #45b2ef;
      }
    </style>
  </defs>
  <g>
    <path class="st2" d="M14.42,127.48L30.83,50.79h303.33l-16.41,76.69h-103.21l-64.1,304.66H52L116.1,127.48H14.42Z"/>
    <path class="st2" d="M656.75,50.79l-16.41,76.69h-192.3l-14.88,71.73h178.18l-16.41,75.17h-178.18l-17.17,82.03h193.06l-15.64,75.74h-290.74L366.77,50.79h289.97Z"/>
    <path class="st2" d="M878.61,50.79c21.37,0,39.87,2.67,55.52,8.01,15.64,5.34,28.23,13.13,37.77,23.37,9.54,10.24,15.86,22.77,18.98,37.58,3.12,14.82,2.7,31.7-1.24,50.65-4.07,18.7-10.81,35.48-20.22,50.36-9.41,14.88-21.05,27.47-34.91,37.77-13.86,10.3-29.76,18.19-47.69,23.66-17.93,5.47-37.58,8.08-58.95,7.82h-90.62l-29.76,142.12h-89.85l80.51-381.35h180.47ZM819.28,216.57c21.49.38,38.06-3.02,49.7-10.21,11.64-7.18,19.04-18.41,22.22-33.67,3.18-15.26.48-26.61-8.11-34.05-8.58-7.44-23.63-11.16-45.12-11.16h-66.39l-18.7,89.09h66.39Z"/>
    <path class="st0" d="M1276.37,178.98c.51-9.16-.51-17.42-3.05-24.8-2.55-7.38-6.49-13.61-11.83-18.7-5.34-5.09-12.05-9-20.13-11.73-8.08-2.73-17.26-4.1-27.57-4.1-17.93,0-33.83,3.5-47.69,10.49-13.86,7-25.85,16.25-35.96,27.76-10.11,11.51-18.44,24.68-24.99,39.49-6.55,14.82-11.48,30.05-14.78,45.69-2.04,9.92-3.31,19.71-3.82,29.38-.51,9.67-.06,18.86,1.34,27.57,1.4,8.71,3.88,16.79,7.44,24.23,3.56,7.44,8.33,13.9,14.31,19.36,5.98,5.47,13.32,9.73,22.03,12.78,8.71,3.05,18.92,4.58,30.62,4.58,23.02,0,42.51-6.61,58.47-19.84,15.96-13.23,28.26-32.37,36.91-57.42h96.91c-4.84,15.9-11.19,30.78-19.08,44.64-7.89,13.87-16.98,26.58-27.28,38.15-10.3,11.57-21.68,21.91-34.15,31-12.47,9.09-25.63,16.79-39.49,23.08-13.86,6.29-28.33,11.1-43.4,14.4-15.07,3.3-30.43,4.96-46.07,4.96-31.67,0-58.63-4.77-80.89-14.31-22.26-9.54-39.78-22.95-52.56-40.25-12.78-17.29-20.83-38.03-24.13-62.19-3.31-24.16-1.85-50.87,4.39-80.12,6.23-29.5,16.22-56.59,29.95-81.27,13.74-24.67,30.78-45.94,51.13-63.81,20.35-17.87,43.72-31.76,70.11-41.68,26.39-9.92,55.42-14.88,87.09-14.88,13.99,0,27.41,1.37,40.25,4.1,12.84,2.74,24.83,6.74,35.96,12.02,11.13,5.28,21.11,11.8,29.95,19.56,8.84,7.76,16.25,16.73,22.23,26.9,5.98,10.18,10.27,21.53,12.88,34.05,2.61,12.53,3.21,26.17,1.81,40.92h-96.91Z"/>
    <path class="st0" d="M1366.22,293.83c4.96-22.64,12.94-42.98,23.94-61.05,11-18.06,24.42-33.39,40.25-45.98,15.83-12.59,33.73-22.25,53.7-29,19.97-6.74,41.4-10.11,64.29-10.11s43.75,3.37,61.05,10.11c17.29,6.74,31.12,16.41,41.49,29,10.36,12.59,17.14,27.92,20.32,45.98,3.18,18.06,2.29,38.41-2.67,61.05-4.84,22.89-12.78,43.37-23.85,61.43-11.06,18.06-24.58,33.35-40.54,45.88-15.96,12.53-33.96,22.13-53.99,28.81-20.03,6.68-41.49,10.02-64.38,10.02s-42.89-3.31-60-9.92c-17.11-6.61-30.9-16.15-41.4-28.62-10.49-12.46-17.36-27.76-20.6-45.88-3.24-18.12-2.45-38.69,2.39-61.72ZM1458.56,293.83c-2.16,10.56-3.18,20.8-3.05,30.71.12,9.92,1.72,18.76,4.77,26.52,3.05,7.76,7.79,13.96,14.21,18.6,6.42,4.64,14.91,6.96,25.47,6.96s20.06-2.22,28.52-6.68c8.46-4.45,15.93-10.46,22.42-18.03,6.49-7.56,11.92-16.37,16.31-26.42,4.39-10.05,7.73-20.6,10.02-31.67,2.29-10.55,3.53-20.79,3.72-30.71.19-9.92-1.24-18.76-4.29-26.52-3.05-7.76-7.92-13.96-14.59-18.6-6.68-4.64-15.68-6.96-26.99-6.96-10.18,0-19.43,2.32-27.76,6.96-8.33,4.64-15.74,10.84-22.22,18.6-6.49,7.76-11.96,16.6-16.41,26.52-4.45,9.92-7.82,20.16-10.11,30.71Z"/>
    <path class="st0" d="M1655.85,127.48l16.4-76.69h303.33l-16.41,76.69h-103.21l-64.1,304.66h-98.44l64.1-304.66h-101.68Z"/>
  </g>
  <g>
    <path class="st1" d="M16.02,534.32h40.04l-1.6,7.48h-15.65l-10.82,51.22h-8.63l10.82-51.22h-15.76l1.6-7.48Z"/>
    <path class="st1" d="M79.77,548.82c3.05,0,5.59.48,7.6,1.45,2.01.96,3.54,2.36,4.59,4.2,1.05,1.84,1.63,4.1,1.76,6.79.12,2.69-.19,5.76-.94,9.2-.86,4.08-2.01,7.6-3.46,10.55-1.44,2.95-3.13,5.38-5.06,7.28-1.93,1.9-4.08,3.3-6.45,4.2-2.37.9-4.9,1.35-7.6,1.35s-4.95-.44-6.93-1.32c-1.98-.88-3.53-2.26-4.66-4.15-1.13-1.88-1.81-4.3-2.04-7.26-.22-2.96.09-6.51.96-10.65.73-3.43,1.74-6.48,3.03-9.16s2.87-4.94,4.72-6.79c1.85-1.85,3.99-3.25,6.41-4.23,2.42-.97,5.1-1.46,8.06-1.46ZM71.71,586.81c1.78,0,3.34-.37,4.68-1.1,1.34-.73,2.5-1.77,3.48-3.1.98-1.34,1.82-2.95,2.52-4.83.69-1.88,1.28-3.98,1.77-6.28.66-3.02,1.02-5.54,1.1-7.57.07-2.03-.13-3.66-.62-4.89-.49-1.23-1.26-2.1-2.3-2.63-1.05-.52-2.36-.79-3.93-.79s-3,.26-4.27.79c-1.27.52-2.42,1.4-3.44,2.63-1.02,1.23-1.94,2.86-2.75,4.89-.81,2.03-1.55,4.56-2.21,7.57-.49,2.3-.78,4.4-.87,6.28-.09,1.88.07,3.49.51,4.83.43,1.34,1.16,2.37,2.18,3.1,1.02.73,2.41,1.1,4.17,1.1Z"/>
    <path class="st1" d="M120.17,553.32c.96-.92,1.88-1.67,2.78-2.25.9-.58,1.79-1.04,2.68-1.38.89-.34,1.78-.57,2.68-.69.9-.12,1.83-.18,2.78-.18,2.14,0,3.92.33,5.35,1,1.43.66,2.59,1.57,3.47,2.73.88,1.15,1.52,2.5,1.92,4.05.4,1.55.62,3.2.66,4.97.04,1.77-.07,3.6-.32,5.49-.25,1.89-.58,3.76-.97,5.59-.37,1.72-.84,3.44-1.39,5.16-.55,1.71-1.22,3.35-2.01,4.92-.79,1.56-1.7,3.02-2.74,4.36-1.04,1.34-2.23,2.5-3.58,3.48-1.35.98-2.86,1.76-4.52,2.32-1.67.56-3.51.84-5.54.84-.9,0-1.76-.07-2.57-.21-.81-.14-1.58-.37-2.29-.7-.71-.33-1.37-.75-1.97-1.28-.6-.52-1.12-1.18-1.57-1.97l-4.05,18.66h-8.4l12.56-58.7h7.81l-.79,3.79ZM116.71,570.35c-.19.97-.4,2.07-.63,3.27-.23,1.21-.41,2.43-.53,3.67-.12,1.24-.15,2.44-.08,3.61.07,1.17.31,2.21.73,3.12.42.91,1.06,1.64,1.91,2.19.85.55,2,.83,3.44.83,1.27,0,2.41-.25,3.4-.74.99-.5,1.87-1.16,2.64-1.98.77-.82,1.43-1.76,2-2.81.56-1.05,1.04-2.13,1.45-3.23.4-1.11.74-2.2,1.01-3.27.27-1.08.49-2.05.66-2.91.58-2.68.96-5.03,1.12-7.07.17-2.03.09-3.74-.22-5.11-.32-1.38-.92-2.42-1.8-3.12-.88-.7-2.08-1.05-3.6-1.05-1.41,0-2.63.22-3.68.67-1.05.45-1.97,1.05-2.75,1.81s-1.45,1.64-2,2.63c-.54.99-1.01,2.03-1.39,3.1-.38,1.08-.71,2.17-.97,3.27-.26,1.11-.5,2.14-.7,3.12Z"/>
    <path class="st1" d="M182.56,593.02l12.42-58.7h33.27l-1.63,7.48h-24.61l-3.57,17.03h23.13l-1.6,7.5h-23.15l-4.13,19.33h24.76l-1.52,7.36h-33.35Z"/>
    <path class="st1" d="M236.42,549.53h9.1l5.76,15.43,12.53-15.43h9.1l-18.43,21.52,9.55,21.97h-9.19l-6.24-15.31-12.53,15.31h-9.22l18.77-21.97-9.22-21.52Z"/>
    <path class="st1" d="M308.93,577.48c-.47,2.45-1.22,4.68-2.26,6.69-1.04,2-2.35,3.72-3.92,5.16-1.57,1.43-3.4,2.54-5.49,3.33-2.09.79-4.42,1.18-6.98,1.18-2.34,0-4.4-.36-6.17-1.08s-3.17-1.94-4.19-3.67c-1.02-1.72-1.62-4.01-1.78-6.87-.17-2.86.2-6.43,1.1-10.72.75-3.45,1.68-6.56,2.8-9.34,1.11-2.78,2.5-5.15,4.14-7.11,1.65-1.96,3.6-3.47,5.86-4.52,2.26-1.06,4.89-1.59,7.91-1.59,2.53,0,4.58.36,6.17,1.08,1.58.72,2.8,1.69,3.65,2.91.85,1.22,1.41,2.63,1.69,4.24.27,1.61.37,3.31.28,5.09-.08,1.78-.29,3.59-.6,5.44-.32,1.85-.63,3.61-.93,5.3h-22.68c-.15.86-.31,1.8-.48,2.82s-.29,2.04-.35,3.06c-.07,1.02-.05,2.01.06,2.96.1.96.35,1.8.74,2.54.39.74.96,1.33,1.7,1.77.74.44,1.72.66,2.94.66,1.37,0,2.57-.28,3.61-.83,1.04-.55,1.92-1.27,2.63-2.15.71-.88,1.26-1.88,1.66-2.99.39-1.11.64-2.23.73-3.36h8.18ZM303.06,566.33c.11-.77.22-1.56.31-2.39.09-.82.14-1.63.14-2.42s-.07-1.53-.22-2.22c-.15-.69-.42-1.31-.81-1.84-.39-.53-.92-.96-1.59-1.26-.67-.31-1.51-.46-2.54-.46-1.67,0-3.04.35-4.12,1.05-1.08.7-1.95,1.58-2.63,2.64-.67,1.06-1.2,2.2-1.59,3.44-.38,1.24-.72,2.39-1,3.46h14.05Z"/>
    <path class="st1" d="M344.25,555.62c-1.46,0-2.74.3-3.85.9-1.11.6-2.07,1.39-2.91,2.36-.83.97-1.55,2.08-2.14,3.32-.59,1.24-1.1,2.5-1.52,3.79-.42,1.29-.77,2.55-1.05,3.77-.28,1.22-.52,2.29-.73,3.23-.17.88-.34,1.84-.51,2.87-.17,1.03-.27,2.06-.31,3.08-.04,1.02.02,2.01.17,2.96s.45,1.79.9,2.52,1.08,1.3,1.88,1.74,1.85.66,3.15.66c1.52,0,2.79-.28,3.81-.84,1.02-.56,1.88-1.31,2.57-2.23.69-.93,1.25-2,1.69-3.2.43-1.21.81-2.46,1.15-3.75h7.92c-.58,2.25-1.36,4.4-2.33,6.46-.97,2.06-2.19,3.87-3.65,5.44-1.46,1.56-3.2,2.82-5.21,3.75-2.01.94-4.34,1.41-6.98,1.41-2.47,0-4.56-.28-6.25-.84-1.7-.56-3.07-1.34-4.13-2.35-1.06-1-1.84-2.19-2.35-3.57-.51-1.38-.81-2.88-.91-4.51-.1-1.63-.05-3.35.17-5.17.22-1.82.53-3.67.94-5.56.37-1.78.83-3.59,1.36-5.42.53-1.84,1.2-3.61,2.01-5.31.81-1.7,1.76-3.3,2.87-4.79,1.11-1.49,2.41-2.79,3.91-3.91,1.5-1.11,3.21-1.99,5.14-2.63,1.93-.64,4.12-.96,6.58-.96s4.48.4,6.14,1.19c1.66.8,2.94,1.89,3.85,3.27.91,1.39,1.47,3.01,1.67,4.86.21,1.85.07,3.85-.39,5.98h-7.81c.21-1.09.32-2.14.34-3.17.02-1.03-.14-1.94-.46-2.73-.33-.79-.87-1.42-1.62-1.9-.75-.48-1.78-.72-3.09-.72Z"/>
    <path class="st1" d="M389.59,589.23c-1.63,1.56-3.43,2.71-5.41,3.47-1.98.76-3.98,1.14-6,1.14-1.84,0-3.45-.24-4.83-.72-1.39-.48-2.51-1.2-3.36-2.16-.85-.96-1.41-2.17-1.67-3.62-.26-1.45-.2-3.16.2-5.13l7.02-32.68h8.29l-7.02,32.79c-.15.71-.2,1.35-.15,1.91.05.56.22,1.04.53,1.42.31.38.77.67,1.38.87.61.2,1.4.3,2.37.3,1.46,0,2.81-.25,4.06-.76,1.25-.51,2.35-1.2,3.3-2.09.96-.89,1.76-1.95,2.42-3.18.66-1.23,1.12-2.56,1.41-4l5.87-27.26h8.26l-9.19,43.5h-8.18l.7-3.79Z"/>
    <path class="st1" d="M434.01,549.53h7.36l-1.49,6.77h-7.36l-5.87,27.87c-.06.22-.11.46-.15.7-.05.24-.03.46.04.66.07.2.24.36.51.49.26.13.66.2,1.21.2h5.31l-1.41,6.8h-8.04c-1.07,0-2.06-.08-2.96-.24-.91-.16-1.66-.51-2.25-1.04-.59-.53-.98-1.31-1.17-2.32-.19-1.01-.09-2.38.28-4.1l6.1-29.03h-5.99l1.49-6.77h5.99l2.53-11.86h8.4l-2.53,11.86Z"/>
    <path class="st1" d="M446.22,593.02l9.19-43.5h8.4l-9.19,43.5h-8.4ZM456.68,543.54l1.97-9.22h8.4l-1.97,9.22h-8.4Z"/>
    <path class="st1" d="M477.52,549.53h8.74l2.3,29.56-.22,5.31,2.08-5.2,15.06-29.67h8.74l-23.24,43.5h-8.96l-4.5-43.5Z"/>
    <path class="st1" d="M549.81,577.48c-.47,2.45-1.22,4.68-2.26,6.69-1.04,2-2.35,3.72-3.92,5.16-1.57,1.43-3.4,2.54-5.49,3.33-2.09.79-4.42,1.18-6.98,1.18-2.34,0-4.4-.36-6.17-1.08s-3.17-1.94-4.19-3.67c-1.02-1.72-1.62-4.01-1.78-6.87-.17-2.86.2-6.43,1.1-10.72.75-3.45,1.68-6.56,2.8-9.34,1.11-2.78,2.5-5.15,4.14-7.11,1.65-1.96,3.6-3.47,5.86-4.52,2.26-1.06,4.89-1.59,7.91-1.59,2.53,0,4.58.36,6.17,1.08,1.58.72,2.8,1.69,3.65,2.91.85,1.22,1.41,2.63,1.69,4.24.27,1.61.37,3.31.28,5.09-.08,1.78-.29,3.59-.6,5.44-.32,1.85-.63,3.61-.93,5.3h-22.68c-.15.86-.31,1.8-.48,2.82-.17,1.02-.29,2.04-.35,3.06-.07,1.02-.05,2.01.06,2.96.1.96.35,1.8.74,2.54.39.74.96,1.33,1.7,1.77.74.44,1.72.66,2.94.66,1.37,0,2.57-.28,3.61-.83s1.92-1.27,2.63-2.15c.71-.88,1.26-1.88,1.66-2.99s.64-2.23.73-3.36h8.18ZM543.94,566.33c.11-.77.22-1.56.31-2.39.09-.82.14-1.63.14-2.42s-.07-1.53-.22-2.22c-.15-.69-.42-1.31-.81-1.84-.39-.53-.92-.96-1.59-1.26-.67-.31-1.51-.46-2.54-.46-1.67,0-3.04.35-4.12,1.05-1.08.7-1.95,1.58-2.63,2.64-.67,1.06-1.2,2.2-1.59,3.44-.38,1.24-.72,2.39-1,3.46h14.05Z"/>
    <path class="st1" d="M591.91,593.02l12.42-58.7h17.73c1.74,0,3.43.13,5.06.38,1.63.25,3.14.66,4.54,1.21,1.4.55,2.64,1.26,3.72,2.14,1.09.87,1.96,1.92,2.63,3.16.66,1.24,1.08,2.67,1.25,4.3s.04,3.47-.39,5.51c-.56,2.59-1.34,4.82-2.33,6.7-.99,1.88-2.17,3.48-3.54,4.8-1.37,1.32-2.91,2.39-4.62,3.2-1.71.81-3.58,1.45-5.59,1.91-2.01.46-4.16.77-6.45.94-2.29.17-4.67.26-7.17.28h-3.46l-5.06,24.17h-8.74ZM607.31,561.5h6.24c2.21-.02,4.22-.14,6.03-.36,1.81-.22,3.4-.69,4.78-1.41,1.38-.71,2.53-1.75,3.46-3.1.93-1.36,1.62-3.19,2.07-5.49.43-2.04.43-3.68,0-4.93-.43-1.25-1.19-2.21-2.29-2.88-1.1-.67-2.47-1.11-4.12-1.31-1.65-.2-3.47-.27-5.45-.21h-6.55l-4.16,19.7Z"/>
    <path class="st1" d="M661.87,554.25c.97-1.07,1.99-1.95,3.05-2.64,1.06-.69,2.19-1.23,3.4-1.6s2.51-.61,3.92-.69c1.41-.08,2.94-.05,4.61.1l-1.63,7.7c-2.04-.34-3.95-.35-5.73-.04-1.78.31-3.37.9-4.76,1.77-1.4.87-2.57,1.99-3.51,3.36-.95,1.37-1.61,2.93-1.98,4.69l-5.54,26.13h-8.4l9.22-43.5h8.4l-1.04,4.72Z"/>
    <path class="st1" d="M705.84,548.82c3.05,0,5.59.48,7.6,1.45,2.01.96,3.54,2.36,4.59,4.2,1.05,1.84,1.63,4.1,1.76,6.79.12,2.69-.19,5.76-.94,9.2-.86,4.08-2.01,7.6-3.46,10.55-1.44,2.95-3.13,5.38-5.06,7.28-1.93,1.9-4.08,3.3-6.45,4.2-2.37.9-4.9,1.35-7.6,1.35s-4.95-.44-6.93-1.32c-1.98-.88-3.53-2.26-4.66-4.15-1.13-1.88-1.81-4.3-2.04-7.26-.22-2.96.09-6.51.96-10.65.73-3.43,1.74-6.48,3.03-9.16,1.29-2.68,2.87-4.94,4.72-6.79,1.85-1.85,3.99-3.25,6.41-4.23,2.42-.97,5.1-1.46,8.06-1.46ZM697.77,586.81c1.78,0,3.34-.37,4.68-1.1,1.34-.73,2.5-1.77,3.48-3.1.98-1.34,1.82-2.95,2.52-4.83.69-1.88,1.28-3.98,1.77-6.28.66-3.02,1.02-5.54,1.1-7.57.07-2.03-.13-3.66-.62-4.89-.49-1.23-1.26-2.1-2.3-2.63-1.05-.52-2.36-.79-3.93-.79s-3,.26-4.27.79c-1.27.52-2.42,1.4-3.44,2.63-1.02,1.23-1.94,2.86-2.75,4.89-.81,2.03-1.55,4.56-2.21,7.57-.49,2.3-.78,4.4-.87,6.28-.09,1.88.07,3.49.51,4.83.43,1.34,1.16,2.37,2.18,3.1,1.02.73,2.41,1.1,4.17,1.1Z"/>
    <path class="st1" d="M762.23,549.53h8.29l-8.18,38.44c-.6,2.85-1.43,5.52-2.49,8.02-1.06,2.5-2.44,4.68-4.14,6.55-1.7,1.86-3.78,3.33-6.24,4.41-2.45,1.08-5.38,1.62-8.77,1.62-1.93,0-3.7-.23-5.31-.69-1.61-.46-2.97-1.17-4.09-2.14-1.11-.97-1.93-2.19-2.46-3.68-.52-1.49-.67-3.27-.45-5.35h8.18c-.06.9.03,1.68.25,2.33.22.66.58,1.2,1.05,1.64.48.44,1.06.77,1.76.98.69.21,1.47.32,2.33.32,1.44,0,2.7-.17,3.77-.51,1.07-.34,1.99-.79,2.77-1.36.78-.57,1.43-1.24,1.97-1.99.53-.76.98-1.56,1.35-2.39s.67-1.68.91-2.54c.24-.86.46-1.69.65-2.47l.22-1.38c-1.67,1.61-3.34,2.76-5.02,3.46-1.68.69-3.46,1.04-5.35,1.04-1.56,0-2.99-.16-4.31-.48-1.32-.32-2.49-.83-3.51-1.54-1.02-.71-1.88-1.65-2.57-2.81-.69-1.16-1.19-2.59-1.49-4.27-.3-1.69-.39-3.66-.27-5.91.12-2.26.49-4.85,1.11-7.77.34-1.52.77-3.12,1.31-4.8.53-1.69,1.2-3.34,2-4.97.8-1.63,1.73-3.19,2.81-4.69,1.08-1.5,2.32-2.81,3.72-3.93,1.41-1.12,2.99-2.02,4.75-2.7,1.76-.67,3.73-1.01,5.9-1.01.9,0,1.77.07,2.6.2.83.13,1.63.35,2.39.65.76.3,1.47.7,2.12,1.19.66.5,1.24,1.12,1.74,1.87l.7-3.32ZM752.45,555.62c-1.31,0-2.48.26-3.51.79-1.03.52-1.95,1.22-2.75,2.09-.81.87-1.5,1.86-2.09,2.96s-1.1,2.23-1.53,3.39c-.43,1.15-.79,2.29-1.07,3.41-.28,1.12-.51,2.13-.67,3.01-.52,2.42-.86,4.59-1.01,6.52-.15,1.93-.07,3.57.24,4.93.31,1.36.88,2.4,1.7,3.12.82.72,1.94,1.08,3.34,1.08,1.5,0,2.82-.26,3.96-.79,1.14-.52,2.15-1.23,3.02-2.11.87-.88,1.62-1.89,2.23-3.02.62-1.13,1.15-2.32,1.59-3.55.44-1.24.81-2.47,1.1-3.69.29-1.23.54-2.37.74-3.42.28-1.27.5-2.52.66-3.75.16-1.23.22-2.39.2-3.48-.03-1.1-.16-2.1-.39-3.02-.23-.92-.59-1.7-1.08-2.36-.49-.66-1.11-1.17-1.88-1.54-.77-.37-1.7-.56-2.78-.56Z"/>
    <path class="st1" d="M796.27,554.25c.97-1.07,1.99-1.95,3.05-2.64,1.06-.69,2.19-1.23,3.4-1.6,1.21-.37,2.51-.61,3.92-.69,1.41-.08,2.94-.05,4.61.1l-1.63,7.7c-2.04-.34-3.95-.35-5.73-.04-1.78.31-3.37.9-4.76,1.77-1.4.87-2.57,1.99-3.51,3.36-.95,1.37-1.61,2.93-1.98,4.69l-5.54,26.13h-8.4l9.22-43.5h8.4l-1.04,4.72Z"/>
    <path class="st1" d="M845.52,592.57c-.86.22-1.64.39-2.33.51-.69.11-1.44.17-2.25.17-.69,0-1.36-.07-2-.21-.64-.14-1.2-.38-1.7-.73-.5-.35-.91-.81-1.24-1.39-.33-.58-.53-1.3-.6-2.16-.71.73-1.51,1.41-2.4,2.02-.89.62-1.82,1.15-2.78,1.6-.96.45-1.94.81-2.94,1.07-.99.26-1.97.39-2.92.39-2.42,0-4.38-.3-5.9-.9-1.52-.6-2.67-1.47-3.44-2.6-.78-1.13-1.21-2.51-1.31-4.13-.09-1.62.07-3.45.51-5.49.07-.3.19-.72.35-1.26s.38-1.15.67-1.81c.29-.66.67-1.37,1.14-2.11.47-.74,1.04-1.47,1.73-2.18.68-.71,1.5-1.39,2.44-2.02.95-.64,2.06-1.19,3.33-1.66,2.08-.71,4.03-1.39,5.84-2.02,1.82-.64,3.4-1.19,4.75-1.66,1.57-.54,3.03-1.05,4.38-1.52.26-.13.48-.28.65-.46.17-.18.31-.39.42-.63.11-.24.21-.53.28-.87.07-.34.16-.75.25-1.24.22-1.03.3-1.91.21-2.63-.08-.72-.34-1.31-.77-1.76-.43-.45-1.04-.77-1.83-.97-.79-.2-1.75-.3-2.89-.3-1.29,0-2.37.16-3.25.46-.87.31-1.59.77-2.16,1.39-.57.62-1.03,1.38-1.36,2.28-.34.9-.62,1.94-.84,3.12l-7.59-.34c.47-2.47,1.18-4.58,2.15-6.32.96-1.74,2.18-3.16,3.65-4.26,1.47-1.1,3.2-1.89,5.18-2.39,1.99-.5,4.23-.74,6.74-.74,1.82,0,3.36.16,4.64.49,1.27.33,2.34.76,3.2,1.29.86.53,1.54,1.15,2.02,1.84.49.69.85,1.41,1.08,2.14.23.73.37,1.46.39,2.18.03.72.01,1.38-.04,1.97-.06.59-.13,1.09-.21,1.5-.08.41-.14.67-.15.79l-5.06,23.38c-.04.21-.07.42-.1.63-.03.22-.04.42-.04.62s.04.37.11.52c.07.15.2.25.37.31.3.11.68.15,1.15.11.47-.04,1.09-.12,1.85-.25l-1.41,6.24ZM837.94,570.68c-.54.22-1.13.46-1.76.7-.63.24-1.35.52-2.16.81-.81.3-1.75.64-2.8,1.01-1.05.37-2.27.81-3.65,1.29-.66.26-1.25.62-1.78,1.08s-1,.98-1.39,1.56c-.39.58-.72,1.2-.98,1.85-.26.66-.45,1.3-.56,1.94-.21.9-.3,1.71-.28,2.43.02.72.19,1.34.51,1.84.32.51.82.9,1.5,1.18.68.28,1.61.42,2.77.42.54,0,1.25-.1,2.11-.31.86-.21,1.73-.59,2.61-1.14.88-.55,1.7-1.32,2.44-2.29.75-.97,1.28-2.22,1.6-3.74l1.83-8.65Z"/>
    <path class="st1" d="M868.19,593.02h-8.4l9.22-43.5h8.18l-.93,4.02c1.69-1.39,3.54-2.5,5.56-3.34,2.02-.84,4.08-1.26,6.18-1.26,1.31,0,2.47.13,3.48.39,1.01.26,1.9.64,2.66,1.14.76.5,1.41,1.09,1.97,1.78.55.69,1.03,1.47,1.45,2.33,1.01-.96,2.03-1.78,3.05-2.49,1.02-.7,2.08-1.29,3.19-1.76,1.11-.47,2.27-.82,3.5-1.05,1.23-.23,2.54-.35,3.95-.35,4.08,0,6.93,1.08,8.53,3.23,1.6,2.15,1.94,5.41,1.03,9.78l-6.55,31.08h-8.4l6.55-31.08c.21-.97.3-1.84.27-2.61-.03-.77-.22-1.42-.58-1.95-.36-.53-.91-.94-1.66-1.22-.75-.28-1.74-.42-2.98-.42-1.27.04-2.47.27-3.58.7-1.11.43-2.12,1.03-3.01,1.8-.89.77-1.65,1.7-2.29,2.8-.64,1.1-1.1,2.32-1.38,3.67l-5.99,28.32h-8.29l6.58-31.08c.21-.92.28-1.76.21-2.51-.07-.76-.3-1.41-.69-1.97-.39-.55-.96-.98-1.69-1.28s-1.66-.45-2.78-.45c-1.33,0-2.56.22-3.68.65-1.12.43-2.13,1.04-3.02,1.81-.89.78-1.64,1.72-2.26,2.82-.62,1.11-1.09,2.33-1.41,3.68l-5.98,28.32Z"/>
    <path class="st1" d="M961.32,593.02l9.19-43.5h8.4l-9.19,43.5h-8.4ZM971.78,543.54l1.97-9.22h8.4l-1.97,9.22h-8.4Z"/>
    <path class="st1" d="M1004.92,553.43c1.85-1.52,3.76-2.66,5.72-3.44,1.96-.78,4.04-1.17,6.25-1.17,1.84,0,3.46.23,4.88.7,1.41.47,2.56,1.17,3.44,2.12.88.95,1.47,2.14,1.76,3.58.29,1.44.23,3.15-.18,5.11l-6.88,32.68h-8.29l6.55-31.19c.21-.92.29-1.76.24-2.52-.05-.76-.25-1.41-.6-1.97s-.89-.98-1.6-1.28c-.71-.3-1.63-.45-2.75-.45-1.39,0-2.67.21-3.86.62-1.19.41-2.25,1.01-3.19,1.79-.94.78-1.73,1.74-2.37,2.88-.65,1.14-1.11,2.44-1.39,3.91l-5.98,28.21h-8.4l9.22-43.5h8.29l-.81,3.9Z"/>
    <path class="st1" d="M1103.9,552.84c.32-1.69.45-3.27.41-4.76-.05-1.49-.36-2.78-.93-3.88-.57-1.1-1.45-1.96-2.64-2.6-1.19-.64-2.78-.96-4.76-.96-1.74,0-3.31.38-4.71,1.14-1.4.76-2.64,1.76-3.74,3.01-1.1,1.25-2.06,2.66-2.88,4.24-.82,1.58-1.54,3.2-2.15,4.85-.61,1.65-1.12,3.26-1.53,4.83s-.75,2.96-1.01,4.16c-.21,1.05-.43,2.19-.66,3.41-.23,1.23-.44,2.49-.62,3.79-.18,1.3-.3,2.6-.38,3.9-.07,1.3-.06,2.56.04,3.77.1,1.21.32,2.33.65,3.37.33,1.04.81,1.95,1.43,2.72.63.78,1.42,1.39,2.37,1.83.96.44,2.13.66,3.51.66,2.15,0,4.01-.43,5.58-1.29,1.56-.86,2.89-2.02,3.99-3.48,1.1-1.46,1.98-3.15,2.66-5.07.67-1.92,1.2-3.93,1.57-6.03h8.63c-.36,2.1-.87,4.13-1.53,6.11-.67,1.98-1.48,3.83-2.44,5.56-.96,1.73-2.09,3.33-3.39,4.78-1.29,1.45-2.75,2.7-4.37,3.74-1.62,1.04-3.4,1.85-5.35,2.43-1.95.58-4.07.87-6.38.87-3.33,0-6.07-.44-8.22-1.32-2.15-.88-3.83-2.08-5.06-3.61-1.23-1.53-2.06-3.3-2.5-5.32-.44-2.02-.63-4.18-.58-6.48.06-2.29.29-4.66.7-7.09.41-2.44.87-4.81,1.38-7.14.45-2.21,1.01-4.48,1.69-6.81.67-2.33,1.5-4.6,2.49-6.8.98-2.2,2.16-4.28,3.53-6.25,1.37-1.97,2.98-3.69,4.85-5.16,1.86-1.47,4-2.64,6.41-3.5,2.41-.86,5.15-1.29,8.22-1.29s5.68.5,7.81,1.5c2.14,1,3.8,2.39,4.99,4.15,1.19,1.76,1.92,3.84,2.18,6.24.26,2.4.07,4.99-.59,7.78h-8.65Z"/>
    <path class="st1" d="M1145.23,548.82c3.05,0,5.59.48,7.6,1.45,2.01.96,3.54,2.36,4.59,4.2,1.05,1.84,1.63,4.1,1.76,6.79.12,2.69-.19,5.76-.94,9.2-.86,4.08-2.01,7.6-3.46,10.55-1.44,2.95-3.13,5.38-5.06,7.28-1.93,1.9-4.08,3.3-6.45,4.2-2.37.9-4.9,1.35-7.6,1.35s-4.95-.44-6.93-1.32c-1.98-.88-3.53-2.26-4.66-4.15s-1.81-4.3-2.04-7.26c-.22-2.96.09-6.51.96-10.65.73-3.43,1.74-6.48,3.03-9.16,1.29-2.68,2.87-4.94,4.72-6.79,1.85-1.85,3.99-3.25,6.41-4.23,2.42-.97,5.1-1.46,8.06-1.46ZM1137.16,586.81c1.78,0,3.34-.37,4.68-1.1,1.34-.73,2.5-1.77,3.48-3.1.98-1.34,1.82-2.95,2.52-4.83.69-1.88,1.28-3.98,1.77-6.28.66-3.02,1.02-5.54,1.1-7.57.07-2.03-.13-3.66-.62-4.89-.49-1.23-1.26-2.1-2.3-2.63-1.05-.52-2.36-.79-3.93-.79s-3,.26-4.27.79c-1.27.52-2.42,1.4-3.44,2.63-1.02,1.23-1.94,2.86-2.75,4.89-.81,2.03-1.55,4.56-2.21,7.57-.49,2.3-.78,4.4-.87,6.28s.07,3.49.51,4.83c.43,1.34,1.16,2.37,2.18,3.1,1.02.73,2.41,1.1,4.17,1.1Z"/>
    <path class="st1" d="M1177.79,593.02h-8.4l9.22-43.5h8.18l-.93,4.02c1.69-1.39,3.54-2.5,5.56-3.34,2.02-.84,4.08-1.26,6.18-1.26,1.31,0,2.47.13,3.48.39,1.01.26,1.9.64,2.66,1.14.76.5,1.41,1.09,1.97,1.78.55.69,1.03,1.47,1.45,2.33,1.01-.96,2.03-1.78,3.05-2.49,1.02-.7,2.08-1.29,3.19-1.76,1.11-.47,2.27-.82,3.5-1.05,1.23-.23,2.54-.35,3.95-.35,4.08,0,6.93,1.08,8.53,3.23,1.6,2.15,1.94,5.41,1.03,9.78l-6.55,31.08h-8.4l6.55-31.08c.21-.97.3-1.84.27-2.61-.03-.77-.22-1.42-.58-1.95-.36-.53-.91-.94-1.66-1.22-.75-.28-1.74-.42-2.98-.42-1.27.04-2.47.27-3.58.7-1.11.43-2.12,1.03-3.01,1.8-.89.77-1.65,1.7-2.29,2.8-.64,1.1-1.1,2.32-1.38,3.67l-5.99,28.32h-8.29l6.58-31.08c.21-.92.28-1.76.21-2.51-.07-.76-.3-1.41-.69-1.97-.39-.55-.96-.98-1.69-1.28s-1.66-.45-2.78-.45c-1.33,0-2.56.22-3.68.65-1.12.43-2.13,1.04-3.02,1.81-.89.78-1.64,1.72-2.26,2.82-.62,1.11-1.09,2.33-1.41,3.68l-5.98,28.32Z"/>
    <path class="st1" d="M1250.08,593.02h-8.4l9.22-43.5h8.18l-.93,4.02c1.69-1.39,3.54-2.5,5.56-3.34,2.02-.84,4.08-1.26,6.18-1.26,1.31,0,2.47.13,3.48.39,1.01.26,1.9.64,2.66,1.14.76.5,1.41,1.09,1.97,1.78.55.69,1.03,1.47,1.45,2.33,1.01-.96,2.03-1.78,3.05-2.49,1.02-.7,2.08-1.29,3.19-1.76,1.11-.47,2.27-.82,3.5-1.05,1.23-.23,2.54-.35,3.95-.35,4.08,0,6.93,1.08,8.53,3.23,1.6,2.15,1.94,5.41,1.03,9.78l-6.55,31.08h-8.4l6.55-31.08c.21-.97.3-1.84.27-2.61-.03-.77-.22-1.42-.58-1.95-.36-.53-.91-.94-1.66-1.22-.75-.28-1.74-.42-2.98-.42-1.27.04-2.47.27-3.58.7-1.11.43-2.12,1.03-3.01,1.8-.89.77-1.65,1.7-2.29,2.8-.64,1.1-1.1,2.32-1.38,3.67l-5.99,28.32h-8.29l6.58-31.08c.21-.92.28-1.76.21-2.51-.07-.76-.3-1.41-.69-1.97-.39-.55-.96-.98-1.69-1.28s-1.66-.45-2.78-.45c-1.33,0-2.56.22-3.68.65-1.12.43-2.13,1.04-3.02,1.81-.89.78-1.64,1.72-2.26,2.82-.62,1.11-1.09,2.33-1.41,3.68l-5.98,28.32Z"/>
    <path class="st1" d="M1345.63,577.48c-.47,2.45-1.22,4.68-2.26,6.69-1.04,2-2.35,3.72-3.92,5.16-1.57,1.43-3.4,2.54-5.49,3.33-2.09.79-4.42,1.18-6.98,1.18-2.34,0-4.4-.36-6.17-1.08-1.77-.72-3.17-1.94-4.19-3.67-1.02-1.72-1.62-4.01-1.78-6.87-.17-2.86.2-6.43,1.1-10.72.75-3.45,1.68-6.56,2.8-9.34,1.11-2.78,2.5-5.15,4.14-7.11,1.65-1.96,3.6-3.47,5.86-4.52,2.26-1.06,4.89-1.59,7.91-1.59,2.53,0,4.58.36,6.17,1.08,1.58.72,2.8,1.69,3.65,2.91.85,1.22,1.41,2.63,1.69,4.24.27,1.61.37,3.31.28,5.09-.08,1.78-.29,3.59-.6,5.44-.32,1.85-.63,3.61-.93,5.3h-22.68c-.15.86-.31,1.8-.48,2.82-.17,1.02-.29,2.04-.35,3.06-.07,1.02-.05,2.01.06,2.96.1.96.35,1.8.74,2.54.39.74.96,1.33,1.7,1.77.74.44,1.72.66,2.94.66,1.37,0,2.57-.28,3.61-.83,1.04-.55,1.92-1.27,2.63-2.15.71-.88,1.26-1.88,1.66-2.99.39-1.11.64-2.23.73-3.36h8.18ZM1339.76,566.33c.11-.77.22-1.56.31-2.39.09-.82.14-1.63.14-2.42s-.07-1.53-.22-2.22c-.15-.69-.42-1.31-.81-1.84-.39-.53-.92-.96-1.59-1.26-.67-.31-1.51-.46-2.54-.46-1.67,0-3.04.35-4.12,1.05-1.08.7-1.95,1.58-2.63,2.64-.67,1.06-1.2,2.2-1.59,3.44-.38,1.24-.72,2.39-1,3.46h14.05Z"/>
    <path class="st1" d="M1375.41,554.25c.97-1.07,1.99-1.95,3.05-2.64,1.06-.69,2.19-1.23,3.4-1.6,1.21-.37,2.51-.61,3.92-.69,1.41-.08,2.94-.05,4.61.1l-1.63,7.7c-2.04-.34-3.95-.35-5.73-.04-1.78.31-3.37.9-4.76,1.77-1.4.87-2.57,1.99-3.51,3.36-.95,1.37-1.61,2.93-1.98,4.69l-5.54,26.13h-8.4l9.22-43.5h8.4l-1.04,4.72Z"/>
    <path class="st1" d="M1416.85,555.62c-1.46,0-2.74.3-3.85.9-1.11.6-2.07,1.39-2.91,2.36-.83.97-1.55,2.08-2.14,3.32-.59,1.24-1.1,2.5-1.52,3.79-.42,1.29-.77,2.55-1.05,3.77-.28,1.22-.52,2.29-.73,3.23-.17.88-.34,1.84-.51,2.87-.17,1.03-.27,2.06-.31,3.08-.04,1.02.02,2.01.17,2.96.15.96.45,1.79.9,2.52s1.08,1.3,1.88,1.74,1.85.66,3.15.66c1.52,0,2.79-.28,3.81-.84,1.02-.56,1.88-1.31,2.57-2.23.69-.93,1.25-2,1.69-3.2.43-1.21.81-2.46,1.15-3.75h7.92c-.58,2.25-1.36,4.4-2.33,6.46-.97,2.06-2.19,3.87-3.65,5.44-1.46,1.56-3.2,2.82-5.21,3.75-2.01.94-4.34,1.41-6.98,1.41-2.47,0-4.56-.28-6.25-.84-1.7-.56-3.07-1.34-4.13-2.35-1.06-1-1.84-2.19-2.35-3.57-.51-1.38-.81-2.88-.91-4.51-.1-1.63-.05-3.35.17-5.17.22-1.82.53-3.67.94-5.56.37-1.78.83-3.59,1.36-5.42.53-1.84,1.2-3.61,2.01-5.31.81-1.7,1.76-3.3,2.87-4.79,1.11-1.49,2.41-2.79,3.91-3.91,1.5-1.11,3.21-1.99,5.14-2.63,1.93-.64,4.12-.96,6.58-.96s4.48.4,6.14,1.19c1.66.8,2.94,1.89,3.85,3.27.91,1.39,1.47,3.01,1.67,4.86.21,1.85.07,3.85-.39,5.98h-7.81c.21-1.09.32-2.14.34-3.17.02-1.03-.14-1.94-.46-2.73-.33-.79-.87-1.42-1.62-1.9-.75-.48-1.78-.72-3.09-.72Z"/>
    <path class="st1" d="M1470.59,577.48c-.47,2.45-1.22,4.68-2.26,6.69-1.04,2-2.35,3.72-3.92,5.16-1.57,1.43-3.4,2.54-5.49,3.33-2.09.79-4.42,1.18-6.98,1.18-2.34,0-4.4-.36-6.17-1.08-1.77-.72-3.17-1.94-4.19-3.67-1.02-1.72-1.62-4.01-1.78-6.87-.17-2.86.2-6.43,1.1-10.72.75-3.45,1.68-6.56,2.8-9.34,1.11-2.78,2.5-5.15,4.14-7.11,1.65-1.96,3.6-3.47,5.86-4.52,2.26-1.06,4.89-1.59,7.91-1.59,2.53,0,4.58.36,6.17,1.08,1.58.72,2.8,1.69,3.65,2.91.85,1.22,1.41,2.63,1.69,4.24.27,1.61.37,3.31.28,5.09-.08,1.78-.29,3.59-.6,5.44-.32,1.85-.63,3.61-.93,5.3h-22.68c-.15.86-.31,1.8-.48,2.82s-.29,2.04-.35,3.06c-.07,1.02-.05,2.01.06,2.96.1.96.35,1.8.74,2.54.39.74.96,1.33,1.7,1.77.74.44,1.72.66,2.94.66,1.37,0,2.57-.28,3.61-.83s1.92-1.27,2.63-2.15c.71-.88,1.26-1.88,1.66-2.99s.64-2.23.73-3.36h8.18ZM1464.72,566.33c.11-.77.22-1.56.31-2.39.09-.82.14-1.63.14-2.42s-.07-1.53-.22-2.22c-.15-.69-.42-1.31-.81-1.84-.39-.53-.92-.96-1.59-1.26-.67-.31-1.51-.46-2.54-.46-1.67,0-3.04.35-4.12,1.05-1.08.7-1.95,1.58-2.63,2.64-.67,1.06-1.2,2.2-1.59,3.44-.38,1.24-.72,2.39-1,3.46h14.05Z"/>
    <path class="st1" d="M1542.37,592.57c-.86.22-1.64.39-2.33.51-.69.11-1.44.17-2.25.17-.69,0-1.36-.07-2-.21-.64-.14-1.2-.38-1.7-.73-.5-.35-.91-.81-1.24-1.39-.33-.58-.53-1.3-.6-2.16-.71.73-1.51,1.41-2.4,2.02-.89.62-1.82,1.15-2.78,1.6-.96.45-1.94.81-2.94,1.07-.99.26-1.97.39-2.92.39-2.42,0-4.38-.3-5.9-.9-1.52-.6-2.66-1.47-3.44-2.6-.78-1.13-1.21-2.51-1.31-4.13-.09-1.62.07-3.45.51-5.49.07-.3.19-.72.35-1.26.16-.54.38-1.15.67-1.81.29-.66.67-1.37,1.14-2.11.47-.74,1.04-1.47,1.73-2.18.68-.71,1.5-1.39,2.44-2.02.95-.64,2.06-1.19,3.33-1.66,2.08-.71,4.03-1.39,5.84-2.02,1.82-.64,3.4-1.19,4.75-1.66,1.57-.54,3.04-1.05,4.38-1.52.26-.13.48-.28.65-.46.17-.18.31-.39.42-.63.11-.24.21-.53.28-.87.07-.34.16-.75.25-1.24.22-1.03.29-1.91.21-2.63s-.34-1.31-.77-1.76c-.43-.45-1.04-.77-1.83-.97-.79-.2-1.75-.3-2.89-.3-1.29,0-2.37.16-3.25.46-.87.31-1.59.77-2.16,1.39-.57.62-1.03,1.38-1.36,2.28-.34.9-.62,1.94-.84,3.12l-7.59-.34c.47-2.47,1.18-4.58,2.15-6.32.96-1.74,2.18-3.16,3.65-4.26,1.47-1.1,3.2-1.89,5.18-2.39,1.99-.5,4.23-.74,6.74-.74,1.82,0,3.36.16,4.64.49,1.27.33,2.34.76,3.2,1.29.86.53,1.54,1.15,2.02,1.84.49.69.85,1.41,1.08,2.14.23.73.37,1.46.39,2.18.03.72.01,1.38-.04,1.97-.06.59-.13,1.09-.21,1.5-.08.41-.14.67-.15.79l-5.06,23.38c-.04.21-.07.42-.1.63-.03.22-.04.42-.04.62s.04.37.11.52c.07.15.2.25.37.31.3.11.68.15,1.15.11.47-.04,1.09-.12,1.85-.25l-1.41,6.24ZM1534.78,570.68c-.54.22-1.13.46-1.76.7-.63.24-1.35.52-2.16.81-.81.3-1.75.64-2.8,1.01-1.05.37-2.27.81-3.65,1.29-.66.26-1.25.62-1.78,1.08s-1,.98-1.39,1.56c-.39.58-.72,1.2-.98,1.85-.26.66-.45,1.3-.56,1.94-.21.9-.3,1.71-.28,2.43.02.72.19,1.34.51,1.84.32.51.82.9,1.5,1.18.68.28,1.61.42,2.77.42.54,0,1.25-.1,2.11-.31.86-.21,1.73-.59,2.61-1.14.88-.55,1.7-1.32,2.44-2.29.75-.97,1.28-2.22,1.6-3.74l1.83-8.65Z"/>
    <path class="st1" d="M1573.33,553.43c1.85-1.52,3.76-2.66,5.72-3.44,1.96-.78,4.04-1.17,6.25-1.17,1.84,0,3.46.23,4.88.7,1.41.47,2.56,1.17,3.44,2.12.88.95,1.47,2.14,1.76,3.58.29,1.44.23,3.15-.18,5.11l-6.88,32.68h-8.29l6.55-31.19c.21-.92.28-1.76.24-2.52-.05-.76-.25-1.41-.6-1.97-.36-.55-.89-.98-1.6-1.28-.71-.3-1.63-.45-2.75-.45-1.39,0-2.67.21-3.86.62-1.19.41-2.25,1.01-3.19,1.79-.94.78-1.73,1.74-2.37,2.88-.65,1.14-1.11,2.44-1.39,3.91l-5.99,28.21h-8.4l9.22-43.5h8.29l-.81,3.9Z"/>
    <path class="st1" d="M1630.19,589.23c-.96.92-1.89,1.67-2.8,2.25-.91.58-1.82,1.04-2.73,1.38-.91.34-1.82.57-2.73.69-.91.12-1.84.18-2.8.18-2.14,0-3.92-.33-5.35-1-1.43-.67-2.59-1.57-3.47-2.73-.88-1.15-1.51-2.5-1.9-4.05-.38-1.54-.6-3.2-.63-4.97-.04-1.77.06-3.6.29-5.49.23-1.89.55-3.76.94-5.59.36-1.72.81-3.44,1.36-5.16s1.22-3.35,2.01-4.92c.79-1.56,1.7-3.02,2.75-4.36,1.05-1.34,2.25-2.5,3.6-3.48,1.35-.98,2.85-1.75,4.51-2.32,1.66-.56,3.51-.84,5.55-.84.9,0,1.76.07,2.57.21.81.14,1.58.37,2.29.7.71.33,1.37.75,1.97,1.28.6.52,1.12,1.18,1.57,1.97l4.02-18.66h8.4l-12.42,58.7h-7.81l.79-3.79ZM1633.54,572.2c.21-.97.44-2.07.69-3.27.25-1.21.44-2.43.58-3.67.13-1.24.16-2.44.08-3.61-.07-1.17-.32-2.21-.73-3.12-.41-.91-1.04-1.64-1.9-2.19s-2-.83-3.44-.83c-1.27,0-2.41.25-3.4.74-.99.5-1.87,1.16-2.64,1.98-.77.82-1.44,1.76-2.01,2.81-.57,1.05-1.06,2.13-1.48,3.23-.41,1.11-.76,2.2-1.04,3.27-.28,1.08-.52,2.05-.7,2.91-.58,2.68-.96,5.03-1.14,7.07-.18,2.03-.1,3.74.22,5.11s.93,2.42,1.8,3.12c.87.7,2.07,1.05,3.58,1.05,1.41,0,2.63-.22,3.68-.67,1.05-.45,1.97-1.05,2.75-1.81.79-.76,1.46-1.63,2.01-2.63.55-.99,1.02-2.03,1.41-3.1.38-1.08.71-2.17.97-3.27.26-1.11.5-2.14.7-3.12Z"/>
    <path class="st1" d="M1691.88,534.32h40.04l-1.6,7.48h-15.65l-10.82,51.22h-8.63l10.82-51.22h-15.76l1.6-7.48Z"/>
    <path class="st1" d="M1749.87,554.25c.97-1.07,1.99-1.95,3.05-2.64,1.06-.69,2.19-1.23,3.4-1.6,1.21-.37,2.51-.61,3.92-.69,1.41-.08,2.94-.05,4.61.1l-1.63,7.7c-2.04-.34-3.95-.35-5.73-.04-1.78.31-3.37.9-4.76,1.77-1.4.87-2.57,1.99-3.51,3.36-.95,1.37-1.61,2.93-1.98,4.69l-5.54,26.13h-8.4l9.22-43.5h8.4l-1.04,4.72Z"/>
    <path class="st1" d="M1799.12,592.57c-.86.22-1.64.39-2.33.51-.69.11-1.44.17-2.25.17-.69,0-1.36-.07-2-.21-.64-.14-1.2-.38-1.7-.73-.5-.35-.91-.81-1.24-1.39-.33-.58-.53-1.3-.6-2.16-.71.73-1.51,1.41-2.4,2.02-.89.62-1.82,1.15-2.78,1.6-.96.45-1.94.81-2.94,1.07-.99.26-1.97.39-2.92.39-2.42,0-4.38-.3-5.9-.9-1.52-.6-2.66-1.47-3.44-2.6-.78-1.13-1.21-2.51-1.31-4.13-.09-1.62.07-3.45.51-5.49.07-.3.19-.72.35-1.26.16-.54.38-1.15.67-1.81.29-.66.67-1.37,1.14-2.11.47-.74,1.04-1.47,1.73-2.18.68-.71,1.5-1.39,2.44-2.02.95-.64,2.06-1.19,3.33-1.66,2.08-.71,4.03-1.39,5.84-2.02,1.82-.64,3.4-1.19,4.75-1.66,1.57-.54,3.04-1.05,4.38-1.52.26-.13.48-.28.65-.46.17-.18.31-.39.42-.63.11-.24.21-.53.28-.87.07-.34.16-.75.25-1.24.22-1.03.29-1.91.21-2.63s-.34-1.31-.77-1.76c-.43-.45-1.04-.77-1.83-.97-.79-.2-1.75-.3-2.89-.3-1.29,0-2.37.16-3.25.46-.87.31-1.59.77-2.16,1.39-.57.62-1.03,1.38-1.36,2.28-.34.9-.62,1.94-.84,3.12l-7.59-.34c.47-2.47,1.18-4.58,2.15-6.32.96-1.74,2.18-3.16,3.65-4.26,1.47-1.1,3.2-1.89,5.18-2.39,1.99-.5,4.23-.74,6.74-.74,1.82,0,3.36.16,4.64.49,1.27.33,2.34.76,3.2,1.29.86.53,1.54,1.15,2.02,1.84.49.69.85,1.41,1.08,2.14.23.73.37,1.46.39,2.18.03.72.01,1.38-.04,1.97-.06.59-.13,1.09-.21,1.5-.08.41-.14.67-.15.79l-5.06,23.38c-.04.21-.07.42-.1.63-.03.22-.04.42-.04.62s.04.37.11.52c.07.15.2.25.37.31.3.11.68.15,1.15.11.47-.04,1.09-.12,1.85-.25l-1.41,6.24ZM1791.53,570.68c-.54.22-1.13.46-1.76.7-.63.24-1.35.52-2.16.81-.81.3-1.75.64-2.8,1.01-1.05.37-2.27.81-3.65,1.29-.66.26-1.25.62-1.78,1.08s-1,.98-1.39,1.56c-.39.58-.72,1.2-.98,1.85-.26.66-.45,1.3-.56,1.94-.21.9-.3,1.71-.28,2.43.02.72.19,1.34.51,1.84.32.51.82.9,1.5,1.18.68.28,1.61.42,2.77.42.54,0,1.25-.1,2.11-.31.86-.21,1.73-.59,2.61-1.14.88-.55,1.7-1.32,2.44-2.29.75-.97,1.28-2.22,1.6-3.74l1.83-8.65Z"/>
    <path class="st1" d="M1837.44,589.23c-.96.92-1.89,1.67-2.8,2.25-.91.58-1.82,1.04-2.73,1.38-.91.34-1.82.57-2.73.69-.91.12-1.84.18-2.8.18-2.14,0-3.92-.33-5.35-1-1.43-.67-2.59-1.57-3.47-2.73-.88-1.15-1.51-2.5-1.9-4.05-.38-1.54-.6-3.2-.63-4.97-.04-1.77.06-3.6.29-5.49.23-1.89.55-3.76.94-5.59.36-1.72.81-3.44,1.36-5.16s1.22-3.35,2.01-4.92c.79-1.56,1.7-3.02,2.75-4.36,1.05-1.34,2.25-2.5,3.6-3.48,1.35-.98,2.85-1.75,4.51-2.32,1.66-.56,3.51-.84,5.55-.84.9,0,1.76.07,2.57.21.81.14,1.58.37,2.29.7.71.33,1.37.75,1.97,1.28.6.52,1.12,1.18,1.57,1.97l4.02-18.66h8.4l-12.42,58.7h-7.81l.79-3.79ZM1840.78,572.2c.21-.97.44-2.07.69-3.27.25-1.21.44-2.43.58-3.67.13-1.24.16-2.44.08-3.61-.07-1.17-.32-2.21-.73-3.12-.41-.91-1.04-1.64-1.9-2.19-.85-.55-2-.83-3.44-.83-1.27,0-2.41.25-3.4.74-.99.5-1.87,1.16-2.64,1.98-.77.82-1.44,1.76-2.01,2.81-.57,1.05-1.06,2.13-1.48,3.23-.41,1.11-.76,2.2-1.04,3.27-.28,1.08-.52,2.05-.7,2.91-.58,2.68-.96,5.03-1.14,7.07-.18,2.03-.1,3.74.22,5.11.33,1.38.93,2.42,1.8,3.12.87.7,2.07,1.05,3.58,1.05,1.41,0,2.63-.22,3.68-.67,1.05-.45,1.97-1.05,2.75-1.81.79-.76,1.46-1.63,2.01-2.63.55-.99,1.02-2.03,1.41-3.1.38-1.08.71-2.17.97-3.27.26-1.11.5-2.14.7-3.12Z"/>
    <path class="st1" d="M1894.08,577.48c-.47,2.45-1.22,4.68-2.26,6.69-1.04,2-2.35,3.72-3.92,5.16-1.57,1.43-3.4,2.54-5.49,3.33-2.09.79-4.42,1.18-6.98,1.18-2.34,0-4.4-.36-6.17-1.08-1.77-.72-3.17-1.94-4.19-3.67-1.02-1.72-1.62-4.01-1.78-6.87-.17-2.86.2-6.43,1.1-10.72.75-3.45,1.68-6.56,2.8-9.34,1.11-2.78,2.5-5.15,4.14-7.11,1.65-1.96,3.6-3.47,5.86-4.52,2.26-1.06,4.89-1.59,7.91-1.59,2.53,0,4.58.36,6.17,1.08,1.58.72,2.8,1.69,3.65,2.91.85,1.22,1.41,2.63,1.69,4.24.27,1.61.37,3.31.28,5.09-.08,1.78-.29,3.59-.6,5.44-.32,1.85-.63,3.61-.93,5.3h-22.68c-.15.86-.31,1.8-.48,2.82s-.29,2.04-.35,3.06c-.07,1.02-.05,2.01.06,2.96.1.96.35,1.8.74,2.54.39.74.96,1.33,1.7,1.77s1.72.66,2.94.66c1.37,0,2.57-.28,3.61-.83,1.04-.55,1.92-1.27,2.63-2.15.71-.88,1.26-1.88,1.66-2.99.39-1.11.64-2.23.73-3.36h8.18ZM1888.21,566.33c.11-.77.22-1.56.31-2.39.09-.82.14-1.63.14-2.42s-.08-1.53-.22-2.22c-.15-.69-.42-1.31-.81-1.84-.39-.53-.92-.96-1.59-1.26s-1.51-.46-2.54-.46c-1.67,0-3.04.35-4.12,1.05s-1.95,1.58-2.63,2.64c-.67,1.06-1.2,2.2-1.59,3.44-.38,1.24-.72,2.39-1,3.46h14.05Z"/>
  </g>
</svg>