<svg xmlns="http://www.w3.org/2000/svg" id="Layer_1" viewBox="0 0 735.14 173.11"><defs><style>.cls-1{fill:none;stroke:#fff;stroke-miterlimit:10;stroke-width:1.67px}</style></defs><path d="m12.76 45.35 5.96-27.86H128.9l-5.96 27.86H85.45L62.17 156.01H26.41L49.69 45.35zM246.08 17.5l-5.96 27.86h-69.85l-5.41 26.06h64.72l-5.96 27.3H158.9l-6.24 29.8h70.13l-5.68 27.51H111.5L140.74 17.5h105.33ZM326.66 17.5c7.76 0 14.48.97 20.17 2.91 5.68 1.94 10.25 4.77 13.72 8.49s5.76 8.27 6.89 13.65.98 11.51-.45 18.4c-1.48 6.79-3.93 12.89-7.34 18.29s-7.65 9.98-12.68 13.72-10.81 6.61-17.32 8.59-13.65 2.93-21.41 2.84h-32.92l-10.81 51.62h-32.64l29.24-138.52h65.55Zm-21.55 60.21c7.81.14 13.82-1.1 18.05-3.71s6.92-6.69 8.07-12.23.17-9.67-2.95-12.37-8.58-4.05-16.39-4.05h-24.12l-6.79 32.36h24.12ZM471.15 64.06c.19-3.33-.19-6.33-1.11-9.01-.93-2.68-2.36-4.94-4.3-6.79s-4.38-3.27-7.31-4.26-6.27-1.49-10.01-1.49c-6.51 0-12.29 1.27-17.32 3.81s-9.39 5.9-13.06 10.08-6.7 8.96-9.08 14.34a83.7 83.7 0 0 0-5.37 16.6c-.74 3.6-1.2 7.16-1.39 10.67s-.02 6.85.49 10.01 1.41 6.1 2.7 8.8 3.03 5.05 5.2 7.03c2.17 1.99 4.84 3.53 8 4.64s6.87 1.66 11.12 1.66c8.36 0 15.44-2.4 21.24-7.21s10.27-11.76 13.41-20.86h35.2c-1.76 5.78-4.06 11.18-6.93 16.22s-6.17 9.65-9.91 13.86-7.88 7.96-12.4 11.26-9.31 6.1-14.34 8.38a79.2 79.2 0 0 1-15.76 5.23c-5.47 1.2-11.05 1.8-16.73 1.8-11.5 0-21.3-1.73-29.38-5.2s-14.45-8.34-19.09-14.62-7.57-13.81-8.76-22.59q-1.8-13.17 1.59-29.1c2.26-10.72 5.89-20.56 10.88-29.52s11.18-16.69 18.57-23.18 15.88-11.54 25.47-15.14 20.13-5.41 31.63-5.41c5.08 0 9.96.5 14.62 1.49 4.66 1 9.02 2.45 13.06 4.37s7.67 4.29 10.88 7.1a39.7 39.7 0 0 1 8.07 9.77c2.17 3.7 3.73 7.82 4.68 12.37s1.17 9.51.66 14.86h-35.2ZM503.78 105.78c1.8-8.22 4.7-15.61 8.7-22.18 4-6.56 8.87-12.13 14.62-16.7s12.25-8.08 19.51-10.53c7.25-2.45 15.04-3.67 23.35-3.67s15.89 1.22 22.18 3.67c6.28 2.45 11.3 5.96 15.07 10.53 3.76 4.57 6.23 10.14 7.38 16.7 1.16 6.56.83 13.95-.97 22.18-1.76 8.31-4.64 15.75-8.66 22.31s-8.93 12.11-14.73 16.67c-5.8 4.55-12.34 8.04-19.61 10.46s-15.07 3.64-23.39 3.64-15.58-1.2-21.79-3.6c-6.22-2.4-11.22-5.87-15.04-10.4-3.81-4.53-6.31-10.08-7.48-16.67-1.18-6.58-.89-14.05.87-22.42Zm33.55 0c-.78 3.84-1.16 7.56-1.11 11.16.04 3.6.62 6.81 1.73 9.63s2.83 5.07 5.16 6.76 5.42 2.53 9.25 2.53 7.29-.81 10.36-2.43 5.79-3.8 8.14-6.55c2.36-2.75 4.33-5.95 5.92-9.6s2.81-7.48 3.64-11.5q1.245-5.745 1.35-11.16.105-5.4-1.56-9.63c-1.11-2.82-2.88-5.07-5.3-6.76-2.43-1.69-5.7-2.53-9.8-2.53-3.7 0-7.06.84-10.08 2.53s-5.72 3.94-8.07 6.76c-2.36 2.82-4.34 6.03-5.96 9.63s-2.84 7.32-3.67 11.16Z" class="cls-1"/><path d="m608.99 45.35 5.96-27.86h110.18l-5.96 27.86h-37.49L658.4 156.01h-35.76l23.28-110.66h-36.93Z" class="cls-1"/></svg>