<svg width="670" height="247" viewBox="0 0 670 247" fill="none" xmlns="http://www.w3.org/2000/svg">
<path d="M196.681 191.354L196.214 191.176L196.213 191.179L196.681 191.354ZM177.302 220.902L177.643 221.268L177.643 221.268L177.302 220.902ZM146.078 238.847L146.233 239.322L146.235 239.322L146.078 238.847ZM27.5262 221.74L27.1936 222.113L27.1972 222.116L27.5262 221.74ZM7.42853 192.311L6.963 192.493L7.42853 192.311ZM0.490051 6.64697V6.14697H-0.00994873V6.64697H0.490051ZM51.9305 6.64697H52.4305V6.14697H51.9305V6.64697ZM54.9212 172.453L54.4434 172.6L54.444 172.602L54.9212 172.453ZM64.1326 188.722L63.7662 189.062L63.7695 189.066L64.1326 188.722ZM80.2825 199.01L80.1107 199.48L80.1126 199.48L80.2825 199.01ZM140.695 188.722L140.319 188.393L140.316 188.397L140.695 188.722ZM149.189 172.453L148.708 172.316L148.707 172.32L149.189 172.453ZM151.94 6.64697V6.14697H151.44V6.64697H151.94ZM203.381 6.64697H203.881V6.14697H203.381V6.64697ZM202.881 150.68C202.881 166.025 200.654 179.52 196.214 191.176L197.149 191.532C201.641 179.74 203.881 166.12 203.881 150.68H202.881ZM196.213 191.179C191.852 202.835 185.433 212.618 176.96 220.537L177.643 221.268C186.237 213.236 192.738 203.32 197.15 191.529L196.213 191.179ZM176.96 220.537C168.566 228.377 158.224 234.324 145.922 238.372L146.235 239.322C158.657 235.234 169.13 229.219 177.643 221.268L176.96 220.537ZM145.924 238.371C133.702 242.339 119.719 244.328 103.969 244.328V245.328C119.801 245.328 133.891 243.329 146.233 239.322L145.924 238.371ZM103.969 244.328C87.5779 244.328 72.9928 242.418 60.2081 238.607L59.9224 239.565C72.818 243.41 87.5021 245.328 103.969 245.328V244.328ZM60.2081 238.607C47.427 234.796 36.6467 229.046 27.8552 221.363L27.1972 222.116C36.1107 229.906 47.0231 235.719 59.9224 239.565L60.2081 238.607ZM27.8588 221.366C19.1493 213.607 12.4933 203.865 7.89406 192.129L6.963 192.493C11.615 204.364 18.3575 214.241 27.1936 222.113L27.8588 221.366ZM7.89406 192.129C3.29623 180.396 0.990051 166.584 0.990051 150.68H-0.00994873C-0.00994873 166.678 2.30953 180.619 6.963 192.493L7.89406 192.129ZM0.990051 150.68V6.64697H-0.00994873V150.68H0.990051ZM0.490051 7.14697H51.9305V6.14697H0.490051V7.14697ZM51.4305 6.64697V150.68H52.4305V6.64697H51.4305ZM51.4305 150.68C51.4305 158.776 52.4324 166.084 54.4434 172.6L55.399 172.305C53.4224 165.901 52.4305 158.694 52.4305 150.68H51.4305ZM54.444 172.602C56.4578 179.046 59.5636 184.536 63.7662 189.062L64.499 188.382C60.4074 183.976 57.3722 178.62 55.3984 172.303L54.444 172.602ZM63.7695 189.066C68.0562 193.595 73.5081 197.064 80.1107 199.48L80.4543 198.541C73.9776 196.171 68.6628 192.781 64.4958 188.378L63.7695 189.066ZM80.1126 199.48C86.8002 201.898 94.7562 203.099 103.969 203.099V202.099C94.8388 202.099 87.0038 200.908 80.4525 198.54L80.1126 199.48ZM103.969 203.099C112.547 203.099 119.91 201.897 126.045 199.475L125.678 198.545C119.69 200.909 112.458 202.099 103.969 202.099V203.099ZM126.045 199.475C132.173 197.056 137.188 193.582 141.075 189.048L140.316 188.397C136.546 192.795 131.671 196.179 125.678 198.545L126.045 199.475ZM141.071 189.051C145.034 184.522 147.899 179.03 149.671 172.585L148.707 172.32C146.97 178.636 144.172 183.99 140.319 188.393L141.071 189.051ZM149.67 172.589C151.519 166.077 152.44 158.772 152.44 150.68H151.44C151.44 158.698 150.527 165.908 148.708 172.316L149.67 172.589ZM152.44 150.68V6.64697H151.44V150.68H152.44ZM151.94 7.14697H203.381V6.14697H151.94V7.14697ZM202.881 6.64697V150.68H203.881V6.64697H202.881ZM371.459 7.84326L371.408 8.34063L371.415 8.34126L371.459 7.84326ZM389.164 10.7144L389.046 11.2003L389.054 11.2021L389.164 10.7144ZM403.759 16.2173L404.014 15.7871L404.013 15.7863L403.759 16.2173ZM433.068 83.688L432.591 83.537L432.589 83.5443L433.068 83.688ZM426.967 97.0864L426.545 96.8185L426.544 96.8207L426.967 97.0864ZM417.875 108.212L417.53 107.85L417.526 107.854L417.875 108.212ZM406.75 116.825L406.493 116.396L405.453 117.02L406.63 117.311L406.75 116.825ZM424.455 124.96L424.156 125.361L424.16 125.364L424.455 124.96ZM436.896 138L436.477 138.272L436.48 138.277L436.896 138ZM444.313 154.389L443.831 154.519L443.833 154.527L444.313 154.389ZM441.442 197.814L441.901 198.013L441.902 198.011L441.442 197.814ZM425.532 219.826L425.195 219.456L425.193 219.458L425.532 219.826ZM399.692 235.258L399.867 235.726L399.869 235.725L399.692 235.258ZM247.883 241H247.383V241.5H247.883V241ZM247.883 6.64697V6.14697H247.383V6.64697H247.883ZM362.846 100.316L362.969 100.801L362.976 100.799L362.846 100.316ZM375.048 94.6938L375.353 95.0902L375.359 95.0853L375.048 94.6938ZM381.747 85.8413L381.286 85.6482L381.282 85.6575L381.747 85.8413ZM380.79 60.5996L380.356 60.8466L380.36 60.854L380.79 60.5996ZM372.416 52.4648L372.169 52.8997L372.181 52.906L372.416 52.4648ZM359.855 48.5171L359.781 49.0116L359.79 49.0128L359.855 48.5171ZM299.802 47.4404V46.9404H299.302V47.4404H299.802ZM299.802 102.23H299.302V102.73H299.802V102.23ZM375.048 197.814L374.877 197.344L374.874 197.345L375.048 197.814ZM385.934 191.234L386.283 191.593L386.283 191.593L385.934 191.234ZM392.634 181.186L393.099 181.37L393.1 181.366L392.634 181.186ZM391.318 155.346L390.899 155.619L390.902 155.623L391.318 155.346ZM368.588 141.349L368.476 141.837L368.486 141.838L368.588 141.349ZM299.802 139.674V139.174H299.302V139.674H299.802ZM299.802 200.207H299.302V200.707H299.802V200.207ZM335.69 7.14697C340.951 7.14697 346.691 7.18683 352.91 7.26656L352.923 6.26664C346.701 6.18687 340.956 6.14697 335.69 6.14697V7.14697ZM352.91 7.26656C359.116 7.34612 365.282 7.70414 371.408 8.34058L371.511 7.34594C365.355 6.70634 359.159 6.34659 352.923 6.26664L352.91 7.26656ZM371.415 8.34126C377.613 8.8975 383.49 9.85077 389.046 11.2002L389.282 10.2285C383.674 8.86635 377.747 7.90556 371.504 7.34526L371.415 8.34126ZM389.054 11.2021C394.678 12.4693 399.492 14.2872 403.506 16.6483L404.013 15.7863C399.892 13.3623 394.976 11.5115 389.274 10.2266L389.054 11.2021ZM403.504 16.6474C407.782 19.1824 411.823 22.1537 415.628 25.5619L416.295 24.817C412.443 21.3665 408.349 18.3563 404.014 15.7871L403.504 16.6474ZM415.628 25.5619C419.423 28.9616 422.744 32.8362 425.592 37.1869L426.428 36.6393C423.534 32.2172 420.156 28.276 416.295 24.817L415.628 25.5619ZM425.592 37.1869C428.437 41.5334 430.691 46.317 432.352 51.5398L433.305 51.2366C431.618 45.932 429.326 41.0656 426.428 36.6393L425.592 37.1869ZM432.352 51.5398C434.01 56.7487 434.841 62.4391 434.841 68.6147H435.841C435.841 62.349 434.998 56.555 433.305 51.2366L432.352 51.5398ZM434.841 68.6147C434.841 73.8297 434.091 78.803 432.592 83.537L433.545 83.8389C435.076 79.0026 435.841 73.9271 435.841 68.6147H434.841ZM432.589 83.5443C431.167 88.2864 429.152 92.7107 426.545 96.8185L427.389 97.3543C430.046 93.1679 432.099 88.6599 433.547 83.8317L432.589 83.5443ZM426.544 96.8207C424.014 100.853 421.01 104.529 417.53 107.85L418.221 108.574C421.759 105.196 424.816 101.455 427.391 97.3522L426.544 96.8207ZM417.526 107.854C414.124 111.177 410.446 114.025 406.493 116.396L407.007 117.254C411.029 114.841 414.768 111.946 418.225 108.57L417.526 107.854ZM406.63 117.311C413.352 118.971 419.191 121.657 424.156 125.361L424.754 124.559C419.67 120.767 413.706 118.029 406.87 116.34L406.63 117.311ZM424.16 125.364C429.137 128.998 433.242 133.301 436.477 138.272L437.315 137.727C434.011 132.65 429.821 128.259 424.75 124.556L424.16 125.364ZM436.48 138.277C439.799 143.256 442.25 148.669 443.831 154.519L444.796 154.258C443.187 148.305 440.692 142.792 437.312 137.722L436.48 138.277ZM443.833 154.527C445.495 160.305 446.326 166.12 446.326 171.974H447.326C447.326 166.024 446.481 160.116 444.794 154.25L443.833 154.527ZM446.326 171.974C446.326 180.757 444.546 189.303 440.983 197.617L441.902 198.011C445.517 189.577 447.326 180.896 447.326 171.974H446.326ZM440.983 197.615C437.424 205.841 432.164 213.121 425.195 219.456L425.868 220.196C432.936 213.77 438.283 206.375 441.901 198.013L440.983 197.615ZM425.193 219.458C418.309 225.788 409.753 230.901 399.514 234.79L399.869 235.725C410.207 231.798 418.878 226.624 425.87 220.194L425.193 219.458ZM399.516 234.79C389.375 238.593 377.712 240.5 364.521 240.5V241.5C377.807 241.5 389.592 239.579 399.867 235.726L399.516 234.79ZM364.521 240.5H247.883V241.5H364.521V240.5ZM248.383 241V6.64697H247.383V241H248.383ZM247.883 7.14697H335.69V6.14697H247.883V7.14697ZM344.423 102.73C351.707 102.73 357.892 102.09 362.969 100.801L362.723 99.8318C357.751 101.094 351.654 101.73 344.423 101.73V102.73ZM362.976 100.799C368.044 99.4315 372.177 97.5334 375.353 95.0902L374.743 94.2975C371.699 96.6394 367.696 98.4897 362.716 99.8337L362.976 100.799ZM375.359 95.0853C378.533 92.5628 380.822 89.5423 382.212 86.0251L381.282 85.6575C379.961 88.9991 377.784 91.8803 374.737 94.3024L375.359 95.0853ZM382.209 86.0344C383.673 82.5361 384.401 78.6411 384.401 74.3569H383.401C383.401 78.5266 382.693 82.2878 381.286 85.6482L382.209 86.0344ZM384.401 74.3569C384.401 68.6383 383.354 63.9557 381.221 60.3452L380.36 60.854C382.374 64.2617 383.401 68.7507 383.401 74.3569H384.401ZM381.225 60.3526C379.184 56.7605 376.323 53.9819 372.652 52.0237L372.181 52.906C375.687 54.7759 378.409 57.4205 380.356 60.8466L381.225 60.3526ZM372.663 52.0301C369.087 49.9983 364.836 48.666 359.92 48.0213L359.79 49.0128C364.605 49.6442 368.727 50.9437 372.169 52.8996L372.663 52.0301ZM359.929 48.0226C355.117 47.3007 349.948 46.9404 344.423 46.9404V47.9404C349.905 47.9404 355.024 48.2979 359.781 49.0116L359.929 48.0226ZM344.423 46.9404H299.802V47.9404H344.423V46.9404ZM299.302 47.4404V102.23H300.302V47.4404H299.302ZM299.802 102.73H344.423V101.73H299.802V102.73ZM360.095 200.707C365.803 200.707 370.848 199.903 375.222 198.283L374.874 197.345C370.635 198.915 365.711 199.707 360.095 199.707V200.707ZM375.219 198.284C379.661 196.669 383.353 194.441 386.283 191.593L385.586 190.876C382.773 193.61 379.208 195.769 374.877 197.344L375.219 198.284ZM386.283 191.593C389.285 188.672 391.557 185.263 393.099 181.37L392.169 181.002C390.679 184.764 388.486 188.054 385.586 190.876L386.283 191.593ZM393.1 181.366C394.639 177.396 395.407 173.107 395.407 168.505H394.407C394.407 172.994 393.659 177.159 392.167 181.005L393.1 181.366ZM395.407 168.505C395.407 163.242 394.191 158.755 391.734 155.068L390.902 155.623C393.229 159.114 394.407 163.399 394.407 168.505H395.407ZM391.736 155.073C389.3 151.337 386.093 148.294 382.122 145.943L381.612 146.804C385.457 149.079 388.55 152.017 390.899 155.619L391.736 155.073ZM382.122 145.943C378.162 143.6 373.683 141.907 368.691 140.86L368.486 141.838C373.383 142.865 377.757 144.522 381.612 146.804L382.122 145.943ZM368.7 140.862C363.798 139.737 358.816 139.174 353.754 139.174V140.174C358.741 140.174 363.648 140.728 368.476 141.836L368.7 140.862ZM353.754 139.174H299.802V140.174H353.754V139.174ZM299.302 139.674V200.207H300.302V139.674H299.302ZM299.802 200.707H360.095V199.707H299.802V200.707ZM519.56 159.174H520.06V158.674H519.56V159.174ZM523.627 179.511L523.174 179.722L523.176 179.727L523.627 179.511ZM551.262 202.599L551.114 203.077L551.116 203.078L551.262 202.599ZM586.313 204.274L586.241 203.779L586.24 203.779L586.313 204.274ZM613.349 190.875L612.965 190.555L612.961 190.56L613.349 190.875ZM615.383 165.514L614.955 165.773L614.958 165.778L615.383 165.514ZM607.726 157.738L607.44 158.148L607.445 158.152L607.451 158.156L607.726 157.738ZM596.242 152.116L596.079 152.588L596.081 152.589L596.242 152.116ZM581.887 147.929L581.76 148.412L581.767 148.414L581.887 147.929ZM565.497 144.101L565.394 144.59L565.395 144.59L565.497 144.101ZM548.271 140.033L548.141 140.516L548.145 140.517L548.271 140.033ZM522.431 131.54L522.244 132.003L522.248 132.005L522.431 131.54ZM500.419 118.739L500.102 119.125L500.104 119.127L500.419 118.739ZM485.226 99.7183L484.778 99.94L484.781 99.9457L485.226 99.7183ZM507.956 18.4902L508.24 18.9017L508.241 18.9009L507.956 18.4902ZM526.498 8.68066L526.678 9.14722L526.683 9.14529L526.498 8.68066ZM547.194 2.81885L547.108 2.3264L547.107 2.32657L547.194 2.81885ZM634.045 19.5669L633.744 19.966L633.748 19.9691L634.045 19.5669ZM661.918 78.7832V79.2832H662.418V78.7832H661.918ZM610.956 78.7832L610.457 78.8112L610.484 79.2832H610.956V78.7832ZM607.009 61.0781L606.556 61.2896L606.557 61.2925L607.009 61.0781ZM584.399 43.4927L584.511 43.0055L584.399 43.4927ZM554.252 43.1338L554.352 43.6238L554.359 43.6223L554.252 43.1338ZM533.078 79.1421L532.643 79.3889L532.646 79.394L533.078 79.1421ZM543.007 87.1572L542.784 87.6044L542.786 87.6059L543.007 87.1572ZM600.429 104.503L600.305 104.988L600.311 104.989L600.429 104.503ZM626.03 111.92L625.845 112.385L625.848 112.386L626.03 111.92ZM641.342 119.577L641.082 120.004L641.085 120.005L641.342 119.577ZM655.219 131.3L654.841 131.627L654.844 131.631L655.219 131.3ZM665.268 148.288L664.801 148.467L664.802 148.469L665.268 148.288ZM662.636 201.522L663.089 201.735L663.089 201.733L662.636 201.522ZM643.495 225.329L643.185 224.937L643.183 224.938L643.495 225.329ZM612.272 241L612.128 240.521L612.125 240.522L612.272 241ZM531.044 241.12L531.191 240.642L531.188 240.641L531.044 241.12ZM498.744 224.611L498.434 225.003L498.435 225.004L498.744 224.611ZM476.613 197.216L476.165 197.438L476.167 197.441L476.613 197.216ZM468.598 159.174V158.674H468.101L468.098 159.171L468.598 159.174ZM519.06 159.174C519.06 166.968 520.426 173.822 523.174 179.722L524.081 179.3C521.405 173.556 520.06 166.852 520.06 159.174H519.06ZM523.176 179.727C525.998 185.611 529.791 190.496 534.557 194.374L535.188 193.598C530.543 189.819 526.84 185.054 524.078 179.295L523.176 179.727ZM534.557 194.374C539.316 198.245 544.837 201.145 551.114 203.077L551.409 202.121C545.245 200.225 539.84 197.383 535.188 193.598L534.557 194.374ZM551.116 203.078C557.466 205.007 564.135 205.97 571.12 205.97V204.97C564.228 204.97 557.658 204.02 551.407 202.121L551.116 203.078ZM571.12 205.97C575.853 205.97 580.942 205.569 586.386 204.769L586.24 203.779C580.837 204.574 575.797 204.97 571.12 204.97V205.97ZM586.385 204.769C591.931 203.965 597.082 202.477 601.833 200.302L601.417 199.393C596.758 201.525 591.7 202.988 586.241 203.779L586.385 204.769ZM601.833 200.302C606.605 198.119 610.576 195.082 613.737 191.191L612.961 190.56C609.901 194.326 606.056 197.27 601.417 199.393L601.833 200.302ZM613.733 191.196C617.012 187.26 618.634 182.235 618.634 176.161H617.634C617.634 182.05 616.066 186.834 612.965 190.555L613.733 191.196ZM618.634 176.161C618.634 171.939 617.7 168.294 615.807 165.25L614.958 165.778C616.734 168.636 617.634 172.089 617.634 176.161H618.634ZM615.81 165.255C613.934 162.155 611.327 159.511 608.001 157.321L607.451 158.156C610.666 160.273 613.163 162.812 614.955 165.773L615.81 165.255ZM608.013 157.329C604.777 155.063 600.905 153.17 596.403 151.642L596.081 152.589C600.512 154.092 604.295 155.947 607.44 158.148L608.013 157.329ZM596.405 151.643C592.003 150.122 587.203 148.722 582.006 147.443L581.767 148.414C586.938 149.687 591.709 151.079 596.079 152.588L596.405 151.643ZM582.013 147.445C576.82 146.087 571.349 144.809 565.599 143.611L565.395 144.59C571.13 145.785 576.585 147.059 581.76 148.412L582.013 147.445ZM565.601 143.611C559.946 142.417 554.211 141.063 548.397 139.549L548.145 140.517C553.974 142.034 559.724 143.392 565.394 144.59L565.601 143.611ZM548.4 139.55C539.486 137.162 530.89 134.337 522.614 131.074L522.248 132.005C530.56 135.282 539.192 138.119 548.141 140.516L548.4 139.55ZM522.618 131.076C514.366 127.743 507.073 123.501 500.735 118.351L500.104 119.127C506.526 124.345 513.907 128.637 522.244 132.003L522.618 131.076ZM500.737 118.353C494.491 113.214 489.47 106.929 485.672 99.4909L484.781 99.9457C488.639 107.502 493.746 113.896 500.102 119.125L500.737 118.353ZM485.675 99.4965C481.969 92.0061 480.104 82.8353 480.104 71.9644H479.104C479.104 82.9456 480.987 92.2774 484.778 99.94L485.675 99.4965ZM480.104 71.9644C480.104 64.0394 481.292 56.8005 483.663 50.2422L482.722 49.9023C480.308 56.583 479.104 63.9388 479.104 71.9644H480.104ZM483.663 50.2422C486.038 43.6723 489.321 37.7795 493.512 32.5606L492.732 31.9345C488.469 37.2429 485.133 43.2333 482.722 49.9023L483.663 50.2422ZM493.512 32.5606C497.708 27.3354 502.617 22.7826 508.24 18.9017L507.672 18.0787C501.97 22.0136 496.99 26.6323 492.732 31.9345L493.512 32.5606ZM508.241 18.9009C513.95 14.9364 520.095 11.6851 526.678 9.14719L526.318 8.21414C519.662 10.7804 513.446 14.0688 507.671 18.0795L508.241 18.9009ZM526.683 9.14529C533.27 6.52622 540.136 4.5814 547.282 3.31113L547.107 2.32657C539.896 3.60838 532.965 5.57144 526.314 8.21604L526.683 9.14529ZM547.281 3.31129C554.51 2.04014 561.699 1.40479 568.847 1.40479V0.404785C561.639 0.404785 554.393 1.04547 547.108 2.3264L547.281 3.31129ZM568.847 1.40479C581.327 1.40479 593.167 2.91512 604.366 5.93346L604.627 4.96791C593.336 1.92505 581.409 0.404785 568.847 0.404785V1.40479ZM604.366 5.93346C615.556 8.94905 625.346 13.6281 633.744 19.966L634.346 19.1678C625.836 12.7453 615.927 8.01352 604.627 4.96791L604.366 5.93346ZM633.748 19.9691C642.217 26.2219 648.946 34.2163 653.937 43.9599L654.827 43.504C649.768 33.6284 642.94 25.5128 634.342 19.1647L633.748 19.9691ZM653.937 43.9599C658.918 53.6845 661.418 65.2866 661.418 78.7832H662.418C662.418 65.1639 659.895 53.3985 654.827 43.504L653.937 43.9599ZM661.918 78.2832H610.956V79.2832H661.918V78.2832ZM611.456 78.7552C611.054 71.6147 609.729 65.6447 607.46 60.8638L606.557 61.2925C608.754 65.9223 610.061 71.7558 610.457 78.8112L611.456 78.7552ZM607.462 60.8667C605.198 56.0149 602.117 52.1191 598.217 49.1937L597.617 49.9938C601.373 52.8106 604.354 56.571 606.556 61.2896L607.462 60.8667ZM598.217 49.1937C594.327 46.2764 589.755 44.2157 584.511 43.0055L584.286 43.9799C589.41 45.1622 593.85 47.1689 597.617 49.9938L598.217 49.1937ZM584.511 43.0055C579.285 41.7994 573.544 41.1982 567.292 41.1982V42.1982C573.481 42.1982 579.145 42.7934 584.286 43.9799L584.511 43.0055ZM567.292 41.1982C562.948 41.1982 558.566 41.6809 554.146 42.6453L554.359 43.6223C558.712 42.6726 563.022 42.1982 567.292 42.1982V41.1982ZM554.152 42.6439C549.796 43.5314 545.835 45.0256 542.274 47.1296L542.783 47.9905C546.241 45.9474 550.096 44.4908 554.352 43.6237L554.152 42.6439ZM542.274 47.1296C538.701 49.2409 535.775 52.0045 533.499 55.4175L534.331 55.9722C536.522 52.6859 539.338 50.0263 542.783 47.9905L542.274 47.1296ZM533.499 55.4175C531.2 58.8663 530.066 63.1156 530.066 68.1362H531.066C531.066 63.2676 532.164 59.2226 534.331 55.9722L533.499 55.4175ZM530.066 68.1362C530.066 72.5844 530.915 76.3439 532.643 79.3889L533.513 78.8953C531.891 76.0386 531.066 72.4608 531.066 68.1362H530.066ZM532.646 79.394C534.393 82.388 537.804 85.1145 542.784 87.6044L543.231 86.71C538.321 84.2553 535.113 81.6384 533.51 78.8902L532.646 79.394ZM542.786 87.6059C547.85 90.0972 554.98 92.6589 564.163 95.2941L564.439 94.3329C555.279 91.7044 548.214 89.1619 543.228 86.7086L542.786 87.6059ZM564.163 95.2941C573.341 97.9277 585.389 101.159 600.305 104.988L600.553 104.019C585.642 100.192 573.604 96.9629 564.439 94.3329L564.163 95.2941ZM600.311 104.989C603.261 105.707 607.009 106.624 611.555 107.74L611.793 106.769C607.247 105.653 603.499 104.735 600.547 104.018L600.311 104.989ZM611.555 107.74C616.076 108.851 620.839 110.399 625.845 112.385L626.214 111.456C621.172 109.455 616.365 107.892 611.793 106.769L611.555 107.74ZM625.848 112.386C630.922 114.368 636 116.907 641.082 120.004L641.602 119.15C636.475 116.026 631.345 113.46 626.212 111.455L625.848 112.386ZM641.085 120.005C646.222 123.088 650.807 126.961 654.841 131.627L655.597 130.973C651.496 126.229 646.83 122.286 641.599 119.148L641.085 120.005ZM654.844 131.631C658.947 136.286 662.268 141.896 664.801 148.467L665.734 148.108C663.164 141.44 659.785 135.725 655.594 130.97L654.844 131.631ZM664.802 148.469C667.327 154.938 668.596 162.57 668.596 171.376H669.596C669.596 162.477 668.313 154.716 665.734 148.106L664.802 148.469ZM668.596 171.376C668.596 182.154 666.457 192.13 662.183 201.311L663.089 201.733C667.429 192.412 669.596 182.291 669.596 171.376H668.596ZM662.183 201.31C657.912 210.407 651.582 218.282 643.185 224.937L643.806 225.72C652.316 218.976 658.747 210.981 663.089 201.735L662.183 201.31ZM643.183 224.938C634.868 231.59 624.521 236.788 612.128 240.521L612.417 241.479C624.906 237.716 635.375 232.466 643.808 225.719L643.183 224.938ZM612.125 240.522C599.742 244.332 585.437 246.242 569.206 246.242V247.242C585.513 247.242 599.92 245.324 612.419 241.478L612.125 240.522ZM569.206 246.242C556.015 246.242 543.344 244.375 531.191 240.642L530.897 241.598C543.149 245.361 555.919 247.242 569.206 247.242V246.242ZM531.188 240.641C519.042 236.989 508.332 231.514 499.054 224.218L498.435 225.004C507.819 232.383 518.643 237.913 530.9 241.598L531.188 240.641ZM499.055 224.219C489.863 216.929 482.531 207.855 477.06 196.991L476.167 197.441C481.701 208.429 489.124 217.619 498.434 225.003L499.055 224.219ZM477.061 196.994C471.678 186.149 469.019 173.548 469.098 159.177L468.098 159.171C468.018 173.67 470.702 186.43 476.165 197.438L477.061 196.994ZM468.598 159.674H519.56V158.674H468.598V159.674Z" fill="#ffffff" fill-opacity="0.3"/>
</svg>
